<?xml version="1.0" encoding="UTF-8"?><svg id="Layer_1" xmlns="http://www.w3.org/2000/svg" viewBox="0 0 50 50"><defs><style>.cls-1{fill:#231f20;}.cls-1,.cls-2{fill-rule:evenodd;}.cls-2{fill:#cce6c6;}</style></defs><path class="cls-1" d="m20.78,26.46c.6,0,1.93.23,1.93,1.95s-1.69,1.81-1.93,1.81h-2.77v-3.76h2.77Z"/><path class="cls-1" d="m21.95,22.12c0,1.28-1.14,1.49-1.48,1.49h-2.5v-2.86h2.27c.23,0,1.7.09,1.7,1.37Z"/><path class="cls-1" d="m33.23,23.26c.88,0,1.41.22,1.82.57.41.36.66.93.74,1.65h-5.29c-.03-1.16,1.3-2.23,2.73-2.22Z"/><path class="cls-1" d="m39.51.98c5.79,0,10.49,4.7,10.49,10.49v28.04c0,5.79-4.7,10.49-10.49,10.49H11.47c-5.79,0-10.49-4.7-10.49-10.49V11.47C.98,5.68,5.68.98,11.47.98h28.04Zm-9.2,15.88c-.54,0-.97.44-.97.97s.44.97.97.97h5.85c.54,0,.97-.44.97-.97s-.44-.97-.97-.97h-5.85Zm-8.87,16.18c.61,0,5.17-.18,5.17-4.39,0-2.71-1.67-3.6-2.58-3.91.61-.31,1.62-1.1,1.62-3.21,0-3.96-3.75-3.83-4.51-3.83h-6.99v15.34h7.3Zm17.41-4.56c.12-3.37-.59-7.71-5.7-7.71-1.45,0-5.7.67-5.7,6.27,0,5.18,3.94,6.27,5.86,6.27,2.92,0,4.85-2.05,5.39-3.86h-3.02c-.43.47-1.15,1.03-2.67.88-1.89-.2-2.4-1.95-2.4-1.95l5.7.11h0s2.55,0,2.55,0c0,0,0,0,0,0Z"/><path class="cls-2" d="m19.8,25.48c.6,0,1.93.23,1.93,1.95s-1.69,1.81-1.93,1.81h-2.77v-3.76h2.77Z"/><path class="cls-2" d="m20.97,21.14c0,1.28-1.14,1.49-1.48,1.49h-2.5v-2.86h2.27c.23,0,1.7.09,1.7,1.37Z"/><path class="cls-2" d="m32.25,22.28c.88,0,1.41.22,1.82.57.41.36.66.93.74,1.65h-5.29c-.03-1.16,1.3-2.23,2.73-2.22Z"/><path class="cls-2" d="m38.53,0C44.32,0,49.02,4.7,49.02,10.49v28.04c0,5.79-4.7,10.49-10.49,10.49H10.49c-5.79,0-10.49-4.7-10.49-10.49V10.49C0,4.7,4.7,0,10.49,0h28.04Zm-9.2,15.88c-.54,0-.97.44-.97.97s.44.97.97.97h5.85c.54,0,.97-.44.97-.97s-.44-.97-.97-.97h-5.85Zm-8.87,16.18c.61,0,5.17-.18,5.17-4.39,0-2.71-1.67-3.6-2.58-3.91.61-.31,1.62-1.1,1.62-3.21,0-3.96-3.75-3.83-4.51-3.83h-6.99v15.34h7.3Zm17.41-4.56c.12-3.37-.59-7.71-5.7-7.71-1.45,0-5.7.67-5.7,6.27,0,5.18,3.94,6.27,5.86,6.27,2.92,0,4.85-2.05,5.39-3.86h-3.02c-.43.47-1.15,1.03-2.67.88-1.89-.2-2.4-1.95-2.4-1.95l5.7.11h0s2.55,0,2.55,0c0,0,0,0,0,0Z"/></svg>