<?xml version="1.0" encoding="UTF-8"?><svg id="Layer_5" xmlns="http://www.w3.org/2000/svg" viewBox="0 0 50 50"><defs><style>.cls-1{fill:#e2acbf;}.cls-2{fill:#c9495b;}.cls-3{fill:#d47d94;}.cls-4{fill:#473e41;}.cls-5{fill:#c84557;}.cls-6{fill:#b572a6;}.cls-7{fill:#d88da4;}.cls-8{fill:#cc576d;}.cls-9{fill:#c9475a;}.cls-10{fill:#dc98ad;}.cls-11{fill:#d06985;}.cls-12{fill:#c84559;}.cls-13{fill:#d47992;}.cls-14{fill:#c74255;}.cls-15{fill:#dfa2b5;}.cls-16{fill:#4d474a;}.cls-17{fill:#cf6878;}.cls-18{fill:#d6849b;}.cls-19{fill:#d47b94;}.cls-20{fill:#413d41;}.cls-21{fill:#c84a5e;}.cls-22{fill:#e3b3c8;}.cls-23{fill:#ae3d4d;}.cls-24{fill:#333;}.cls-25{fill:#d4aabe;}.cls-26{fill:#342c2d;}.cls-27{fill:#cf6581;}.cls-28{fill:#d16e8a;}.cls-29{fill:#db97ac;}.cls-30{fill:#92313c;}.cls-31{fill:#d78b9f;}.cls-32{fill:#ce6777;}.cls-33{fill:#cf6778;}.cls-34{fill:#d991a5;}.cls-35{fill:#cf667c;}.cls-36{fill:#faeff6;}.cls-37{fill:#ab4552;}.cls-38{fill:#9a3843;}.cls-39{fill:#cc536d;}.cls-40{fill:#dc99ae;}.cls-41{fill:#5b595c;}.cls-42{fill:#d7879e;}.cls-43{fill:#b33341;}.cls-44{fill:#d88aa2;}.cls-45{fill:#d47c8f;}.cls-46{fill:#c6495c;}.cls-47{fill:#ce6078;}.cls-48{fill:#ce617a;}.cls-49{fill:#c14e5f;}.cls-50{fill:#d990a4;}.cls-51{fill:#dea0b3;}.cls-52{fill:#ad4553;}.cls-53{fill:#c54a5d;}.cls-54{fill:#cd6077;}.cls-55{fill:#c3323f;}.cls-56{fill:#ce627d;}.cls-57{fill:#d7879c;}.cls-58{fill:#cb4f68;}.cls-59{fill:#eacdde;}</style></defs><path class="cls-24" d="m9.99,20.8c.4-.67.72-1.41,1.23-1.99.8-.92,1.72-1.73,2.59-2.59.28.15.13.34.03.51-.31.5.24,1.56-.09,2.05-.39.59-1.64.6-1.8,1.29-.2.91.3,1.73,1.22,1.86.82.11,1.6.4,2.41.54.32.06.59.26.91.36.74.23,1.42.62,2.14.91.73.29,1.24.87,1.73,1.45.47.57.98,1.08,1.63,1.45.44.25.77.61,1.03,1.06.3.52.8.26,1.22.77.24-.77.88-.97.91-1.71.02-.52.32-.97.37-1.49.01-.1.1-.15.19-.18.77.02.91-.4.94-1.09.08-1.85-.29-3.68-.21-5.53.01-.25-.03-.5.08-.74.32-.26.44.07.5.23.33.77.93,1.42,1.1,2.25.27,1.31,1.21,1.61,2.34,1.78,1.43.22,2.85.07,4.26-.08,2.02-.22,2.91,1.04,2.54,3.38-.26,1.6-.37,3.24-.18,4.87-.13.15-.31.12-.48.13-.9,0-1.8,0-2.7,0-.53,0-.66-.17-.49-.66.18-.51.38-1.01.69-1.47.46-.71.64-1.51.45-2.36-.13-.57-.48-.73-.99-.44-.96.54-1.03,1.8-1.99,2.35.29.89-.59.72-.76.91-.63.68-1.88.38-2.58.99-.45.39-.98.59-1.57.61-1.97.07-3.94.11-5.92.08-.17,0-.35.01-.52-.05-.42-.26-.79-.6-1.19-.89-.42-.31-.88-.52-1.37-.67-.66-.2-1.22.16-1.36.82-.05.24-.04.5-.23.69-.47.17-.95.09-1.43.06-.3-.02-.39-.28-.4-.55-.02-.54.1-1.05.28-1.55.16-.45.34-.9.57-1.33.24-.46.26-.96.23-1.45-.03-.43-.23-.78-.65-1.05-.66-.44-1.36-.8-2.06-1.17-1.15-.6-1.8-1.53-1.7-2.88,0-.05,0-.09-.05-.16-.2.03-.26.22-.36.36-.13.16-.23.39-.5.34Z"/><path class="cls-24" d="m9.99,20.8c.33-.34.65-.67.98-1.01.31.42-.1.87.09,1.32.37.88.85,1.6,1.77,2.01,1.88.85,2.27,1.2,2.5,1.78.45,1.12-.2,2.02-.56,2.98-.15.39-.24.8-.34,1.2-.22.91-.12,1.05.78,1.05.28,0,.56,0,.84,0,1.37-.27,2.73-.27,4.1,0h.57c.02.08,0,.13-.06.16-.21.1-.43.07-.64.07-2.14,0-4.29,0-6.43,0-.21.04-.41.01-.62-.02-.46-.15-.93-.05-1.39-.05-.59,0-1.18,0-1.77,0-.54,0-.59.05-.59.59,0,1.62,0,3.23,0,4.85,0,.36.02.72,0,1.07-.03.5.17.84.63,1.02.17.1.34.19.43.38.15.3.13.63.15.96.03.87.25,1.07,1.1,1.18.85.11,1.67.09,2.48-.18.3-.1.56-.26.79-.47.43-.39,1.14-.34,1.47.06-.68.87-1.65,1.12-2.66,1.24-.58.07-1.18.05-1.76,0-1.61-.12-2.06-.58-2.19-2.18-.01-.17,0-.39-.13-.48-1.07-.68-.75-1.78-.78-2.74-.03-1.13.01-2.26-.53-3.3-.08-.42-.04-.84-.05-1.25-.02-.52-.02-.53-.56-.56-.05-.01-.09-.04-.13-.07.28-3.35,1.02-6.58,2.52-9.61Z"/><path class="cls-24" d="m19.87,13.51c1.75-.21,3.49-.43,5.24-.64.06.28.35.55.07.86-1.17-.19-2.38.57-3.52.75-1.55.24-3.03.06-4.43.81-1.02.55-1.93,1.24-2.64,2.17-.25.32-.44.68-.56,1.07-.09.3.03.45.34.43.19,0,.36-.07.54-.13,1.25-.42,2.43-1.03,3.65-1.52.36-.15.74-.23,1.1-.36,1.01-.36,1.99-.77,3.02-1.08.53-.16,1.06-.33,1.59-.48.42-.11.73-.33.7-.84,0-.15-.02-.36.23-.38.33,1.58.02,3.02-.8,4.43-1.69,2.88-4.21,3.96-7.75,3.17-.99-.22-2-.23-3-.34-1.29-.15-1.86-.99-1.33-2.2,1.17-2.69,3.31-4.31,6.06-5.18.5-.16,1.03-.22,1.48-.52Z"/><path class="cls-24" d="m25.19,13.71c-.03-.28-.06-.56-.09-.84.03-.03.06-.06.09-.1.06-.03.1-.02.14.03.16.29.1.61.11.91.03,2.22.16,4.46-.03,6.65-.11,1.25-.28,2.52-.33,3.79.04-.9-.05-1.8.19-2.7.37,1.22.2,2.48.29,3.72-.2.87-.3,1.79-.63,2.6-.45,1.09-.9,1.14-1.85.26-1.19-1.11-2.24-2.38-3.49-3.42-.83-.69-1.87-1.18-2.88-1.57-1.14-.43-2.35-.68-3.54-.96-1.01-.24-1.71-1.16-1.31-2.11.49-1.16,1.23-2.22,1.84-3.34.07-.13.07-.29.1-.44,1.78-1.44,3.85-2.22,6.06-2.71-.11.1-.21.24-.34.29-1,.4-2.12.62-3,1.21-1.2.81-2.24,1.86-3.29,2.87-.35.34-.54.86-.76,1.32-.11.24-.15.54-.15.81-.02.83.45,1.2,1.23,1.25.47.03.95.04,1.42.1.66.08,1.32.18,1.96.31,2.09.43,3.97.22,5.7-1.22,2.01-1.68,2.73-3.77,2.55-6.28-.13-.15-.13-.3,0-.46Z"/><path class="cls-24" d="m25.58,25.18c-.06-.15-.18-.29-.18-.44-.02-.97-.01-1.95-.02-2.92,0-.09-.05-.17-.16-.57v3.67c-.07,0-.14,0-.21,0,0-.8-.04-1.6.01-2.39.05-.78.26-1.55.3-2.32.05-.82-.02-1.64-.02-2.46,0-.84,0-1.68,0-2.52,0-.82,0-1.65,0-2.47-.1-3.52-.06-7.04.01-10.56,0-.44.83-.16,1.28-.16.01.4.02.8.03,1.19.04.05.07.1.09.16.05.21.03.43.03.65,0,2.53,0,5.05,0,7.58,0,.53,0,1.05.02,1.58-.05.92-.02,1.85-.01,2.77.03.18.03.35,0,.53-.1.36.14.77-.14,1.11.06,2.11.09,4.21.2,6.32.05.96-.22,1.42-1.23,1.24Z"/><path class="cls-24" d="m2.62,40.02c-.01-1.75-.04-3.51-.01-5.26,0-.36.25-.72.39-1.08.44-.09.33.23.35.45.07.86-.25,1.76.26,2.57.04.06.07.13.08.2-.52.69-.22,1.4-.07,2.11.06.31.22.37.5.2.37-.23.77-.4,1.23-.31.16.08.38.02.47.23-.1.22-.31.16-.48.18-.44.05-.84.18-1.21.44-.22.16-.31.34-.14.59.17.26.3.54.49.8.39-.18.58-.73,1.1-.58.04.06.04.09.03.12-.04.3-.8.46-.36.73.43.27,1.06.75,1.66.09.23-.25.49-.56,1.11-.45-.67.46-.89,1.12-1.31,1.64-.14.11-.23.27-.21.44.1,1.03-.65,1.06-1.53,1.19.72.25,1.13.73,1.75.85.21.04.63.03.46.49-.19.1-.37.04-.55-.03-.83-.18-1.61-.45-2.22-1.08-.97-1.37-1.96-2.73-1.77-4.55Z"/><path class="cls-24" d="m3.55,36.87c-.34-.28-.4-.66-.38-1.08.03-.61.04-1.23.04-1.84,0-.09-.14-.18-.22-.27.62-1.94,1.95-2.85,3.97-2.81.16,0,.32-.19.48-.29.25.23.33.43-.09.54-.11.03-.22.04-.23.18-.1,1.57-.86,2.29-2.16,1.94.04,0,.44-.14.71.23-.08.82-.21,1.64-.23,2.47,0,.37-.28.52-.6.6-.45.03-.83.33-1.29.31Z"/><path class="cls-24" d="m5.58,33.4c-.46-.03-.91-.06-1.32-.09.27-.21.65-.17,1.22-.19.38-.02.79-.31,1.08-.59.24-.24.33-.63.49-.96-.1-.05-.19-.11-.29-.16.2-.17.4-.34.73-.62.02.08-.01-.06-.05-.2,0-.06.02-.12.02-.18.03,0,.06,0,.09,0,.55.21.57.7.6,1.16.08,1.65.05,3.3-.08,4.95-.02.3-.05.66-.53.55-.44-1.16-.27-2.38-.31-3.58-.02-.27.03-.55-.04-.96-.38.65-.75,1.15-1.5.93-.04,0-.08-.03-.12-.05Z"/><path class="cls-24" d="m26.59,2.05c-1.07-.22-1.35.17-1.32,1.27.09,3.15.03,6.3.03,9.45-.03,0-.06,0-.09,0,0-3.46-.02-6.93.04-10.39,0-.12.87-.22,1.34-.33Z"/><path class="cls-24" d="m26.61,17.62c0-.37,0-.75,0-1.12.31.4.71.7,1.06,1.05.4.41.95.05,1.26.55.07.12.49,0,.62.04,1.22.42,1.96,1.47,3.3,1.62.88.1,1.76.82,2.63,1.09,1.43.45,2.14,1.29,2.4,2.77.19,1.07,0,2.14.13,3.21.09.85.27,1.68.45,2.51.1.46.51.51.88.54.59.04,1.18.03,1.77,0,.41-.02.82-.03,1.23,0,.16.01.43-.05.41.27-.21.18-.47.1-.71.11-.72.05-1.44.04-2.17,0-.74-.03-1.49,0-2.23-.02-.2,0-.41.04-.56-.14-.36-.43-.47-.89-.16-1.4.04-.06.06-.15.06-.22,0-.52-.02-1.04.01-1.56.06-.89.15-1.78.22-2.67.05-.65-.09-1.27-.49-1.79-.13-.16-.43-.21-.66-.28-.87-.28-1.8-.21-2.64-.06-1.08.2-2.12.06-3.16-.07-.67-.08-1.43-.15-1.85-.85-.07-.12-.15-.23-.2-.35-.29-.66-.55-1.33-.86-1.98-.21-.44-.48-.85-.72-1.27Z"/><path class="cls-24" d="m37.06,30.12c.94,0,1.87.01,2.81.02,0,.11-.08.15-.16.19-.46.1-.92.06-1.38.04-2.98-.02-5.95,0-8.93,0-.21,0-.4.03-.57.17-.43.7-.99-.13-1.46.14-1.03,0-2.07.01-3.1,0-.38-.07-.76.04-1.14,0-.18-.06-.36-.12-.52-.2-.41-.2-.85-.06-1.27-.1-.21-.02-.44.06-.6-.15,0-.02,0-.05,0-.07,2.02-.03,4.05.08,6.04-.17.88-.11,1.69-.94,2.47-1.52,1.55-1.12,3.05-2.31,4.61-3.42.11-.08.64.18.72.38.41,1.03.16,2-.42,2.93-.29.47-.47,1-.67,1.52-.02.04.2.25.32.25,1.09.02,2.17,0,3.26,0Z"/><path class="cls-24" d="m20.16,30.12c-1.37,0-2.73,0-4.1,0,.12-1.9,1.22-1.97,2.5-1.25.58.33,1.07.83,1.61,1.25Z"/><path class="cls-24" d="m26.61,3.34c.03.34.06.69.09,1.03.22.21.16.49.16.75,0,2.27,0,4.53,0,6.8,0,.77,0,.76.76.85.29.03.6-.03.85.19.22.03.44.06.66.09,1.25.24,2.51.45,3.75.73.71.16,1.4.43,2.1.66.14.05.27.13.41.2,1.82,1.24,3.3,2.88,5,4.26.27.22.38.67.84.65.5.42.7,1.03,1,1.57,1.16,2.79,1.96,5.68,2.3,8.69.02.14.03.28-.02.41-.05.13-.14.23-.28.26-.58,0-.57,0-.58.58-.01.62.05,1.24-.05,1.85-.12.59-.03,1.18-.05,1.77-.01.37.03.75-.02,1.12-.05.4-.18.94-.59.93-.4,0-.26-.55-.26-.87,0-1.52-.04-3.04.02-4.56-.02-.28-.04-.55.04-.82.57-.66.51-1.47.46-2.25-.08-1.34-.48-2.63-.76-3.93-.23-1.07-.57-2.1-1.08-3.07-.54-1.02-1.26-1.89-2.23-2.52-.91-.59-1.64-1.37-2.41-2.12-.77-.75-1.69-1.27-2.66-1.69-1.96-.86-4.04-1.2-6.16-1.35-.39-.03-.77-.06-1.15-.15-.07-.04-.11-.1-.14-.17,0-3.3,0-6.6,0-9.9Z"/><path class="cls-24" d="m35.94,14.83c1.06.77,2.12,1.55,3.17,2.32.86.67,1.67,1.37,2.05,2.44-.13-.02-.29,0-.38-.07-1.75-1.5-3.48-3-5.22-4.51-.1-.08-.13-.25-.19-.37.19.07.37.13.56.2Z"/><path class="cls-24" d="m10.17,38.25l-.29-.28c.15-.16.34-.11.52-.09.34.05.67.1,1,.16.64.12,1.25,0,1.85-.22.25-.02.49.04.73.1,1.37.33,2.78.44,4.18.54.26.02.52.04.76.17,1.44.94,1.96.19,4.68.83,1.62-.27,3.2-.19,4.8.2,1.53.38,3.05.95,4.65.36.39.22.04.27-.08.37-.03.03-.1-.02-.1.06.05,0,.09,0,.13.03.14.16.5.22.27.55-.93.58-1.99.37-2.99.48-1.42.16-3.12.29-4.55.28-.14,0,0-.28-.12-.47.5-.47,1.14-.14,1.69-.3-1.23-.12-2.64.14-3.66.07-.59.82-2.59.14-3.86.26-.15.01-.33.03-.46-.04-1.02-.56-1.03.16-1.12.85-.05.36,0,.75-.18,1.09-.04.04-.09.05-.15.03-.15-.15-.1-.35-.12-.53-.03-.2,0-.4-.02-.6-.23-.71-.91-.41-1.37-.6-.45-.18-1.94.11-2.02-.42-.08-.52,1.43-.41,1.82-.64.79-.47,1.6-.88,2.3-.31-.06-.04-.34-.12-.62-.21-.3-.1-.61-.1-.91-.2-2.04-.51-4.15-.67-6.18-1.23-.23-.06-.45-.12-.61-.31Z"/><path class="cls-24" d="m13.26,37.97c-.54.24-1.1.36-1.69.27-.45-.07-.9-.17-1.36-.24-.11-.02-.21-.01-.32-.02-.64-.14-.83-.38-.83-1.01,0-2.1,0-4.19,0-6.29,0-.54,0-.55.55-.55.99,0,1.99,0,2.98.01.13,0,.27.05.4.07-.97.12-.79.85-.79,1.48,0,1.77-.02,3.54.1,5.3.01.21-.02.45.24.56.23.15.6.07.72.41Z"/><path class="cls-24" d="m12.6,37.71c-.38.04-.49-.12-.49-.5,0-2.12-.06-4.24-.04-6.36,0-.21.38-.43.61-.61.07-.06.21-.02.32-.02.17,0,.35.01.52.02,2.82.07,5.64.06,8.46.09.25,0,.5-.04.73.09.12.06.25.12.37.19-.3.61-.36,1.43-.96,1.78-.05.19-.14.38-.19.57-.14.28.13.74-.27.87-.35.11-.47-.33-.73-.49-2.17-1.32-4.49-1.92-7.02-1.38-.72.15-1.09.62-1.09,1.44,0,1.29-.09,2.57-.08,3.86,0,.17,0,.35-.15.47Z"/><path class="cls-24" d="m17.07,39.66c.77.17,1.52.38,2.51,1.04-.6-.2-.86-.24-1.09-.36-.58-.32-1.11-.35-1.7,0-.37.23-.82.35-1.23.52-.17.07-.33.13-.79.3,1.04.18,1.8.29,2.54.47.22.05.4.3.6.46-1.7-.31-3.42-.43-5.14-.54-.12-.04-.24-.09-.13-.28-.23.04-.38.31-.63.18-1.65-.36-3.36-.35-5.01-.74-.38-.09-.66-.23-.74-.65-.05-.27-.29-.48-.32-.77.28-.36.48-.08.64.12.24.29.48.56.78.78.15.11.31.2.51.2.05,0,.1.02.14.03.36.07.73.06,1.13.14-.46-.47-.69-1.04-.88-1.63-.14-.44-.15-.92-.5-1.28-.11-.11-.05-.25.1-.29.27-.08.3-.28.3-.51,0-1.39.02-2.79.02-4.18,0-.14,0-.28.13-.38.34.71.64,1.42.58,2.25-.05.75.04,1.52.07,2.27,0,.11.02.23-.02.32-.13.35.01.6.3.74.48.24.57.61.58,1.11,0,.39.08.85.3,1.15.23.3.66.59,1.02.61,1.07.06,2.16.08,3.22-.07.57-.08,1.09-.53,1.63-.81.08-.04.17-.08.25-.11.13-.13.29-.11.43-.05.14.05.27.08.39-.03Z"/><path class="cls-24" d="m17.07,39.66c-.11.04-.23.12-.34.13-.16.01-.32-.03-.48-.05-.51.09-1.03.16-1.54.28-.71.17-1.41.43-2.13.54-.44.07-1,.08-1.36-.13-.4-.23-.93-.49-.93-1.14,0-.33-.09-.69-.12-1.04,1.5.31,2.99.62,4.49.93.8.16,1.6.32,2.4.48Z"/><path class="cls-24" d="m8.31,32.27c0,1.55,0,3.1,0,4.66,0,.54,0,.55-.36.56.22.63.43,1.32.69,1.98.12.29.34.54.52.81.1.14.21.27.31.41-.2,0-.41.03-.61,0-.32-.04-.63-.12-.94-.19.38-.78-.25-1.41-.32-2.13-.04-.45-.36-.88-.05-1.34.16-.54.43-1.08.44-1.62.04-1.42-.02-2.85-.08-4.28-.01-.25-.24-.49-.36-.73.53-.23.82-.16.76.52-.04.45,0,.9,0,1.35Z"/><path class="cls-24" d="m22.7,30.4c-1.72-.03-3.44-.05-5.16-.07-1.18-.01-2.36-.01-3.54-.03-.17,0-.33-.05-.49-.07,2.4,0,4.8-.01,7.2-.02.66.07,1.32.13,1.98.2Z"/><path class="cls-24" d="m25.19,13.71c0,.15,0,.3,0,.46.08,1.81-1.57,1.42-2.48,1.83-1.95.89-4.01,1.54-6.03,2.29-.71.26-1.4.56-2.11.79-.2.07-.57.03-.67-.1-.1-.14-.03-.48.06-.69.79-1.77,2.26-2.94,4-3.46,2.18-.65,4.49-.9,6.75-1.3.15-.03.32.12.49.18Z"/><path class="cls-24" d="m40.98,30.03c-.88-.1-1.85.3-2.63-.41-.16-.89-.38-1.76-.47-2.66-.11-1.03-.03-2.09-.17-3.12-.27-1.99-1.2-2.76-3.25-3.16-1.63-.32-3.23-.84-4.84-1.28-.65-.55-1.33-1.07-1.95-1.66-.39-.37-.7-.83-1.05-1.25,0-.16,0-.31,0-.47.09-.12-.02-.29.09-.41,1.16-.13,2.24.23,3.3.64,2.25.88,4.58,1.61,6.58,3.02.56.4.91.99,1.29,1.56,1.77,2.68,2.48,5.72,3.14,8.79.03.14.06.28-.04.4Z"/><path class="cls-24" d="m26.7,15.66c-.03.12-.06.25-.09.37,0-.93,0-1.86,0-2.8.03.03.06.06.09.1.27.78.27,1.55,0,2.33Z"/><path class="cls-24" d="m5.97,39.18c.16.36.31.72.49,1.07.06.11.21.19.34.23,1.03.35,2.12.33,3.19.47.63.08,1.25.19,1.87.29.09.02.17.11.25.17-.02.24-.2.38-.31.57-.35.43-.5.94-.62,1.46-.05.12-.08.24-.19.33-1.46.28-2.89.02-4.3-.32-.13-.03-.23-.16-.24-.32.05-.17-.08-.4.17-.5.1-.15.21-.3.31-.45.25-.37.5-.74.8-1.18-.33.29-.62.56-.93.81-.11.09-.29.18-.41.16-.39-.08-.77-.22-1.15-.34-.44-.15-.48-.26-.17-.6.13-.14.31-.24.44-.39-.45.13-.77.43-1.01.85-.25-.42-.49-.83-.73-1.23-.12-.2-.08-.33.1-.47.57-.48,1.22-.64,1.94-.61.06-.04.12-.03.17.02Z"/><path class="cls-24" d="m6.62,42.63c-.03.16-.06.31-.09.47.03.47.2.7.6.78,1.02.19,2.06.19,3.09.29.41.04.64-.16.79-.51.03-.1.06-.19.09-.29.18.14.14.33.14.51,0,.55.05,1.08.27,1.59.11.26.08.49-.21.62.3.37.29.43-.08.73-.2-.03-.4-.03-.59-.09-1.15-.38-2.29-.76-3.43-1.15-.23-.11-.47-.22-.7-.33-.22-.11-.44-.24-.66-.36-.13-.07-.27-.13-.41-.2-.15-.07-.32-.13-.44-.23-.06-.05-.1-.2-.07-.28.02-.05.17-.06.26-.08.33-.07.68-.12,1-.23.09-.03.15-.24.18-.38.05-.26.07-.52.11-.78,0-.04.11-.06.17-.09Z"/><path class="cls-24" d="m5.97,39.18c-.06,0-.12-.01-.17-.02-.16-.06-.31-.11-.47-.17.03-.04.06-.07.1-.09.3-.04.4-.19.36-.51-.05-.44-.12-.88-.11-1.33,0-.21-.07-.28-.27-.26-.48,0-.96,0-1.43.17-.12.04-.24.07-.35-.03-.03-.02-.06-.05-.09-.07.4-.13.8-.26,1.2-.4.57,0,.85-.28.89-.86.04-.74.53-1.46.06-2.22.04-.02.09-.08.11-.07.58.22.84-.13,1.07-.58.08-.17.24-.3.37-.44.04,0,.08.02.12.03v.99c-.41.69-.42,1.47-.51,2.23-.04.35-.08.71-.29,1.02-.06.09-.11.19-.03.3.5.65.76,1.48.93,2.24.08.36.05.59.33.85.12.12.13.34.05.53-.6-.04-.94-.47-1.26-.89-.17-.22-.33-.39-.61-.41Z"/><path class="cls-24" d="m5.41,38.99s-.06,0-.09,0c-.41.12-.8.28-1.22.35-.19.03-.58-.11-.58-.18-.04-.74-.78-1.54.11-2.23.6-.24,1.22-.35,1.86-.26.12.78.53,1.57-.09,2.32Z"/><path class="cls-24" d="m5.7,33.39c.29.29.33.94.23,1.51-.07.42-.06.9-.28,1.25-.13.21-.64.36-.9.32.19-.49.43-.97.57-1.48.14-.51.18-1.05.26-1.58.04,0,.08,0,.12-.01Z"/><path class="cls-24" d="m7.84,40.48c-.35-.94-.69-1.89-1.06-2.82-.1-.26-.3-.49-.45-.73-.04-.08-.11-.22-.08-.24.62-.55.5-1.32.53-1.99.03-.58.25-.98.58-1.38.04,1.06.07,2.12.11,3.18,0,.18.05.36.08.54.22,1,.46,2.01.66,3.02.02.13-.19.3-.29.45-.03,0-.06,0-.08-.01Z"/><path class="cls-24" d="m26.7,15.66c0-.78,0-1.55,0-2.33,3.4.18,6.88.43,9.55,2.75,2,1.74,4.62,3.03,5.56,5.77.91,2.63,1.85,5.29,1.4,8.17-.02.15-.25.27-.38.4-.04.02-.08,0-.12-.03-.04-.09-.04-.17.03-.24-.23-.04-.46-.1-.7-.11-.35-.02-.71,0-1.06,0-.44-1.83-.61-3.77-1.38-5.45-.91-1.99-1.59-4.27-3.58-5.55-1.18-.76-2.52-1.29-3.84-1.81-1.4-.55-2.86-.97-4.3-1.41-.38-.12-.79-.1-1.19-.15Z"/><path class="cls-24" d="m42.74,30.14c0,.09.01.17.02.26-.57.12-.7.61-.9,1.04.5,2.98-1.24,3.68-1.26,5.65,0,.19.13.22.26.27.11.02.2.06.26.16.07.2-.02.35-.19.42-1.04.4-2.08.68-3.19.26q.08-.27.96-.43c.24-.1.52-.08.73-.27.23-.19.17-.46.17-.7,0-1.24.02-2.49,0-3.73-.02-.84.19-1.67.05-2.51-.02-.13.02-.25.11-.35.04-.03.08-.05.12-.08.96,0,1.92,0,2.88,0Z"/><path class="cls-24" d="m21.84,32.84c.41-.75.82-1.5,1.23-2.25.37-.02.74-.04,1.11-.06.03.21-.14.29-.26.41-.43.4-.85.81-1.24,1.26-.57.66-.51,1.39-.26,2.11.3.85.88,1.55,1.65,1.96.77.41,1.63.62,2.55.34.79-.23,1.47-.56,1.94-1.25.53-.78.61-1.66.08-2.71-1.71.14-.41-1.44-.95-1.76-.13-.08-.27-.17-.23-.36.39-.01.79-.02,1.18-.03.1,0,.19.01.27.08.69.66,1.01,1.5,1.17,2.41.07.64-.04,1.25-.27,1.84-.32,1.02-.99,1.74-1.92,2.24-1.55.67-3.07.78-4.51-.3-1.24-1.03-1.83-2.3-1.53-3.93Z"/><path class="cls-24" d="m27.45,30.53c.59.75,1.17,1.5,1.76,2.25.35,1.85-.68,3.33-2.48,3.92-2.3.75-4.84-1.48-4.61-3.57.12-1.12,1.09-1.61,1.75-2.33.09-.1.21-.18.31-.27,1.09,0,2.18,0,3.27,0Z"/><path class="cls-24" d="m39.75,30.22c0,2.38.02,4.75,0,7.13,0,.12-.23.23-.36.35-.29.08-.3-.15-.33-.32-.04-.26-.02-.53-.02-.79-.03-1.41.05-2.83-.07-4.24-.06-.71-.25-1.34-.88-1.76-.07-.04-.1-.12-.12-.19.06-.24.29-.04.4-.16.46,0,.92,0,1.38-.01Z"/><path class="cls-24" d="m38.37,30.23c-.13.03-.26.05-.38.08-.26.25-.59.15-.89.17-.26.01-.53.02-.79,0-2.5.03-4.99.15-7.49.12-.06-.03-.12-.07-.18-.1.21-.09.41-.26.62-.26,3.04-.01,6.08,0,9.12,0Z"/><path class="cls-24" d="m48.35,32.65c.22.43.45.86.66,1.29.06.12.06.26.09.39-.42-.01-.58-.39-.84-.62-.55-.53-1.2-.31-1.91-.4-.93.17-1.15-.62-1.55-1.15-.17-.22-.24-.49.08-.67.06.01-.02-.09,0-.03.01.03,0,.04-.04.02-.31-.11-.54-.27-.38-.66.15-.08.3-.07.45-.04.47.19,1.04-.14,1.46.29.46.25.93.5,1.39.75.19.28.38.56.57.84Z"/><path class="cls-24" d="m41.07,37.5c-.09,0-.18,0-.27,0-.38-.3-.13-.7-.14-1.04-.05-1.84.61-3.45,1.66-4.92.12-.16.22-.4.51-.29v5.45c.05,0,.1,0,.16,0,.84-1.19.17-2.6.5-3.87.15.12.17.29.17.46,0,1.03.04,2.07-.02,3.1-.19.52-.03,1.08-.2,1.6-.3.91-.7,1.76-1.42,2.41-.05.04-.09.08-.09.16.19.15.51-.03.66.23-.42.38-1,.21-1.47.44-.21.05-.42.1-.63.13-.18.02-.37-.03-.56.04-.06.17.12.27.13.42.01.13,0,.22-.16.21-1.45-.93-2.98-.17-4.47-.18-.47,0-.93.23-1.42.18-.11-.46.27-.48.53-.55,1.49-.43,3.04-.35,4.56-.52-1.29-.03-2.51-.35-3.7-.84-.65-.26-1.24.11-1.84.29-.2.06-.39.22-.62.09-.12.03-.25.06-.37.09,0-.02-.02-.04-.02-.07.22-.14.44-.28.66-.42.24-.28.58-.34.91-.43,1.29-.36,2.61-.56,3.91-.84,1.27-.27,2.58-.39,3.79-.92.12-.05.27-.08.36-.23-.36-.14-.79.09-1.12-.19Z"/><path class="cls-24" d="m43.48,36.57c0-1.25,0-2.49,0-3.74,0-.62.05-1.24-.01-1.86-.07-.7.17-.85.77-.57.04.03.07.07.09.11.09,1.31.03,2.61,0,3.92,0-.15,0-.31,0-.46,0-.14-.01-.29.03-.43.35-.25.62.1.94.11.06,0,.08.1.06.15-.53,1.11.09,2.03.52,2.97,0,.05-.03.09-.06.13-.44.66-.85,1.34-1.06,2.1-.16.6-.21,1.22-.8,1.59-.26.12-.52.16-.8.07-.28-.17-.16-.41-.08-.62.32-.75.62-1.51.71-2.36-.59-.21-.29-.7-.31-1.11Z"/><path class="cls-24" d="m42.83,31.24c-.65,1.37-1.37,2.7-1.91,4.11-.24.64-.09,1.42-.12,2.14-.12-.11-.37-.26-.35-.34.44-1.97.89-3.94,1.37-5.9.11-.46.18-1.06.94-.85.02,0,.05,0,.07.01,0,.27,0,.55,0,.82Z"/><path class="cls-24" d="m44.4,30.23c0,.22.02.44.03.66.18.2.36.4.52.57-.02.13-.16.46-.07.55.43.43.87.92,1.42,1.15.52.22,1.17.12,1.75.2.11.02.2.23.3.35-.04.02-.09.03-.14.03-.67,0-1.29-.3-1.96-.23-.65-.13-.98-.3-1.53-.79-.01,0-.03,0-.06-.02-.2.23.01.59-.23.8v.45c-.27-.04-.13-.24-.13-.36-.01-.88,0-1.75,0-2.63,0-.15.04-.31-.04-.45,0-.03,0-.06,0-.09.05-.06.11-.12.16-.18Z"/><path class="cls-24" d="m21.84,32.84c-.06.9.05,1.77.54,2.53.29.46.7.84,1.05,1.26.06.13.13.24.23.35.28.3.41.65.34,1.06-.06.34-.04.65.39.77.14.04.27.14.06.28-.24.1-.49.09-.73.07-1.42-.1-2.84-.14-4.25-.27-.19-.02-.37-.04-.52-.17-1.9-.25-3.79-.5-5.69-.75-.22-.09-.44-.17-.66-.26.03-1.61-.03-3.23.16-4.83.05-.43.78-.99,1.29-1.12,1.82-.45,3.62-.12,5.33.61.74.31,1.38.83,2.07,1.26.06.04.12.07.19.11.04-.08.09-.15.11-.23.04-.22.07-.45.1-.67Z"/><path class="cls-24" d="m32.96,40.5c1.75-1.23,3.4-.02,5.1.2.34.04.68.03,1.02.07.16.02.31.12.46.18-.16.07-.32.2-.49.22-1.49.15-2.98.28-4.46.45-.21.02-.4.24-.6.36.09.19.05.4.04.6-.07.61.27.87.82.94,1.64.22,3.27-.03,4.91.02.45.01.74.16.86.61.03.23.02.44-.19.6-.6.24-1.25.23-1.88.25-1,.04-2,.13-3.01.05-.58-.05-.56,1.02-1.54-.53-.13-.11-.24-.22-.18-.33.05.65-.01,1.37,0,2.09,0,.28,0,.51-.16.74-.02.04-.05.08-.07.12-.05.05-.1.1-.17.12-.27.04-.35-.15-.4-.35-.06-.25-.2-.42-.46-.47-.75-.15-1.32-.53-1.65-1.27-.12.61-.19,1.2,0,1.8.06.18.21.36.06.57-.21.09-.37-.01-.5-.15-.3-.32-.56-.66-.62-1.11.18-.74.52-1.43.78-2.14.04-.12.13-.21.26-.25.25-.05.49.05.73.08.37.05.73.07,1.09-.11.45-.24.49-.21.74.27.07-.61-.19-1.1.07-1.67-.49-.04.14-.42.02-.54-.14-.2-.17-.43-.22-.65-.02-.09-.01-.18,0-.28-.12-.15-.25-.3-.37-.45Z"/><path class="cls-24" d="m18.95,38.72c1.32.07,2.65.15,3.97.22.54.03,1.08.03,1.62.04.11-.13.27-.15.43-.15,2.96.04,5.91-.12,8.86-.38,1.1,0,2.18-.21,3.27-.34.21-.02.42-.12.63.03.66,0,1.31.03,1.96-.02.39-.03.78-.17,1.15-.31.11-.04.16-.22.24-.33.51,0,1.01,0,1.52,0,0,.04.02.08.03.12-.4.36-.89.58-1.4.69-1.87.41-3.76.75-5.63,1.15-.8.17-1.58.43-2.36.64-2.11.89-4.03-.36-6.05-.52-1.36-.11-2.75.17-4.11.07-1.33-.09-2.64-.44-3.95-.69-.07-.01-.11-.17-.17-.25Z"/><path class="cls-24" d="m12.6,41.4c1.62.16,3.24.32,4.85.49.16.02.3.13.45.19,0,.21,0,.43,0,.64-.07.23-.04.45,0,.68.1.46-.05.66-.52.75-.11.02-.22.03-.32.03-1.88-.11-3.75-.13-5.63-.22-.03,0-.06-.02-.09-.03-.41-.76.1-1.33.39-1.94.27-.21.35-.7.85-.59Z"/><path class="cls-24" d="m11.86,41.99c-.18.61-.36,1.23-.54,1.84.15.2.19.43.21.67.04.14.08.27.13.4.1.26.25.41.56.33.5-.12.99.04,1.48.04.96,0,1.93,0,2.89,0,.14,0,.28,0,.42-.03.56-.11.73-.31.77-.88,0-.12,0-.25.05-.37.11-.23-.03-.49.1-.71.03,0,.06,0,.08,0,.24.24.08.59.22.86,0,.94.23,1.87.1,2.82-.02.02-.03.05-.05.07-.23-.03-.45-.09-.68-.09-1.72-.01-3.43,0-5.15-.02-.41,0-.83-.07-1.24-.1-.03-.23-.05-.46-.04-.34.02-.7.04-1.06.03-1.41-.02-.57-.07-1.13-.1-1.7.22-.5.43-1,.65-1.5.1-.02.13.02.12.12Z"/><path class="cls-24" d="m18.11,44.13c-.03-.28-.07-.56-.1-.84.03-.49,0-1.01.12-1.48.13-.48.08-1.06,1.09-.74,1.24.4,2.64.28,3.83.38.12-.31.16-.57.22-.57,1.49-.02,2.98,0,4.48,0,.04,0,.08.07.29.26-.86.05-1.56.09-2.26.13,0,.11.02.23.03.34,2.51-.23,5.01-.45,7.52-.68.03.07.05.13.08.2-.28.32-.63.48-1.06.52-2.81.24-5.62.34-8.43.29-1.49-.03-2.97-.27-4.47-.31-.12,0-.25-.04-.36-.09-.38-.18-.54-.08-.54.35,0,.57-.03,1.15-.08,1.72-.02.19-.09.54.34.4.05-.02.1-.02.15,0,.11.15.07.3,0,.44-.11.2-.21.47-.48.44-.28-.03-.26-.3-.29-.51-.01-.09-.02-.18-.08-.27Z"/><path class="cls-24" d="m17.93,43.29c0,.25,0,.49-.01.74-.05.27-.14.52-.46.55-2.02.18-4.04-.03-6.05-.09-.03-.22-.05-.44-.08-.66,1.86.07,3.74.05,5.59.22,1.25.12.79-.81,1.01-1.34,0,.19,0,.38.01.57Z"/><path class="cls-24" d="m11.86,41.99s-.08-.08-.12-.12c.12-.15.25-.31.37-.46.28-.14.56-.28.84-.42.03.05.05.1.08.14-.14.09-.28.18-.42.26-.25.2-.49.39-.74.59Z"/><path class="cls-24" d="m19.8,47.85c-.26-.09-.53-.17-.77-.28-.26-.13-.5-.3-.74-.45,0-.03,0-.06,0-.08,0,0,.01-.01.01-.01.15-.29.2-.61.24-.94.13-1.24.81-1.82,2.05-1.79.14,0,.31.01.38.14.45.81.61,1.66.32,2.55-.23.71-.82.88-1.49.87Z"/><path class="cls-24" d="m11.01,43.66c-.01.59-.07.68-.64.65-1.14-.07-2.28-.17-3.41-.29-.43-.04-.59-.43-.43-.92.23.46.72.39,1.09.44.94.12,1.9.16,2.85.21.18,0,.36-.06.54-.09Z"/><path class="cls-24" d="m5.41,38.99c.03-.77.06-1.54.09-2.32.24-.02.36.04.35.33-.01.46,0,.92.06,1.37.08.57.07.61-.51.61Z"/><path class="cls-24" d="m33.89,38.61c-3.12.12-6.23.25-9.35.37-.73-.06-.75-.47-.68-1.1.04-.4-.27-.83-.42-1.25,1.42,1.1,2.93.93,4.47.31.94-.21,1.63-.77,2.12-1.57.27-.43.53-.87.77-1.33.47-.9,1.23-1.52,2.05-2.06,1.07-.71,2.17-1.39,3.45-1.66.56,0,1.12,0,1.68-.01,1.32.74,1.17,2.04,1.21,3.25.04,1.22,0,2.45.02,3.67,0,.15.12.31.18.46-.22.06-.44.12-.66.18-.3-.05-.24-.3-.23-.48.02-1.38-.05-2.76-.1-4.14-.02-.6-.5-.8-.66-1.51-.8.53-1.5.29-2,.94.02,1.82-.63,2.62-.87,3.94-.1.55-.35,1.09-.26,1.71.06.41-.49.11-.71.26Z"/><path class="cls-24" d="m33.89,38.61c1.12-.24.56-1.24.77-1.85.48-1.39.53-2.95,1.1-4.28.22-.52,1.38-.7,2.14-.85.11-.02.57.99.62,1.54.14,1.57.15,3.14.21,4.72-.34.09-.68.19-1.02.28-1.28.15-2.55.3-3.83.45Z"/><path class="cls-24" d="m36.3,30.32c-.91.47-1.82.96-2.74,1.4-1.57.75-2.57,2.03-3.32,3.54-.44.89-1.2,1.39-2.07,1.77-.06.03-.18-.06-.27-.1.58-.69,1.16-1.38,1.74-2.07.36-.6.46-1.25.28-1.93-.14-.89-.54-1.66-1.11-2.35.19-.06.37-.16.56-.17.56-.03,1.12-.01,1.68-.02,1.75-.03,3.5-.06,5.25-.08Z"/><path class="cls-24" d="m29.92,32.94c.27.5.11,1.61-.28,1.93.09-.64.19-1.29.28-1.93Z"/><path class="cls-24" d="m25.83,36.54c-1.57.13-3.16-1.12-3.24-2.71-.03-.65.3-1.35.59-1.97.2-.43.76-.48,1.2-.5,1.3-.07,2.56.15,3.76.66.45.19.61.6.72,1.03.2.77-.09,2.18-.79,2.69-.93.69-.93.69-2.24.8Z"/><path class="cls-24" d="m49.28,34.8c-.06,2.05-.13,4.11-.19,6.16-.25.11-.29-.11-.35-.25-.34-.93-.99-1.47-1.98-1.57-.26-.03-.48-.14-.52-.39-.12-.68-.19-1.37.05-2.05.13-.14.3-.15.47-.15.78,0,1.51.17,2.06.78-.13-.11-.25-.23-.34-.38-.47-1.02-.18-2.12-.37-3.18-.01-.06.06-.1.13-.08.03,0,.07.01.1.02.25.21.5.42.75.63.06.16.12.31.18.47Z"/><path class="cls-24" d="m40.04,41.98c-.39-.51-.46-.86.38-.74-.16.41-.08.56.4.58.82.03,1.64-.03,2.46-.13.65-.08,1.31-.12,1.83.4.36.45.51.94.27,1.5-1.26.12-2.52.28-3.78.31-.5.01-.77-.26-.85-.74-.03-.2-.02-.41-.27-.49-.24-.08-.31-.32-.47-.48-.03-.08-.02-.15.03-.21Z"/><path class="cls-24" d="m40.04,41.98c0,.07,0,.13,0,.2.11.06.17.14.1.27-.13.14-.3.15-.47.15-1,.04-2.01.14-3.01.1-.73-.03-1.45.08-2.18.08-.23,0-.47.02-.6-.24.03-.18.06-.37.09-.55,1.16-.3,2.33-.44,3.53-.47.43-.01.87-.13,1.29-.07.36.05.7.28,1.05.43.07.03.13.07.2.11Z"/><path class="cls-24" d="m45.01,42.17c-.87-.08-1.75-.18-2.62-.23-.64-.04-1.28,0-1.92-.04-.17-.01-.32-.24-.48-.38.14-.09.29-.19.43-.28.22-.03.43-.07.65-.1.56-.1,1.11-.22,1.67-.3.94-.14,1.64.27,2.22.96.08.12.14.23.06.37Z"/><path class="cls-24" d="m43.48,36.57c.11.35.21.69.32,1.04.09-.03.19-.07.28-.1-.32,1.03-.64,2.05-.96,3.08-.04.27-.27.19-.43.24-.05,0-.09-.02-.13-.05h-1.19c1.48-1.16,2.05-2.57,2.12-4.21Z"/><path class="cls-24" d="m42.56,40.78s.06,0,.09,0c1.1-.22,2.41.01,2.92-1.42.05-.15.21-.27.42-.2.19.24-.03.4-.13.58-.22.39-.2.44.23.59.26.09.56.12.62.48,0,.05-.03.09-.07.12-.83-.02-.82.38-1.55.3.32.19-.06.15.13.64-.07.33-.22.05-.34.05-.9-1.07-2.03-1.12-3.27-.77-.17.05-.37.02-.55.02.5-.12,1-.24,1.5-.36Z"/><path class="cls-24" d="m46.02,39.19c-.46.1-.53.53-.67.86-.12.3-.25.42-.59.46-.56.06-1.11.23-1.67.33-.14.02-.3-.04-.45-.07.16-.06.31-.12.47-.18.28-.03.56-.07.84-.1,1.12-.54,1.76-1.41,1.83-2.67.02-.32-.05-.65.04-.97h0c.14-.22.3-.4.58-.17-.03.66-.07,1.31-.06,1.97,0,.12.23.31.36.33,1.13.11,1.82.72,2.19,1.76.03.09.13.15.19.23-.24,1.87-1.97,4.81-4.56,4.56.7-.71,1.04-1.9,1.02-2.89.34.25.65.7,1.11.59,1.02-.23.68-.56-.01-1.52-.17-.23,0-.47.02-.82,0-.04,0-.07,0-.11.52.05.53.06,1.35,1.62.38-.48.34-1.08.58-1.59-.36-.91-1.1-1.3-2-1.47-.19-.04-.41.02-.58-.13Z"/><path class="cls-24" d="m46.4,36.67c-.19.06-.38.12-.57.17-.78-.9-1.06-2.46-.56-3.05-.27-.1-.55-.2-.83-.3,0-.06-.01-.13,0-.19.05-.29.11-.59.16-.88.22.22.41.5.67.65.28.17.63.22.95.32.15.74.23,1.49.24,2.25.01.59.08.67.67.68.59.01,1.14.09,1.51.63.19.23.38.47.56.7,0-.09.02-.18.02-.27-.94-.24-1.87-.47-2.81-.71Z"/><path class="cls-24" d="m45.82,36.85c.55,1.37-.56,3.54-1.87,3.64.22-.52.44-1.05.65-1.57.08-.2.12-.41.18-.61.06-.21.08-.45.2-.61.24-.31.55-.57.82-.85Z"/><path class="cls-24" d="m44.25,30.5c.03.15.08.29.08.44.01.85,0,1.71.02,2.56,0,.15.05.29.08.44,0,.38,0,.76,0,1.14-.06,0-.12,0-.17,0v-4.58Z"/><path class="cls-24" d="m48.62,36.96c-.56-.43-1.2-.55-1.88-.49-.36.03-.42-.2-.44-.46-.04-.54-.06-1.08-.11-1.62-.02-.25-.1-.5-.12-.76,0-.07.08-.15.13-.23.68.09,1.36.19,2.05.28.12,1.09.25,2.19.37,3.28Z"/><path class="cls-24" d="m30.89,43.93c-.31.78-.62,1.56-.93,2.34-.1.69-.24.83-.92.91-.93-.05-1.85-.1-2.78-.13-.74-.03-1.48.04-2.22.08-.48.02-.96.06-1.43.08-1.01-.27-.9-1.28-1.23-1.96-.22-.46-.83-.92-.39-1.58.7-.23,1.41-.22,2.09.05.49.19.97.41,1.45.62,1.07.48,2.11.39,3.16-.03.48-.19.94-.4,1.41-.6.46-.2.94-.22,1.42-.15.19.03.46.05.36.39Z"/><path class="cls-24" d="m30.89,43.93c-.61-.02-1.3-.22-1.82-.01-1.6.63-3.12,1.34-4.87.44-.76-.39-1.56-.87-2.51-.7-.23.04-.46.06-.69.09-.31-.11-.62-.15-.94-.14-.32,0-.6.07-.83.31-.07.07-.15.16-.27.12h0c-.42-.81-.02-1.56.87-1.55,1.27.02,2.55-.04,3.82-.07,2.83-.07,5.66,0,8.49-.04.24,0,.47-.03.69-.12.45-.17.65-.02.61.46,0,.08,0,.15,0,.17.06-.33-.08-.75.19-1.1,0,.4,0,.79,0,1.19,0,.52,0,1.05-.11,1.65-.13-.81-.39-.88-1.07-.56-.4.19-1.02-.08-1.53-.14Z"/><path class="cls-24" d="m33.61,41.79c-.05.63-.09,1.26-.14,1.89h-.14c0-.29-.01-.59-.01-.9,0-.54,0-.52-.51-.35-.21.07-.45.1-.68.1-2.49,0-4.97,0-7.46,0-1.66.01-3.32.06-4.99.09-.51.01-.69.18-.73.7-.02.23,0,.47,0,.7-.14.13-.29.27-.43.4-.07-.21-.21-.42-.21-.63,0-.57.06-1.14.09-1.71.01-.23,0-.46.05-.68.02-.08.22-.21.25-.19.74.49,1.6.32,2.4.36,2.37.12,4.74.18,7.11.19,1.16,0,2.32-.13,3.47-.26.58-.06,1.15-.24,1.72-.37.07.21.13.43.2.64Z"/><path class="cls-24" d="m40.6,46.83c-.42.03-.83.09-1.25.09-1.53.01-3.07,0-4.6.01-.41,0-.83.05-1.24.08.06-.71.13-1.41.18-2.12.03-.32.04-.64.14-.96.05.16.1.31.15.47.74,1.23,1.94,1.08,3.11,1.07.5,0,.99-.03,1.49,0,.74.05,1.49.1,1.83-.79.03-.19.07-.38.1-.57-.06-.12-.07-.25-.01-.38.07-.05.15-.05.22-.01.08.08.1.18.11.28,0,.27-.09.52-.11.79-.13.36-.32.71-.15,1.12.08.21-.15.32-.23.47.05.18.36.19.27.44Z"/><path class="cls-24" d="m40.52,43.76c0,.12,0,.24-.01.36-.49-.15-.99-.4-1.49-.42-1.39-.06-2.78-.01-4.17-.04-.71-.01-1.1-.36-.96-1.13.47.01.94.03,1.41.03.54,0,1.08-.01,1.63-.03.97-.03,1.95-.06,2.92-.1.1,0,.2-.06.3-.09.35.41.64.83.37,1.41Z"/><path class="cls-24" d="m40.41,44.69c-.15.69-.4,1.05-1.27.94-1.25-.15-2.54.03-3.79-.15-.5-.07-.91-.7-1.37-1.08.15.07.3.16.45.22.22.09.46.24.68.23,1.64-.04,3.28-.11,4.92-.17.12,0,.25,0,.37,0Z"/><path class="cls-24" d="m29.12,47.03c.58.08.6-.46.84-.76.2.34.38.69.61,1,.08.11.28.14.42.21.41-.03.84-.24,1.19.17-.71.72-1.42,1.44-2.13,2.17-.03.08-.07.13-.17.1-.32-.59-.35-1.26-.43-1.91-.04-.36-.21-.66-.33-.98Z"/><path class="cls-24" d="m32.17,47.65c-.24-.02-.48-.03-.71-.07-.16-.02-.32-.07-.47-.1-.46-.86-.39-1.75-.18-2.76.32.46.5.91.82,1.16.34.26.83.31,1.23.51.13.07.18.3.27.45.08.13.18.24.28.36-.12.27-.33.36-.62.37-.21,0-.42.05-.62.07Z"/><path class="cls-24" d="m18.95,44.03c.53-.66,1.58-.81,2.05-.29.06.27.08.55.18.8.27.68.55,1.36.86,2.02.1.21.3.36.46.54,0,.98-.12,1.93-.55,2.82-.17.03-.24-.06-.28-.21-.62-.63-1.24-1.25-1.87-1.88,1.43-.28,1.7-1.23,1.38-2.47-.09-.34-.32-.65-.49-.97-.56.23-1.34-.06-1.68.66-.18.38-.24.82-.34,1.24-.06.28.01.61-.37.71-.06-.96-.12-1.93-.18-2.89.14.23.28.46.42.7.14-.26.28-.53.42-.79Z"/><path class="cls-24" d="m11.4,44.49c.96-.01,1.91-.04,2.87-.04,1.01,0,2.01.03,3.02.02.28,0,.53-.13.63-.44.18,1.11-.43,1.43-1.4,1.4-1.36-.04-2.73-.07-4.09-.09-.23,0-.6.16-.66.07-.19-.26-.25-.61-.37-.93Z"/><path class="cls-24" d="m24.2,32.46c.88.32,2.14.69,3.32,1.25.7.33.18,1.75-.85,2.2-1.92.84-3.84-.48-3.89-2.4-.02-.82.22-1.05,1.42-1.05Z"/><path class="cls-24" d="m40.6,46.83c-.21-.14-.41-.29-.46-.32.17-.6.31-1.12.46-1.64.13-.26.22-.57.56-.66,1.1-.06,2.2-.15,3.3-.17.43,0,.71-.12.89-.49-.11-.46-.23-.92-.34-1.39-.04-.09-.08-.18-.12-.28.1.03.2.05.29.08.35.22.47.52.37.94.04,1.02.02,2.02-1.03,2.61-.69.15-1.41.21-2.05.47-.63.25-1.12.84-1.88.85Z"/><path class="cls-24" d="m45.35,43.55c-.07.68-.07.64-.69.61-.52-.02-1.04.06-1.57.08-.67.03-1.35.05-2.02.07-.19-.01-.26-.17-.37-.29,0-.09,0-.18,0-.27-.17-.38-.25-.79-.28-1.21.32-.05.35.18.49.4.2.32.57.76.87.77.95.02,1.9-.14,2.85-.22.24-.02.49.04.73.06Z"/><path class="cls-24" d="m40.41,42.55c.09.4.19.81.28,1.21-.06,0-.12,0-.18,0-.12-.47-.25-.94-.37-1.41-.03-.06-.07-.12-.1-.18.12.13.24.25.37.38Z"/><path class="cls-24" d="m45.56,42.91c-.12-.31-.25-.62-.37-.94-.29-.47-.58-.94-.87-1.4-.11.1-.23.2-.34.3.89,0,1.79,0,2.68,0,.16.17.38.31.46.51.21.52.37,1.07.55,1.61-.53.41-1.19.34-1.8.44-.07.01-.21-.34-.31-.53Z"/><path class="cls-24" d="m46.02,39.19c1.11-.07,2.06.3,2.55,1.3.19.39,0,1-.11,1.49-.06.27-.33.49-.39.57-.48-.61-.95-1.2-1.41-1.79-.07-.06-.13-.17-.2-.18-1.18-.14-.98-.71-.45-1.39Z"/><path class="cls-24" d="m29.94,49.89c-.18.03-.37.11-.54.09-.26-.02-.52-.15-.77-.16-1.89-.02-3.78-.01-5.67,0-.17,0-.33.12-.5.13-.19.01-.39-.04-.58-.06.09-.31.19-.62.26-.94.13-.61.25-1.23.37-1.85.58-.06,1.16-.16,1.74-.17,1.18-.03,2.36-.01,3.53,0,.45,0,.9.06,1.35.09.25.09.36.25.4.53.11.78.27,1.55.42,2.33Z"/><path class="cls-24" d="m40.7,44.03c.12.1.24.19.37.29-.16.19-.31.37-.47.56.03-.28.07-.56.1-.85Z"/><path class="cls-18" d="m8.12,18.85c.4-.67.72-1.41,1.23-1.99.8-.92,1.72-1.73,2.59-2.59.28.15.13.34.03.51-.31.5.24,1.56-.09,2.05-.39.59-1.64.6-1.8,1.29-.2.91.3,1.73,1.22,1.86.82.11,1.6.4,2.41.54.32.06.59.26.91.36.74.23,1.42.62,2.14.91.73.29,1.24.87,1.73,1.45.47.57.98,1.08,1.63,1.45.44.25.77.61,1.03,1.06.3.52.8.26,1.22.77.24-.77.88-.97.91-1.71.02-.52.32-.97.37-1.49.01-.1.1-.15.19-.18.77.02.91-.4.94-1.09.08-1.85-.29-3.68-.21-5.53.01-.25-.03-.5.08-.74.32-.26.44.07.5.23.33.77.93,1.42,1.1,2.25.27,1.31,1.21,1.61,2.34,1.78,1.43.22,2.85.07,4.26-.08,2.02-.22,2.91,1.04,2.54,3.38-.26,1.6-.37,3.24-.18,4.87-.13.15-.31.12-.48.13-.9,0-1.8,0-2.7,0-.53,0-.66-.17-.49-.66.18-.51.38-1.01.69-1.47.46-.71.64-1.51.45-2.36-.13-.57-.48-.73-.99-.44-.96.54-1.03,1.8-1.99,2.35.29.89-.59.72-.76.91-.63.68-1.88.38-2.58.99-.45.39-.98.59-1.57.61-1.97.07-3.94.11-5.92.08-.17,0-.35.01-.52-.05-.42-.26-.79-.6-1.19-.89-.42-.31-.88-.52-1.37-.67-.66-.2-1.22.16-1.36.82-.05.24-.04.5-.23.69-.47.17-.95.09-1.43.06-.3-.02-.39-.28-.4-.55-.02-.54.1-1.05.28-1.55.16-.45.34-.9.57-1.33.24-.46.26-.96.23-1.45-.03-.43-.23-.78-.65-1.05-.66-.44-1.36-.8-2.06-1.17-1.15-.6-1.8-1.53-1.7-2.88,0-.05,0-.09-.05-.16-.2.03-.26.22-.36.36-.13.16-.23.39-.5.34Z"/><path class="cls-28" d="m8.12,18.85c.33-.34.65-.67.98-1.01.31.42-.1.87.09,1.32.37.88.85,1.6,1.77,2.01,1.88.85,2.27,1.2,2.5,1.78.45,1.12-.2,2.02-.56,2.98-.15.39-.24.8-.34,1.2-.22.91-.12,1.05.78,1.05.28,0,.56,0,.84,0,1.37-.27,2.73-.27,4.1,0h.57c.02.08,0,.13-.06.16-.21.1-.43.07-.64.07-2.14,0-4.29,0-6.43,0-.21.04-.41.01-.62-.02-.46-.15-.93-.05-1.39-.05-.59,0-1.18,0-1.77,0-.54,0-.59.05-.59.59,0,1.62,0,3.23,0,4.85,0,.36.02.72,0,1.07-.03.5.17.84.63,1.02.17.1.34.19.43.38.15.3.13.63.15.96.03.87.25,1.07,1.1,1.18.85.11,1.67.09,2.48-.18.3-.1.56-.26.79-.47.43-.39,1.14-.34,1.47.06-.68.87-1.65,1.12-2.66,1.24-.58.07-1.18.05-1.76,0-1.61-.12-2.06-.58-2.19-2.18-.01-.17,0-.39-.13-.48-1.07-.68-.75-1.78-.78-2.74-.03-1.13.01-2.26-.53-3.3-.08-.42-.04-.84-.05-1.25-.02-.52-.02-.53-.56-.56-.05-.01-.09-.04-.13-.07.28-3.35,1.02-6.58,2.52-9.61Z"/><path class="cls-40" d="m18,11.56c1.75-.21,3.49-.43,5.24-.64.06.28.35.55.07.86-1.17-.19-2.38.57-3.52.75-1.55.24-3.03.06-4.43.81-1.02.55-1.93,1.24-2.64,2.17-.25.32-.44.68-.56,1.07-.09.3.03.45.34.43.19,0,.36-.07.54-.13,1.25-.42,2.43-1.03,3.65-1.52.36-.15.74-.23,1.1-.36,1.01-.36,1.99-.77,3.02-1.08.53-.16,1.06-.33,1.59-.48.42-.11.73-.33.7-.84,0-.15-.02-.36.23-.38.33,1.58.02,3.02-.8,4.43-1.69,2.88-4.21,3.96-7.75,3.17-.99-.22-2-.23-3-.34-1.29-.15-1.86-.99-1.33-2.2,1.17-2.69,3.31-4.31,6.06-5.18.5-.16,1.03-.22,1.48-.52Z"/><path class="cls-44" d="m23.32,11.76c-.03-.28-.06-.56-.09-.84.03-.03.06-.06.09-.1.06-.03.1-.02.14.03.16.29.1.61.11.91.03,2.22.16,4.46-.03,6.65-.11,1.25-.28,2.52-.33,3.79.04-.9-.05-1.8.19-2.7.37,1.22.2,2.48.29,3.72-.2.87-.3,1.79-.63,2.6-.45,1.09-.9,1.14-1.85.26-1.19-1.11-2.24-2.38-3.49-3.42-.83-.69-1.87-1.18-2.88-1.57-1.14-.43-2.35-.68-3.54-.96-1.01-.24-1.71-1.16-1.31-2.11.49-1.16,1.23-2.22,1.84-3.34.07-.13.07-.29.1-.44,1.78-1.44,3.85-2.22,6.06-2.71-.11.1-.21.24-.34.29-1,.4-2.12.62-3,1.21-1.2.81-2.24,1.86-3.29,2.87-.35.34-.54.86-.76,1.32-.11.24-.15.54-.15.81-.02.83.45,1.2,1.23,1.25.47.03.95.04,1.42.1.66.08,1.32.18,1.96.31,2.09.43,3.97.22,5.7-1.22,2.01-1.68,2.73-3.77,2.55-6.28-.13-.15-.13-.3,0-.46Z"/><path class="cls-27" d="m23.7,23.24c-.06-.15-.18-.29-.18-.44-.02-.97-.01-1.95-.02-2.92,0-.09-.05-.17-.16-.57v3.67c-.07,0-.14,0-.21,0,0-.8-.04-1.6.01-2.39.05-.78.26-1.55.3-2.32.05-.82-.02-1.64-.02-2.46,0-.84,0-1.68,0-2.52,0-.82,0-1.65,0-2.47-.1-3.52-.06-7.04.01-10.56,0-.44.83-.16,1.28-.16.01.4.02.8.03,1.19.04.05.07.1.09.16.05.21.03.43.03.65,0,2.53,0,5.05,0,7.58,0,.53,0,1.05.02,1.58-.05.92-.02,1.85-.01,2.77.03.18.03.35,0,.53-.1.36.14.77-.14,1.11.06,2.11.09,4.21.2,6.32.05.96-.22,1.42-1.23,1.24Z"/><path class="cls-11" d="m.75,38.07c-.01-1.75-.04-3.51-.01-5.26,0-.36.25-.72.39-1.08.44-.09.33.23.35.45.07.86-.25,1.76.26,2.57.04.06.07.13.08.2-.52.69-.22,1.4-.07,2.11.06.31.22.37.5.2.37-.23.77-.4,1.23-.31.16.08.38.02.47.23-.1.22-.31.16-.48.18-.44.05-.84.18-1.21.44-.22.16-.31.34-.14.59.17.26.3.54.49.8.39-.18.58-.73,1.1-.58.04.06.04.09.03.12-.04.3-.8.46-.36.73.43.27,1.06.75,1.66.09.23-.25.49-.56,1.11-.45-.67.46-.89,1.12-1.31,1.64-.14.11-.23.27-.21.44.1,1.03-.65,1.06-1.53,1.19.72.25,1.13.73,1.75.85.21.04.63.03.46.49-.19.1-.37.04-.55-.03-.83-.18-1.61-.45-2.22-1.08-.97-1.37-1.96-2.73-1.77-4.55Z"/><path class="cls-10" d="m1.68,34.92c-.34-.28-.4-.66-.38-1.08.03-.61.04-1.23.04-1.84,0-.09-.14-.18-.22-.27.62-1.94,1.95-2.85,3.97-2.81.16,0,.32-.19.48-.29.25.23.33.43-.09.54-.11.03-.22.04-.23.18-.1,1.57-.86,2.29-2.16,1.94.04,0,.44-.14.71.23-.08.82-.21,1.64-.23,2.47,0,.37-.28.52-.6.6-.45.03-.83.33-1.29.31Z"/><path class="cls-47" d="m3.71,31.46c-.46-.03-.91-.06-1.32-.09.27-.21.65-.17,1.22-.19.38-.02.79-.31,1.08-.59.24-.24.33-.63.49-.96-.1-.05-.19-.11-.29-.16.2-.17.4-.34.73-.62.02.08-.01-.06-.05-.2,0-.06.02-.12.02-.18.03,0,.06,0,.09,0,.55.21.57.7.6,1.16.08,1.65.05,3.3-.08,4.95-.02.3-.05.66-.53.55-.44-1.16-.27-2.38-.31-3.58-.02-.27.03-.55-.04-.96-.38.65-.75,1.15-1.5.93-.04,0-.08-.03-.12-.05Z"/><path class="cls-40" d="m24.72.1c-1.07-.22-1.35.17-1.32,1.27.09,3.15.03,6.3.03,9.45-.03,0-.06,0-.09,0,0-3.46-.02-6.93.04-10.39,0-.12.87-.22,1.34-.33Z"/><path class="cls-31" d="m24.74,15.68c0-.37,0-.75,0-1.12.31.4.71.7,1.06,1.05.4.41.95.05,1.26.55.07.12.49,0,.62.04,1.22.42,1.96,1.47,3.3,1.62.88.1,1.76.82,2.63,1.09,1.43.45,2.14,1.29,2.4,2.77.19,1.07,0,2.14.13,3.21.09.85.27,1.68.45,2.51.1.46.51.51.88.54.59.04,1.18.03,1.77,0,.41-.02.82-.03,1.23,0,.16.01.43-.05.41.27-.21.18-.47.1-.71.11-.72.05-1.44.04-2.17,0-.74-.03-1.49,0-2.23-.02-.2,0-.41.04-.56-.14-.36-.43-.47-.89-.16-1.4.04-.06.06-.15.06-.22,0-.52-.02-1.04.01-1.56.06-.89.15-1.78.22-2.67.05-.65-.09-1.27-.49-1.79-.13-.16-.43-.21-.66-.28-.87-.28-1.8-.21-2.64-.06-1.08.2-2.12.06-3.16-.07-.67-.08-1.43-.15-1.85-.85-.07-.12-.15-.23-.2-.35-.29-.66-.55-1.33-.86-1.98-.21-.44-.48-.85-.72-1.27Z"/><path class="cls-48" d="m35.19,28.18c.94,0,1.87.01,2.81.02,0,.11-.08.15-.16.19-.46.1-.92.06-1.38.04-2.98-.02-5.95,0-8.93,0-.21,0-.4.03-.57.17-.43.7-.99-.13-1.46.14-1.03,0-2.07.01-3.1,0-.38-.07-.76.04-1.14,0-.18-.06-.36-.12-.52-.2-.41-.2-.85-.06-1.27-.1-.21-.02-.44.06-.6-.15,0-.02,0-.05,0-.07,2.02-.03,4.05.08,6.04-.17.88-.11,1.69-.94,2.47-1.52,1.55-1.12,3.05-2.31,4.61-3.42.11-.08.64.18.72.38.41,1.03.16,2-.42,2.93-.29.47-.47,1-.67,1.52-.02.04.2.25.32.25,1.09.02,2.17,0,3.26,0Z"/><path class="cls-44" d="m18.29,28.18c-1.37,0-2.73,0-4.1,0,.12-1.9,1.22-1.97,2.5-1.25.58.33,1.07.83,1.61,1.25Z"/><path class="cls-50" d="m24.73,1.4c.03.34.06.69.09,1.03.22.21.16.49.16.75,0,2.27,0,4.53,0,6.8,0,.77,0,.76.76.85.29.03.6-.03.85.19.22.03.44.06.66.09,1.25.24,2.51.45,3.75.73.71.16,1.4.43,2.1.66.14.05.27.13.41.2,1.82,1.24,3.3,2.88,5,4.26.27.22.38.67.84.65.5.42.7,1.03,1,1.57,1.16,2.79,1.96,5.68,2.3,8.69.02.14.03.28-.02.41-.05.13-.14.23-.28.26-.58,0-.57,0-.58.58-.01.62.05,1.24-.05,1.85-.12.59-.03,1.18-.05,1.77-.01.37.03.75-.02,1.12-.05.4-.18.94-.59.93-.4,0-.26-.55-.26-.87,0-1.52-.04-3.04.02-4.56-.02-.28-.04-.55.04-.82.57-.66.51-1.47.46-2.25-.08-1.34-.48-2.63-.76-3.93-.23-1.07-.57-2.1-1.08-3.07-.54-1.02-1.26-1.89-2.23-2.52-.91-.59-1.64-1.37-2.41-2.12-.77-.75-1.69-1.27-2.66-1.69-1.96-.86-4.04-1.2-6.16-1.35-.39-.03-.77-.06-1.15-.15-.07-.04-.11-.1-.14-.17,0-3.3,0-6.6,0-9.9Z"/><path class="cls-31" d="m34.07,12.89c1.06.77,2.12,1.55,3.17,2.32.86.67,1.67,1.37,2.05,2.44-.13-.02-.29,0-.38-.07-1.75-1.5-3.48-3-5.22-4.51-.1-.08-.13-.25-.19-.37.19.07.37.13.56.2Z"/><path class="cls-58" d="m8.3,36.31l-.29-.28c.15-.16.34-.11.52-.09.34.05.67.1,1,.16.64.12,1.25,0,1.85-.22.25-.02.49.04.73.1,1.37.33,2.78.44,4.18.54.26.02.52.04.76.17,1.44.94,1.96.19,4.68.83,1.62-.27,3.2-.19,4.8.2,1.53.38,3.05.95,4.65.36.39.22.04.27-.08.37-.03.03-.1-.02-.1.06.05,0,.09,0,.13.03.14.16.5.22.27.55-.93.58-1.99.37-2.99.48-1.42.16-3.12.29-4.55.28-.14,0,0-.28-.12-.47.5-.47,1.14-.14,1.69-.3-1.23-.12-2.64.14-3.66.07-.59.82-2.59.14-3.86.26-.15.01-.33.03-.46-.04-1.02-.56-1.03.16-1.12.85-.05.36,0,.75-.18,1.09-.04.04-.09.05-.15.03-.15-.15-.1-.35-.12-.53-.03-.2,0-.4-.02-.6-.23-.71-.91-.41-1.37-.6-.45-.18-1.94.11-2.02-.42-.08-.52,1.43-.41,1.82-.64.79-.47,1.6-.88,2.3-.31-.06-.04-.34-.12-.62-.21-.3-.1-.61-.1-.91-.2-2.04-.51-4.15-.67-6.18-1.23-.23-.06-.45-.12-.61-.31Z"/><path class="cls-14" d="m11.39,36.02c-.54.24-1.1.36-1.69.27-.45-.07-.9-.17-1.36-.24-.11-.02-.21-.01-.32-.02-.64-.14-.83-.38-.83-1.01,0-2.1,0-4.19,0-6.29,0-.54,0-.55.55-.55.99,0,1.99,0,2.98.01.13,0,.27.05.4.07-.97.12-.79.85-.79,1.48,0,1.77-.02,3.54.1,5.3.01.21-.02.45.24.56.23.15.6.07.72.41Z"/><path class="cls-4" d="m10.73,35.77c-.38.04-.49-.12-.49-.5,0-2.12-.06-4.24-.04-6.36,0-.21.38-.43.61-.61.07-.06.21-.02.32-.02.17,0,.35.01.52.02,2.82.07,5.64.06,8.46.09.25,0,.5-.04.73.09.12.06.25.12.37.19-.3.61-.36,1.43-.96,1.78-.05.19-.14.38-.19.57-.14.28.13.74-.27.87-.35.11-.47-.33-.73-.49-2.17-1.32-4.49-1.92-7.02-1.38-.72.15-1.09.62-1.09,1.44,0,1.29-.09,2.57-.08,3.86,0,.17,0,.35-.15.47Z"/><path class="cls-47" d="m15.2,37.72c.77.17,1.52.38,2.51,1.04-.6-.2-.86-.24-1.09-.36-.58-.32-1.11-.35-1.7,0-.37.23-.82.35-1.23.52-.17.07-.33.13-.79.3,1.04.18,1.8.29,2.54.47.22.05.4.3.6.46-1.7-.31-3.42-.43-5.14-.54-.12-.04-.24-.09-.13-.28-.23.04-.38.31-.63.18-1.65-.36-3.36-.35-5.01-.74-.38-.09-.66-.23-.74-.65-.05-.27-.29-.48-.32-.77.28-.36.48-.08.64.12.24.29.48.56.78.78.15.11.31.2.51.2.05,0,.1.02.14.03.36.07.73.06,1.13.14-.46-.47-.69-1.04-.88-1.63-.14-.44-.15-.92-.5-1.28-.11-.11-.05-.25.1-.29.27-.08.3-.28.3-.51,0-1.39.02-2.79.02-4.18,0-.14,0-.28.13-.38.34.71.64,1.42.58,2.25-.05.75.04,1.52.07,2.27,0,.11.02.23-.02.32-.13.35.01.6.3.74.48.24.57.61.58,1.11,0,.39.08.85.3,1.15.23.3.66.59,1.02.61,1.07.06,2.16.08,3.22-.07.57-.08,1.09-.53,1.63-.81.08-.04.17-.08.25-.11.13-.13.29-.11.43-.05.14.05.27.08.39-.03Z"/><path class="cls-57" d="m15.2,37.72c-.11.04-.23.12-.34.13-.16.01-.32-.03-.48-.05-.51.09-1.03.16-1.54.28-.71.17-1.41.43-2.13.54-.44.07-1,.08-1.36-.13-.4-.23-.93-.49-.93-1.14,0-.33-.09-.69-.12-1.04,1.5.31,2.99.62,4.49.93.8.16,1.6.32,2.4.48Z"/><path class="cls-9" d="m6.44,30.33c0,1.55,0,3.1,0,4.66,0,.54,0,.55-.36.56.22.63.43,1.32.69,1.98.12.29.34.54.52.81.1.14.21.27.31.41-.2,0-.41.03-.61,0-.32-.04-.63-.12-.94-.19.38-.78-.25-1.41-.32-2.13-.04-.45-.36-.88-.05-1.34.16-.54.43-1.08.44-1.62.04-1.42-.02-2.85-.08-4.28-.01-.25-.24-.49-.36-.73.53-.23.82-.16.76.52-.04.45,0,.9,0,1.35Z"/><path class="cls-38" d="m20.83,28.46c-1.72-.03-3.44-.05-5.16-.07-1.18-.01-2.36-.01-3.54-.03-.17,0-.33-.05-.49-.07,2.4,0,4.8-.01,7.2-.02.66.07,1.32.13,1.98.2Z"/><path class="cls-22" d="m23.32,11.76c0,.15,0,.3,0,.46.08,1.81-1.57,1.42-2.48,1.83-1.95.89-4.01,1.54-6.03,2.29-.71.26-1.4.56-2.11.79-.2.07-.57.03-.67-.1-.1-.14-.03-.48.06-.69.79-1.77,2.26-2.94,4-3.46,2.18-.65,4.49-.9,6.75-1.3.15-.03.32.12.49.18Z"/><path class="cls-34" d="m39.11,28.09c-.88-.1-1.85.3-2.63-.41-.16-.89-.38-1.76-.47-2.66-.11-1.03-.03-2.09-.17-3.12-.27-1.99-1.2-2.76-3.25-3.16-1.63-.32-3.23-.84-4.84-1.28-.65-.55-1.33-1.07-1.95-1.66-.39-.37-.7-.83-1.05-1.25,0-.16,0-.31,0-.47.09-.12-.02-.29.09-.41,1.16-.13,2.24.23,3.3.64,2.25.88,4.58,1.61,6.58,3.02.56.4.91.99,1.29,1.56,1.77,2.68,2.48,5.72,3.14,8.79.03.14.06.28-.04.4Z"/><path class="cls-31" d="m24.83,13.72c-.03.12-.06.25-.09.37,0-.93,0-1.86,0-2.8.03.03.06.06.09.1.27.78.27,1.55,0,2.33Z"/><path class="cls-7" d="m4.1,37.24c.16.36.31.72.49,1.07.06.11.21.19.34.23,1.03.35,2.12.33,3.19.47.63.08,1.25.19,1.87.29.09.02.17.11.25.17-.02.24-.2.38-.31.57-.35.43-.5.94-.62,1.46-.05.12-.08.24-.19.33-1.46.28-2.89.02-4.3-.32-.13-.03-.23-.16-.24-.32.05-.17-.08-.4.17-.5.1-.15.21-.3.31-.45.25-.37.5-.74.8-1.18-.33.29-.62.56-.93.81-.11.09-.29.18-.41.16-.39-.08-.77-.22-1.15-.34-.44-.15-.48-.26-.17-.6.13-.14.31-.24.44-.39-.45.13-.77.43-1.01.85-.25-.42-.49-.83-.73-1.23-.12-.2-.08-.33.1-.47.57-.48,1.22-.64,1.94-.61.06-.04.12-.03.17.02Z"/><path class="cls-8" d="m4.75,40.69c-.03.16-.06.31-.09.47.03.47.2.7.6.78,1.02.19,2.06.19,3.09.29.41.04.64-.16.79-.51.03-.1.06-.19.09-.29.18.14.14.33.14.51,0,.55.05,1.08.27,1.59.11.26.08.49-.21.62.3.37.29.43-.08.73-.2-.03-.4-.03-.59-.09-1.15-.38-2.29-.76-3.43-1.15-.23-.11-.47-.22-.7-.33-.22-.11-.44-.24-.66-.36-.13-.07-.27-.13-.41-.2-.15-.07-.32-.13-.44-.23-.06-.05-.1-.2-.07-.28.02-.05.17-.06.26-.08.33-.07.68-.12,1-.23.09-.03.15-.24.18-.38.05-.26.07-.52.11-.78,0-.04.11-.06.17-.09Z"/><path class="cls-9" d="m4.1,37.24c-.06,0-.12-.01-.17-.02-.16-.06-.31-.11-.47-.17.03-.04.06-.07.1-.09.3-.04.4-.19.36-.51-.05-.44-.12-.88-.11-1.33,0-.21-.07-.28-.27-.26-.48,0-.96,0-1.43.17-.12.04-.24.07-.35-.03-.03-.02-.06-.05-.09-.07.4-.13.8-.26,1.2-.4.57,0,.85-.28.89-.86.04-.74.53-1.46.06-2.22.04-.02.09-.08.11-.07.58.22.84-.13,1.07-.58.08-.17.24-.3.37-.44.04,0,.08.02.12.03v.99c-.41.69-.42,1.47-.51,2.23-.04.35-.08.71-.29,1.02-.06.09-.11.19-.03.3.5.65.76,1.48.93,2.24.08.36.05.59.33.85.12.12.13.34.05.53-.6-.04-.94-.47-1.26-.89-.17-.22-.33-.39-.61-.41Z"/><path class="cls-29" d="m3.54,37.05s-.06,0-.09,0c-.41.12-.8.28-1.22.35-.19.03-.58-.11-.58-.18-.04-.74-.78-1.54.11-2.23.6-.24,1.22-.35,1.86-.26.12.78.53,1.57-.09,2.32Z"/><path class="cls-35" d="m3.83,31.45c.29.29.33.94.23,1.51-.07.42-.06.9-.28,1.25-.13.21-.64.36-.9.32.19-.49.43-.97.57-1.48.14-.51.18-1.05.26-1.58.04,0,.08,0,.12-.01Z"/><path class="cls-55" d="m5.97,38.54c-.35-.94-.69-1.89-1.06-2.82-.1-.26-.3-.49-.45-.73-.04-.08-.11-.22-.08-.24.62-.55.5-1.32.53-1.99.03-.58.25-.98.58-1.38.04,1.06.07,2.12.11,3.18,0,.18.05.36.08.54.22,1,.46,2.01.66,3.02.02.13-.19.3-.29.45-.03,0-.06,0-.08-.01Z"/><path class="cls-1" d="m24.83,13.72c0-.78,0-1.55,0-2.33,3.4.18,6.88.43,9.55,2.75,2,1.74,4.62,3.03,5.56,5.77.91,2.63,1.85,5.29,1.4,8.17-.02.15-.25.27-.38.4-.04.02-.08,0-.12-.03-.04-.09-.04-.17.03-.24-.23-.04-.46-.1-.7-.11-.35-.02-.71,0-1.06,0-.44-1.83-.61-3.77-1.38-5.45-.91-1.99-1.59-4.27-3.58-5.55-1.18-.76-2.52-1.29-3.84-1.81-1.4-.55-2.86-.97-4.3-1.41-.38-.12-.79-.1-1.19-.15Z"/><path class="cls-37" d="m40.87,28.2c0,.09.01.17.02.26-.57.12-.7.61-.9,1.04.5,2.98-1.24,3.68-1.26,5.65,0,.19.13.22.26.27.11.02.2.06.26.16.07.2-.02.35-.19.42-1.04.4-2.08.68-3.19.26q.08-.27.96-.43c.24-.1.52-.08.73-.27.23-.19.17-.46.17-.7,0-1.24.02-2.49,0-3.73-.02-.84.19-1.67.05-2.51-.02-.13.02-.25.11-.35.04-.03.08-.05.12-.08.96,0,1.92,0,2.88,0Z"/><path class="cls-6" d="m19.97,30.9c.41-.75.82-1.5,1.23-2.25.37-.02.74-.04,1.11-.06.03.21-.14.29-.26.41-.43.4-.85.81-1.24,1.26-.57.66-.51,1.39-.26,2.11.3.85.88,1.55,1.65,1.96.77.41,1.63.62,2.55.34.79-.23,1.47-.56,1.94-1.25.53-.78.61-1.66.08-2.71-1.71.14-.41-1.44-.95-1.76-.13-.08-.27-.17-.23-.36.39-.01.79-.02,1.18-.03.1,0,.19.01.27.08.69.66,1.01,1.5,1.17,2.41.07.64-.04,1.25-.27,1.84-.32,1.02-.99,1.74-1.92,2.24-1.55.67-3.07.78-4.51-.3-1.24-1.03-1.83-2.3-1.53-3.93Z"/><path class="cls-25" d="m25.58,28.58c.59.75,1.17,1.5,1.76,2.25.35,1.85-.68,3.33-2.48,3.92-2.3.75-4.84-1.48-4.61-3.57.12-1.12,1.09-1.61,1.75-2.33.09-.1.21-.18.31-.27,1.09,0,2.18,0,3.27,0Z"/><path class="cls-26" d="m37.88,28.28c0,2.38.02,4.75,0,7.13,0,.12-.23.23-.36.35-.29.08-.3-.15-.33-.32-.04-.26-.02-.53-.02-.79-.03-1.41.05-2.83-.07-4.24-.06-.71-.25-1.34-.88-1.76-.07-.04-.1-.12-.12-.19.06-.24.29-.04.4-.16.46,0,.92,0,1.38-.01Z"/><path class="cls-30" d="m36.5,28.29c-.13.03-.26.05-.38.08-.26.25-.59.15-.89.17-.26.01-.53.02-.79,0-2.5.03-4.99.15-7.49.12-.06-.03-.12-.07-.18-.1.21-.09.41-.26.62-.26,3.04-.01,6.08,0,9.12,0Z"/><path class="cls-50" d="m46.48,30.7c.22.43.45.86.66,1.29.06.12.06.26.09.39-.42-.01-.58-.39-.84-.62-.55-.53-1.2-.31-1.91-.4-.93.17-1.15-.62-1.55-1.15-.17-.22-.24-.49.08-.67.06.01-.02-.09,0-.03.01.03,0,.04-.04.02-.31-.11-.54-.27-.38-.66.15-.08.3-.07.45-.04.47.19,1.04-.14,1.46.29.46.25.93.5,1.39.75.19.28.38.56.57.84Z"/><path class="cls-33" d="m39.2,35.56c-.09,0-.18,0-.27,0-.38-.3-.13-.7-.14-1.04-.05-1.84.61-3.45,1.66-4.92.12-.16.22-.4.51-.29v5.45c.05,0,.1,0,.16,0,.84-1.19.17-2.6.5-3.87.15.12.17.29.17.46,0,1.03.04,2.07-.02,3.1-.19.52-.03,1.08-.2,1.6-.3.91-.7,1.76-1.42,2.41-.05.04-.09.08-.09.16.19.15.51-.03.66.23-.42.38-1,.21-1.47.44-.21.05-.42.1-.63.13-.18.02-.37-.03-.56.04-.06.17.12.27.13.42.01.13,0,.22-.16.21-1.45-.93-2.98-.17-4.47-.18-.47,0-.93.23-1.42.18-.11-.46.27-.48.53-.55,1.49-.43,3.04-.35,4.56-.52-1.29-.03-2.51-.35-3.7-.84-.65-.26-1.24.11-1.84.29-.2.06-.39.22-.62.09-.12.03-.25.06-.37.09,0-.02-.02-.04-.02-.07.22-.14.44-.28.66-.42.24-.28.58-.34.91-.43,1.29-.36,2.61-.56,3.91-.84,1.27-.27,2.58-.39,3.79-.92.12-.05.27-.08.36-.23-.36-.14-.79.09-1.12-.19Z"/><path class="cls-43" d="m41.61,34.63c0-1.25,0-2.49,0-3.74,0-.62.05-1.24-.01-1.86-.07-.7.17-.85.77-.57.04.03.07.07.09.11.09,1.31.03,2.61,0,3.92,0-.15,0-.31,0-.46,0-.14-.01-.29.03-.43.35-.25.62.1.94.11.06,0,.08.1.06.15-.53,1.11.09,2.03.52,2.97,0,.05-.03.09-.06.13-.44.66-.85,1.34-1.06,2.1-.16.6-.21,1.22-.8,1.59-.26.12-.52.16-.8.07-.28-.17-.16-.41-.08-.62.32-.75.62-1.51.71-2.36-.59-.21-.29-.7-.31-1.11Z"/><path class="cls-12" d="m40.95,29.29c-.65,1.37-1.37,2.7-1.91,4.11-.24.64-.09,1.42-.12,2.14-.12-.11-.37-.26-.35-.34.44-1.97.89-3.94,1.37-5.9.11-.46.18-1.06.94-.85.02,0,.05,0,.07.01,0,.27,0,.55,0,.82Z"/><path class="cls-17" d="m42.53,28.28c0,.22.02.44.03.66.18.2.36.4.52.57-.02.13-.16.46-.07.55.43.43.87.92,1.42,1.15.52.22,1.17.12,1.75.2.11.02.2.23.3.35-.04.02-.09.03-.14.03-.67,0-1.29-.3-1.96-.23-.65-.13-.98-.3-1.53-.79-.01,0-.03,0-.06-.02-.2.23.01.59-.23.8v.45c-.27-.04-.13-.24-.13-.36-.01-.88,0-1.75,0-2.63,0-.15.04-.31-.04-.45,0-.03,0-.06,0-.09.05-.06.11-.12.16-.18Z"/><path class="cls-41" d="m19.97,30.9c-.06.9.05,1.77.54,2.53.29.46.7.84,1.05,1.26.06.13.13.24.23.35.28.3.41.65.34,1.06-.06.34-.04.65.39.77.14.04.27.14.06.28-.24.1-.49.09-.73.07-1.42-.1-2.84-.14-4.25-.27-.19-.02-.37-.04-.52-.17-1.9-.25-3.79-.5-5.69-.75-.22-.09-.44-.17-.66-.26.03-1.61-.03-3.23.16-4.83.05-.43.78-.99,1.29-1.12,1.82-.45,3.62-.12,5.33.61.74.31,1.38.83,2.07,1.26.06.04.12.07.19.11.04-.08.09-.15.11-.23.04-.22.07-.45.1-.67Z"/><path class="cls-21" d="m31.08,38.56c1.75-1.23,3.4-.02,5.1.2.34.04.68.03,1.02.07.16.02.31.12.46.18-.16.07-.32.2-.49.22-1.49.15-2.98.28-4.46.45-.21.02-.4.24-.6.36.09.19.05.4.04.6-.07.61.27.87.82.94,1.64.22,3.27-.03,4.91.02.45.01.74.16.86.61.03.23.02.44-.19.6-.6.24-1.25.23-1.88.25-1,.04-2,.13-3.01.05-.58-.05-.56,1.02-1.54-.53-.13-.11-.24-.22-.18-.33.05.65-.01,1.37,0,2.09,0,.28,0,.51-.16.74-.02.04-.05.08-.07.12-.05.05-.1.1-.17.12-.27.04-.35-.15-.4-.35-.06-.25-.2-.42-.46-.47-.75-.15-1.32-.53-1.65-1.27-.12.61-.19,1.2,0,1.8.06.18.21.36.06.57-.21.09-.37-.01-.5-.15-.3-.32-.56-.66-.62-1.11.18-.74.52-1.43.78-2.14.04-.12.13-.21.26-.25.25-.05.49.05.73.08.37.05.73.07,1.09-.11.45-.24.49-.21.74.27.07-.61-.19-1.1.07-1.67-.49-.04.14-.42.02-.54-.14-.2-.17-.43-.22-.65-.02-.09-.01-.18,0-.28-.12-.15-.25-.3-.37-.45Z"/><path class="cls-12" d="m17.08,36.77c1.32.07,2.65.15,3.97.22.54.03,1.08.03,1.62.04.11-.13.27-.15.43-.15,2.96.04,5.91-.12,8.86-.38,1.1,0,2.18-.21,3.27-.34.21-.02.42-.12.63.03.66,0,1.31.03,1.96-.02.39-.03.78-.17,1.15-.31.11-.04.16-.22.24-.33.51,0,1.01,0,1.52,0,0,.04.02.08.03.12-.4.36-.89.58-1.4.69-1.87.41-3.76.75-5.63,1.15-.8.17-1.58.43-2.36.64-2.11.89-4.03-.36-6.05-.52-1.36-.11-2.75.17-4.11.07-1.33-.09-2.64-.44-3.95-.69-.07-.01-.11-.17-.17-.25Z"/><path class="cls-42" d="m10.73,39.46c1.62.16,3.24.32,4.85.49.16.02.3.13.45.19,0,.21,0,.43,0,.64-.07.23-.04.45,0,.68.1.46-.05.66-.52.75-.11.02-.22.03-.32.03-1.88-.11-3.75-.13-5.63-.22-.03,0-.06-.02-.09-.03-.41-.76.1-1.33.39-1.94.27-.21.35-.7.85-.59Z"/><path class="cls-53" d="m9.99,40.05c-.18.61-.36,1.23-.54,1.84.15.2.19.43.21.67.04.14.08.27.13.4.1.26.25.41.56.33.5-.12.99.04,1.48.04.96,0,1.93,0,2.89,0,.14,0,.28,0,.42-.03.56-.11.73-.31.77-.88,0-.12,0-.25.05-.37.11-.23-.03-.49.1-.71.03,0,.06,0,.08,0,.24.24.08.59.22.86,0,.94.23,1.87.1,2.82-.02.02-.03.05-.05.07-.23-.03-.45-.09-.68-.09-1.72-.01-3.43,0-5.15-.02-.41,0-.83-.07-1.24-.1-.03-.23-.05-.46-.04-.34.02-.7.04-1.06.03-1.41-.02-.57-.07-1.13-.1-1.7.22-.5.43-1,.65-1.5.1-.02.13.02.12.12Z"/><path class="cls-56" d="m16.24,42.18c-.03-.28-.07-.56-.1-.84.03-.49,0-1.01.12-1.48.13-.48.08-1.06,1.09-.74,1.24.4,2.64.28,3.83.38.12-.31.16-.57.22-.57,1.49-.02,2.98,0,4.48,0,.04,0,.08.07.29.26-.86.05-1.56.09-2.26.13,0,.11.02.23.03.34,2.51-.23,5.01-.45,7.52-.68.03.07.05.13.08.2-.28.32-.63.48-1.06.52-2.81.24-5.62.34-8.43.29-1.49-.03-2.97-.27-4.47-.31-.12,0-.25-.04-.36-.09-.38-.18-.54-.08-.54.35,0,.57-.03,1.15-.08,1.72-.02.19-.09.54.34.4.05-.02.1-.02.15,0,.11.15.07.3,0,.44-.11.2-.21.47-.48.44-.28-.03-.26-.3-.29-.51-.01-.09-.02-.18-.08-.27Z"/><path class="cls-56" d="m16.06,41.35c0,.25,0,.49-.01.74-.05.27-.14.52-.46.55-2.02.18-4.04-.03-6.05-.09-.03-.22-.05-.44-.08-.66,1.86.07,3.74.05,5.59.22,1.25.12.79-.81,1.01-1.34,0,.19,0,.38.01.57Z"/><path class="cls-8" d="m9.99,40.05s-.08-.08-.12-.12c.12-.15.25-.31.37-.46.28-.14.56-.28.84-.42.03.05.05.1.08.14-.14.09-.28.18-.42.26-.25.2-.49.39-.74.59Z"/><path class="cls-53" d="m17.93,45.9c-.26-.09-.53-.17-.77-.28-.26-.13-.5-.3-.74-.45,0-.03,0-.06,0-.08,0,0,.01-.01.01-.01.15-.29.2-.61.24-.94.13-1.24.81-1.82,2.05-1.79.14,0,.31.01.38.14.45.81.61,1.66.32,2.55-.23.71-.82.88-1.49.87Z"/><path class="cls-11" d="m9.14,41.72c-.01.59-.07.68-.64.65-1.14-.07-2.28-.17-3.41-.29-.43-.04-.59-.43-.43-.92.23.46.72.39,1.09.44.94.12,1.9.16,2.85.21.18,0,.36-.06.54-.09Z"/><path class="cls-11" d="m3.54,37.05c.03-.77.06-1.54.09-2.32.24-.02.36.04.35.33-.01.46,0,.92.06,1.37.08.57.07.61-.51.61Z"/><path class="cls-20" d="m32.02,36.66c-3.12.12-6.23.25-9.35.37-.73-.06-.75-.47-.68-1.1.04-.4-.27-.83-.42-1.25,1.42,1.1,2.93.93,4.47.31.94-.21,1.63-.77,2.12-1.57.27-.43.53-.87.77-1.33.47-.9,1.23-1.52,2.05-2.06,1.07-.71,2.17-1.39,3.45-1.66.56,0,1.12,0,1.68-.01,1.32.74,1.17,2.04,1.21,3.25.04,1.22,0,2.45.02,3.67,0,.15.12.31.18.46-.22.06-.44.12-.66.18-.3-.05-.24-.3-.23-.48.02-1.38-.05-2.76-.1-4.14-.02-.6-.5-.8-.66-1.51-.8.53-1.5.29-2,.94.02,1.82-.63,2.62-.87,3.94-.1.55-.35,1.09-.26,1.71.06.41-.49.11-.71.26Z"/><path class="cls-16" d="m32.02,36.66c1.12-.24.56-1.24.77-1.85.48-1.39.53-2.95,1.1-4.28.22-.52,1.38-.7,2.14-.85.11-.02.57.99.62,1.54.14,1.57.15,3.14.21,4.72-.34.09-.68.19-1.02.28-1.28.15-2.55.3-3.83.45Z"/><path class="cls-26" d="m34.43,28.38c-.91.47-1.82.96-2.74,1.4-1.57.75-2.57,2.03-3.32,3.54-.44.89-1.2,1.39-2.07,1.77-.06.03-.18-.06-.27-.1.58-.69,1.16-1.38,1.74-2.07.36-.6.46-1.25.28-1.93-.14-.89-.54-1.66-1.11-2.35.19-.06.37-.16.56-.17.56-.03,1.12-.01,1.68-.02,1.75-.03,3.5-.06,5.25-.08Z"/><path class="cls-20" d="m28.05,31c.27.5.11,1.61-.28,1.93.09-.64.19-1.29.28-1.93Z"/><path class="cls-59" d="m23.96,34.6c-1.57.13-3.16-1.12-3.24-2.71-.03-.65.3-1.35.59-1.97.2-.43.76-.48,1.2-.5,1.3-.07,2.56.15,3.76.66.45.19.61.6.72,1.03.2.77-.09,2.18-.79,2.69-.93.69-.93.69-2.24.8Z"/><path class="cls-15" d="m47.4,32.85c-.06,2.05-.13,4.11-.19,6.16-.25.11-.29-.11-.35-.25-.34-.93-.99-1.47-1.98-1.57-.26-.03-.48-.14-.52-.39-.12-.68-.19-1.37.05-2.05.13-.14.3-.15.47-.15.78,0,1.51.17,2.06.78-.13-.11-.25-.23-.34-.38-.47-1.02-.18-2.12-.37-3.18-.01-.06.06-.1.13-.08.03,0,.07.01.1.02.25.21.5.42.75.63.06.16.12.31.18.47Z"/><path class="cls-45" d="m38.17,40.03c-.39-.51-.46-.86.38-.74-.16.41-.08.56.4.58.82.03,1.64-.03,2.46-.13.65-.08,1.31-.12,1.83.4.36.45.51.94.27,1.5-1.26.12-2.52.28-3.78.31-.5.01-.77-.26-.85-.74-.03-.2-.02-.41-.27-.49-.24-.08-.31-.32-.47-.48-.03-.08-.02-.15.03-.21Z"/><path class="cls-3" d="m38.17,40.03c0,.07,0,.13,0,.2.11.06.17.14.1.27-.13.14-.3.15-.47.15-1,.04-2.01.14-3.01.1-.73-.03-1.45.08-2.18.08-.23,0-.47.02-.6-.24.03-.18.06-.37.09-.55,1.16-.3,2.33-.44,3.53-.47.43-.01.87-.13,1.29-.07.36.05.7.28,1.05.43.07.03.13.07.2.11Z"/><path class="cls-51" d="m43.14,40.22c-.87-.08-1.75-.18-2.62-.23-.64-.04-1.28,0-1.92-.04-.17-.01-.32-.24-.48-.38.14-.09.29-.19.43-.28.22-.03.43-.07.65-.1.56-.1,1.11-.22,1.67-.3.94-.14,1.64.27,2.22.96.08.12.14.23.06.37Z"/><path class="cls-2" d="m41.61,34.63c.11.35.21.69.32,1.04.09-.03.19-.07.28-.1-.32,1.03-.64,2.05-.96,3.08-.04.27-.27.19-.43.24-.05,0-.09-.02-.13-.05h-1.19c1.48-1.16,2.05-2.57,2.12-4.21Z"/><path class="cls-45" d="m40.69,38.83s.06,0,.09,0c1.1-.22,2.41.01,2.92-1.42.05-.15.21-.27.42-.2.19.24-.03.4-.13.58-.22.39-.2.44.23.59.26.09.56.12.62.48,0,.05-.03.09-.07.12-.83-.02-.82.38-1.55.3.32.19-.06.15.13.64-.07.33-.22.05-.34.05-.9-1.07-2.03-1.12-3.27-.77-.17.05-.37.02-.55.02.5-.12,1-.24,1.5-.36Z"/><path class="cls-33" d="m44.15,37.25c-.46.1-.53.53-.67.86-.12.3-.25.42-.59.46-.56.06-1.11.23-1.67.33-.14.02-.3-.04-.45-.07.16-.06.31-.12.47-.18.28-.03.56-.07.84-.1,1.12-.54,1.76-1.41,1.83-2.67.02-.32-.05-.65.04-.97h0c.14-.22.3-.4.58-.17-.03.66-.07,1.31-.06,1.97,0,.12.23.31.36.33,1.13.11,1.82.72,2.19,1.76.03.09.13.15.19.23-.24,1.87-1.97,4.81-4.56,4.56.7-.71,1.04-1.9,1.02-2.89.34.25.65.7,1.11.59,1.02-.23.68-.56-.01-1.52-.17-.23,0-.47.02-.82,0-.04,0-.07,0-.11.52.05.53.06,1.35,1.62.38-.48.34-1.08.58-1.59-.36-.91-1.1-1.3-2-1.47-.19-.04-.41.02-.58-.13Z"/><path class="cls-5" d="m44.53,34.73c-.19.06-.38.12-.57.17-.78-.9-1.06-2.46-.56-3.05-.27-.1-.55-.2-.83-.3,0-.06-.01-.13,0-.19.05-.29.11-.59.16-.88.22.22.41.5.67.65.28.17.63.22.95.32.15.74.23,1.49.24,2.25.01.59.08.67.67.68.59.01,1.14.09,1.51.63.19.23.38.47.56.7,0-.09.02-.18.02-.27-.94-.24-1.87-.47-2.81-.71Z"/><path class="cls-5" d="m43.95,34.9c.55,1.37-.56,3.54-1.87,3.64.22-.52.44-1.05.65-1.57.08-.2.12-.41.18-.61.06-.21.08-.45.2-.61.24-.31.55-.57.82-.85Z"/><path class="cls-5" d="m42.38,28.55c.03.15.08.29.08.44.01.85,0,1.71.02,2.56,0,.15.05.29.08.44,0,.38,0,.76,0,1.14-.06,0-.12,0-.17,0v-4.58Z"/><path class="cls-50" d="m46.75,35.01c-.56-.43-1.2-.55-1.88-.49-.36.03-.42-.2-.44-.46-.04-.54-.06-1.08-.11-1.62-.02-.25-.1-.5-.12-.76,0-.07.08-.15.13-.23.68.09,1.36.19,2.05.28.12,1.09.25,2.19.37,3.28Z"/><path class="cls-19" d="m29.02,41.99c-.31.78-.62,1.56-.93,2.34-.1.69-.24.83-.92.91-.93-.05-1.85-.1-2.78-.13-.74-.03-1.48.04-2.22.08-.48.02-.96.06-1.43.08-1.01-.27-.9-1.28-1.23-1.96-.22-.46-.83-.92-.39-1.58.7-.23,1.41-.22,2.09.05.49.19.97.41,1.45.62,1.07.48,2.11.39,3.16-.03.48-.19.94-.4,1.41-.6.46-.2.94-.22,1.42-.15.19.03.46.05.36.39Z"/><path class="cls-56" d="m29.02,41.99c-.61-.02-1.3-.22-1.82-.01-1.6.63-3.12,1.34-4.87.44-.76-.39-1.56-.87-2.51-.7-.23.04-.46.06-.69.09-.31-.11-.62-.15-.94-.14-.32,0-.6.07-.83.31-.07.07-.15.16-.27.12h0c-.42-.81-.02-1.56.87-1.55,1.27.02,2.55-.04,3.82-.07,2.83-.07,5.66,0,8.49-.04.24,0,.47-.03.69-.12.45-.17.65-.02.61.46,0,.08,0,.15,0,.17.06-.33-.08-.75.19-1.1,0,.4,0,.79,0,1.19,0,.52,0,1.05-.11,1.65-.13-.81-.39-.88-1.07-.56-.4.19-1.02-.08-1.53-.14Z"/><path class="cls-13" d="m31.74,39.85c-.05.63-.09,1.26-.14,1.89h-.14c0-.29-.01-.59-.01-.9,0-.54,0-.52-.51-.35-.21.07-.45.1-.68.1-2.49,0-4.97,0-7.46,0-1.66.01-3.32.06-4.99.09-.51.01-.69.18-.73.7-.02.23,0,.47,0,.7-.14.13-.29.27-.43.4-.07-.21-.21-.42-.21-.63,0-.57.06-1.14.09-1.71.01-.23,0-.46.05-.68.02-.08.22-.21.25-.19.74.49,1.6.32,2.4.36,2.37.12,4.74.18,7.11.19,1.16,0,2.32-.13,3.47-.26.58-.06,1.15-.24,1.72-.37.07.21.13.43.2.64Z"/><path class="cls-52" d="m38.73,44.89c-.42.03-.83.09-1.25.09-1.53.01-3.07,0-4.6.01-.41,0-.83.05-1.24.08.06-.71.13-1.41.18-2.12.03-.32.04-.64.14-.96.05.16.1.31.15.47.74,1.23,1.94,1.08,3.11,1.07.5,0,.99-.03,1.49,0,.74.05,1.49.1,1.83-.79.03-.19.07-.38.1-.57-.06-.12-.07-.25-.01-.38.07-.05.15-.05.22-.01.08.08.1.18.11.28,0,.27-.09.52-.11.79-.13.36-.32.71-.15,1.12.08.21-.15.32-.23.47.05.18.36.19.27.44Z"/><path class="cls-39" d="m38.64,41.82c0,.12,0,.24-.01.36-.49-.15-.99-.4-1.49-.42-1.39-.06-2.78-.01-4.17-.04-.71-.01-1.1-.36-.96-1.13.47.01.94.03,1.41.03.54,0,1.08-.01,1.63-.03.97-.03,1.95-.06,2.92-.1.1,0,.2-.06.3-.09.35.41.64.83.37,1.41Z"/><path class="cls-49" d="m38.54,42.74c-.15.69-.4,1.05-1.27.94-1.25-.15-2.54.03-3.79-.15-.5-.07-.91-.7-1.37-1.08.15.07.3.16.45.22.22.09.46.24.68.23,1.64-.04,3.28-.11,4.92-.17.12,0,.25,0,.37,0Z"/><path class="cls-32" d="m27.25,45.09c.58.08.6-.46.84-.76.2.34.38.69.61,1,.08.11.28.14.42.21.41-.03.84-.24,1.19.17-.71.72-1.42,1.44-2.13,2.17-.03.08-.07.13-.17.1-.32-.59-.35-1.26-.43-1.91-.04-.36-.21-.66-.33-.98Z"/><path class="cls-23" d="m30.3,45.71c-.24-.02-.48-.03-.71-.07-.16-.02-.32-.07-.47-.1-.46-.86-.39-1.75-.18-2.76.32.46.5.91.82,1.16.34.26.83.31,1.23.51.13.07.18.3.27.45.08.13.18.24.28.36-.12.27-.33.36-.62.37-.21,0-.42.05-.62.07Z"/><path class="cls-54" d="m17.08,42.09c.53-.66,1.58-.81,2.05-.29.06.27.08.55.18.8.27.68.55,1.36.86,2.02.1.21.3.36.46.54,0,.98-.12,1.93-.55,2.82-.17.03-.24-.06-.28-.21-.62-.63-1.24-1.25-1.87-1.88,1.43-.28,1.7-1.23,1.38-2.47-.09-.34-.32-.65-.49-.97-.56.23-1.34-.06-1.68.66-.18.38-.24.82-.34,1.24-.06.28.01.61-.37.71-.06-.96-.12-1.93-.18-2.89.14.23.28.46.42.7.14-.26.28-.53.42-.79Z"/><path class="cls-8" d="m9.53,42.55c.96-.01,1.91-.04,2.87-.04,1.01,0,2.01.03,3.02.02.28,0,.53-.13.63-.44.18,1.11-.43,1.43-1.4,1.4-1.36-.04-2.73-.07-4.09-.09-.23,0-.6.16-.66.07-.19-.26-.25-.61-.37-.93Z"/><path class="cls-36" d="m22.33,30.52c.88.32,2.14.69,3.32,1.25.7.33.18,1.75-.85,2.2-1.92.84-3.84-.48-3.89-2.4-.02-.82.22-1.05,1.42-1.05Z"/><path class="cls-49" d="m38.73,44.89c-.21-.14-.41-.29-.46-.32.17-.6.31-1.12.46-1.64.13-.26.22-.57.56-.66,1.1-.06,2.2-.15,3.3-.17.43,0,.71-.12.89-.49-.11-.46-.23-.92-.34-1.39-.04-.09-.08-.18-.12-.28.1.03.2.05.29.08.35.22.47.52.37.94.04,1.02.02,2.02-1.03,2.61-.69.15-1.41.21-2.05.47-.63.25-1.12.84-1.88.85Z"/><path class="cls-39" d="m43.48,41.61c-.07.68-.07.64-.69.61-.52-.02-1.04.06-1.57.08-.67.03-1.35.05-2.02.07-.19-.01-.26-.17-.37-.29,0-.09,0-.18,0-.27-.17-.38-.25-.79-.28-1.21.32-.05.35.18.49.4.2.32.57.76.87.77.95.02,1.9-.14,2.85-.22.24-.02.49.04.73.06Z"/><path class="cls-21" d="m38.54,40.6c.09.4.19.81.28,1.21-.06,0-.12,0-.18,0-.12-.47-.25-.94-.37-1.41-.03-.06-.07-.12-.1-.18.12.13.24.25.37.38Z"/><path class="cls-51" d="m43.69,40.96c-.12-.31-.25-.62-.37-.94-.29-.47-.58-.94-.87-1.4-.11.1-.23.2-.34.3.89,0,1.79,0,2.68,0,.16.17.38.31.46.51.21.52.37,1.07.55,1.61-.53.41-1.19.34-1.8.44-.07.01-.21-.34-.31-.53Z"/><path class="cls-51" d="m44.15,37.25c1.11-.07,2.06.3,2.55,1.3.19.39,0,1-.11,1.49-.06.27-.33.49-.39.57-.48-.61-.95-1.2-1.41-1.79-.07-.06-.13-.17-.2-.18-1.18-.14-.98-.71-.45-1.39Z"/><path class="cls-46" d="m28.07,47.95c-.18.03-.37.11-.54.09-.26-.02-.52-.15-.77-.16-1.89-.02-3.78-.01-5.67,0-.17,0-.33.12-.5.13-.19.01-.39-.04-.58-.06.09-.31.19-.62.26-.94.13-.61.25-1.23.37-1.85.58-.06,1.16-.16,1.74-.17,1.18-.03,2.36-.01,3.53,0,.45,0,.9.06,1.35.09.25.09.36.25.4.53.11.78.27,1.55.42,2.33Z"/><path class="cls-21" d="m38.83,42.08c.12.1.24.19.37.29-.16.19-.31.37-.47.56.03-.28.07-.56.1-.85Z"/></svg>