<?xml version="1.0" encoding="UTF-8"?><svg id="Layer_1" xmlns="http://www.w3.org/2000/svg" viewBox="0 0 50 50"><defs><style>.cls-1{fill:#cce6c6;}.cls-2{fill:#231f20;}</style></defs><path class="cls-2" d="m18.04,49.16c.75-.32,1.28-1.07,1.28-1.94v-5.7c0-.21.02-.42.04-.64-.01,0-.03,0-.04.01h-3.8c-1.58,0-2.96-.63-3.59-1.9-.74-1.37-1.06-3.7-2.96-4.96-.32-.21-.11-.53.53-.53.63.11,2.01.95,2.85,2.11.95,1.16,1.9,2.11,3.59,2.11,2.63,0,4.03-.13,4.88-.59.99-1.47,2.35-2.58,3.78-2.58v-.03c-5.98-.19-9.81-2.18-11.59-5.25-3.87.04-7.24.43-9.16.75-.06-.35-.11-.69-.16-1.04,1.9-.31,5.11-.68,8.81-.75-.12-.29-.22-.59-.31-.9-3.71-.19-6.91-.04-8.64.1-.02-.35-.05-.7-.05-1.05,1.74-.14,4.85-.29,8.47-.12-.08-.53-.14-1.07-.14-1.63,0-1.79.63-3.7,1.79-5.28-.53-1.79-1.27-5.6.21-6.97,2.85,0,4.86,1.37,5.81,2.22,1.79-.74,3.8-1.16,6.02-1.16s4.22.42,5.91,1.16c.95-.84,2.96-2.22,5.81-2.22,1.58,1.48.74,5.28.21,6.97,1.16,1.58,1.79,3.38,1.69,5.28,0,.51-.05,1-.12,1.49,3.69-.18,6.89-.04,8.66.11,0,.36-.03.7-.05,1.05-1.76-.15-5.04-.3-8.83-.09-.09.35-.21.7-.34,1.03,3.74.05,7.04.41,9.03.73-.05.35-.1.7-.16,1.04-2.02-.32-5.46-.7-9.37-.72-1.76,3.04-5.51,5.02-11.38,5.25v.03c2.75,0,5.28,4.12,5.28,6.97v5.7c0,.87.53,1.62,1.28,1.94,9.67-3.2,16.67-12.32,16.67-23.06,0-13.39-10.89-24.28-24.28-24.28S1.37,12.71,1.37,26.1c0,10.73,7,19.85,16.67,23.06Z"/><path class="cls-1" d="m16.67,48.18c.75-.32,1.28-1.07,1.28-1.94v-5.7c0-.21.02-.42.04-.64-.01,0-.03,0-.04.01h-3.8c-1.58,0-2.96-.63-3.59-1.9-.74-1.37-1.06-3.7-2.96-4.96-.32-.21-.11-.53.53-.53.63.11,2.01.95,2.85,2.11.95,1.16,1.9,2.11,3.59,2.11,2.63,0,4.03-.13,4.88-.59.99-1.47,2.35-2.58,3.78-2.58v-.03c-5.98-.19-9.81-2.18-11.59-5.25-3.87.04-7.24.43-9.16.75-.06-.35-.11-.69-.16-1.04,1.9-.31,5.11-.68,8.81-.75-.12-.29-.22-.59-.31-.9-3.71-.19-6.91-.04-8.64.1-.02-.35-.05-.7-.05-1.05,1.74-.14,4.85-.29,8.47-.12-.08-.53-.14-1.07-.14-1.63,0-1.79.63-3.7,1.79-5.28-.53-1.79-1.27-5.6.21-6.97,2.85,0,4.86,1.37,5.81,2.22,1.79-.74,3.8-1.16,6.02-1.16s4.22.42,5.91,1.16c.95-.84,2.96-2.22,5.81-2.22,1.58,1.48.74,5.28.21,6.97,1.16,1.58,1.79,3.38,1.69,5.28,0,.51-.05,1-.12,1.49,3.69-.18,6.89-.04,8.66.11,0,.36-.03.7-.05,1.05-1.76-.15-5.04-.3-8.83-.09-.09.35-.21.7-.34,1.03,3.74.05,7.04.41,9.03.73-.05.35-.1.7-.16,1.04-2.02-.32-5.46-.7-9.37-.72-1.76,3.04-5.51,5.02-11.38,5.25v.03c2.75,0,5.28,4.12,5.28,6.97v5.7c0,.87.53,1.62,1.28,1.94,9.67-3.2,16.67-12.32,16.67-23.06C48.57,11.74,37.68.84,24.28.84S0,11.74,0,25.13c0,10.73,7,19.85,16.67,23.06Z"/></svg>