<?xml version="1.0" encoding="UTF-8"?><svg id="Layer_3" xmlns="http://www.w3.org/2000/svg" viewBox="0 0 50 50"><defs><style>.cls-1{fill:#cce6c6;}.cls-2{fill:#231f20;}</style></defs><path class="cls-2" d="m44.15,1.34H7.29C4.11,1.34,1.53,3.92,1.53,7.1v36.85c0,3.18,2.58,5.76,5.76,5.76h36.85c3.18,0,5.76-2.58,5.76-5.76V7.1c0-3.18-2.58-5.76-5.76-5.76Zm-27.64,18.43v21.88h-6.91v-21.88h6.91Zm-6.91-6.37c0-1.61,1.38-2.84,3.46-2.84s3.37,1.23,3.46,2.84c0,1.61-1.29,2.91-3.46,2.91s-3.46-1.3-3.46-2.91Zm32.25,28.25h-6.91v-11.52c0-2.3-1.15-4.61-4.03-4.65h-.09c-2.79,0-3.94,2.37-3.94,4.65v11.52h-6.91v-21.88h6.91v2.95s2.22-2.95,6.69-2.95,8.28,3.14,8.28,9.51v12.37Z"/><path class="cls-1" d="m42.61,0H5.76C2.58,0,0,2.58,0,5.76v36.85c0,3.18,2.58,5.76,5.76,5.76h36.85c3.18,0,5.76-2.58,5.76-5.76V5.76c0-3.18-2.58-5.76-5.76-5.76ZM14.97,18.43v21.88h-6.91v-21.88h6.91Zm-6.91-6.37c0-1.61,1.38-2.84,3.46-2.84s3.37,1.23,3.46,2.84c0,1.61-1.29,2.91-3.46,2.91s-3.46-1.3-3.46-2.91Zm32.25,28.25h-6.91v-11.52c0-2.3-1.15-4.61-4.03-4.65h-.09c-2.79,0-3.94,2.37-3.94,4.65v11.52h-6.91v-21.88h6.91v2.95s2.22-2.95,6.69-2.95,8.28,3.14,8.28,9.51v12.37Z"/></svg>