<?xml version="1.0" encoding="UTF-8"?><svg id="Layer_6" xmlns="http://www.w3.org/2000/svg" viewBox="0 0 50 50"><defs><style>.cls-1{fill:#cce6c6;}.cls-2{fill:#231f20;}</style></defs><path class="cls-2" d="m14.84,11.59c-7.67.02-13.87,6.24-13.87,13.9s6.2,13.88,13.87,13.9c7.67-.02,13.87-6.24,13.87-13.9s-6.2-13.88-13.87-13.9Zm21.67.82c-3.83.02-6.94,5.87-6.94,13.08s3.1,13.07,6.94,13.08c3.83-.02,6.94-5.87,6.94-13.08s-3.1-13.07-6.94-13.08Zm10.63.82c-1.02-.01-1.97,2.32-2.48,6.12-.51,3.8-.51,8.48,0,12.28s1.46,6.14,2.48,6.12c1.02.01,1.97-2.32,2.48-6.12.51-3.8.51-8.48,0-12.28-.51-3.8-1.46-6.14-2.48-6.12Z"/><path class="cls-1" d="m13.87,10.61c-7.67.02-13.87,6.24-13.87,13.9s6.2,13.88,13.87,13.9c7.67-.02,13.87-6.24,13.87-13.9s-6.2-13.88-13.87-13.9Zm21.67.82c-3.83.02-6.94,5.87-6.94,13.08s3.1,13.07,6.94,13.08c3.83-.02,6.94-5.87,6.94-13.08s-3.1-13.07-6.94-13.08Zm10.63.82c-1.02-.01-1.97,2.32-2.48,6.12-.51,3.8-.51,8.48,0,12.28s1.46,6.14,2.48,6.12c1.02.01,1.97-2.32,2.48-6.12.51-3.8.51-8.48,0-12.28-.51-3.8-1.46-6.14-2.48-6.12Z"/></svg>