<?xml version="1.0" encoding="UTF-8"?><svg id="Layer_4" xmlns="http://www.w3.org/2000/svg" viewBox="0 0 50 50"><defs><style>.cls-1{fill:#941b1e;}.cls-2{fill:#6d333c;}.cls-3{fill:#ba3938;}.cls-4{fill:#e45b60;}.cls-5{fill:#e69698;}.cls-6{fill:#f2797f;}.cls-7{fill:#f05659;}.cls-8{fill:#e3d0d9;}.cls-9{fill:#b77675;}.cls-10{fill:#37261e;}.cls-11{fill:#e7ebf1;}.cls-12{fill:#9a6728;}.cls-13{fill:#866226;}.cls-14{fill:#ac9030;}.cls-15{fill:#911b1d;}.cls-16{fill:#d2d7de;}.cls-17{fill:#b62e2e;}.cls-18{fill:#b53a3a;}.cls-19{fill:#cd3835;}.cls-20{fill:#0e0b0c;}.cls-21{fill:#ae9331;}.cls-22{fill:#d0888b;}.cls-23{fill:#ddd99d;}.cls-24{fill:#d73231;}.cls-25{fill:#a87b79;}.cls-26{fill:#ab7a76;}.cls-27{fill:#dccf50;}.cls-28{fill:#968784;}.cls-29{fill:#981c1f;}.cls-30{fill:#c8b943;}.cls-31{fill:#c02627;}.cls-32{fill:#d7abaf;}.cls-33{fill:#dadee5;}.cls-34{fill:#c92327;}.cls-35{fill:#333;}.cls-36{fill:#d2a1a1;}.cls-37{fill:#cf8778;}.cls-38{fill:#bb2326;}.cls-39{fill:#6c3817;}.cls-40{fill:#afabab;}.cls-41{fill:#db8786;}.cls-42{fill:#b12225;}.cls-43{fill:#8c181b;}.cls-44{fill:#ec4243;}.cls-45{fill:#d5b2ad;}.cls-46{fill:#731112;}.cls-47{fill:#cd9593;}.cls-48{fill:#cb9c9c;}.cls-49{fill:#d4dbe1;}.cls-50{fill:#90515a;}.cls-51{fill:#9c7676;}.cls-52{fill:#aeacb0;}.cls-53{fill:#c27c78;}.cls-54{fill:#f0f2f6;}.cls-55{fill:#671d24;}.cls-56{fill:#911d1e;}.cls-57{fill:#ed4a4a;}.cls-58{fill:#aca4a4;}.cls-59{fill:#d6cad1;}.cls-60{fill:#ca8980;}.cls-61{fill:#6f6f6e;}.cls-62{fill:#b42c2a;}.cls-63{fill:#c42227;}.cls-64{fill:#b29f84;}.cls-65{fill:#cccdd4;}.cls-66{fill:#73491e;}.cls-67{fill:#df6e6d;}.cls-68{fill:#796968;}.cls-69{fill:#d4ced8;}.cls-70{fill:#6f1111;}.cls-71{fill:#d89891;}.cls-72{fill:#ced3da;}.cls-73{fill:#bc8d8d;}.cls-74{fill:#d0c046;}.cls-75{fill:#bcbac0;}.cls-76{fill:#b5b0b1;}.cls-77{fill:#b7847f;}.cls-78{fill:#b6b3b6;}.cls-79{fill:#ef4143;}.cls-80{fill:#c3c5c9;}.cls-81{fill:#a69132;}.cls-82{fill:#b19899;}.cls-83{fill:#8d1c1d;}.cls-84{fill:#a11e21;}.cls-85{fill:#cd6761;}.cls-86{fill:#ce8d8e;}.cls-87{fill:#d3d7de;}.cls-88{fill:#bfbcbe;}.cls-89{fill:#842927;}.cls-90{fill:#8d1e1e;}.cls-91{fill:#e09a9e;}.cls-92{fill:#e8ecf2;}.cls-93{fill:#781415;}.cls-94{fill:#ed3d3c;}.cls-95{fill:#c4bd8f;}.cls-96{fill:#e83a35;}.cls-97{fill:#dce3e9;}.cls-98{fill:#a74c48;}.cls-99{fill:#d4d8df;}.cls-100{fill:#cdd2d4;}.cls-101{fill:#c9cecf;}</style></defs><path class="cls-35" d="m14.84,47.65c-1.02.16-1.97.34-2.7-.77-.4-.61-1.18-.96-1.71-1.49-2.25-2.26-3.15-5.09-3.45-8.19-.37-3.89.11-7.7.91-11.49.2-.96.92-1.47,1.66-1.94.41-.27.55-.58.61-1.03.12-.94.32-1.87.7-2.76.46-.06.2-.38.22-.6.23-.48.46-.96.69-1.44.07-.15.17-.29-.02-.42-.2-.47.15-.29.32-.26,1.21.21,2.02,1.13,3.04,1.69.31.17.64.32,1,.13-.05-.22-.19-.19-.32-.18-.23.03-.55.19-.6-.18-.05-.34.09-.67.42-.83.87-.43,1.97.22,2.01,1.17,0,.18.06.36-.02.54-.29.41-.74.26-1.19.32q.85.14,1.14-.26c.48-.08.45.23.42.54-.04.59.09,1.13.46,1.61.09.1.12.21.11.34.01.56-.47.66-.83.82-.27.12-.56,0-.66-.34-.04-.13-.02-.3-.16-.35-.44-.14-.72-.49-1.07-.76-.84-.66-1.82-1.16-2.43-2.1-.2-.31-.55-.48-.82-.72-.22-.19-.44-.32-.64.03-.18.31-.4.62.03.9.14.09.29.15.37.37.15-.17.25-.38.48-.33.23.05.24.24.27.42.46-.26.48-.25.69.21.12.28.21.56.16.87-.04.2.03.39.09.58.11.35.09.69-.1,1.01-.09.16-.19.34-.42.18-.2-.35-.06-.75-.13-1.12-.12-.61-.3-1.16-1.12-.94-.45-.02-.52.31-.6.64-.02.04-.04.08-.07.12-.43.51-.41.94.1,1.62.45.91,1.13.22,1.71.25.14.09.24.06.31-.11.22-.53.51-1.05.35-1.66-.07-.25,0-.5.3-.53.28-.02.33.23.36.45.02.2-.01.4,0,.6.03.63.1.72.72.88.26.07.53.1.75.25.71.48.73,1.05.05,1.5-.47.32-.85.73-1.33,1.03-.06.03-.12.07-.15.13-.3.66-.81,1.17-1.19,1.77-.27.42-.39.87-.32,1.37.07.5-.3.95-.2,1.5.39-.02.82-.08,1.22.11.12.07.19.16.15.3-.07.12-.2.1-.25.12,1.06.16,2.19-.04,3.29.27.24.29.5.24.78.06.49-.31,1-.25,1.51-.05.14.05.27.15.24.33-.03.18-.2.21-.35.21-.23,0-.46.05-.68.1-1.24.02-2.48,0-3.72,0-.18,0-.36,0-.54.01-.51.04-1.01.06-1.5-.08-.26-.1-.52-.19-.85-.08.3.28.37.66.57.98.17.43.16.88.14,1.33-.03.81.09,1.59.52,2.29.22.58.35,1.19.54,1.78.34.29.84.16,1.18.45,1.02.2,2.05.34,3.09.3.41-.02.83.03,1.22-.16.32-.08.57-.3.87-.42.48-.08.79-.42,1.1-.75.04-.03.09-.04.14-.06.7-.02,1.37-.34,2.08-.21.16.03.36.03.36.25,0,.19-.18.25-.32.24-.41-.03-.53.24-.63.55-.56.34-1.3.2-1.8.69-.36.22-.67.5-.44.94.16.29.44.19.65-.03.99-.76,2.09-.97,3.29-.62.12.06.24.13.32.24.44.93-.45.62-.77.8-.16.08-.42-.04-.58.16-.17.1-.36.16-.56.17-.81.08-1.53.38-2.14.92-.26.21-.27.49-.07.69.22.22.46.02.65-.14.45-.4,1-.55,1.57-.67.08,0,.16,0,.25.01.17,0,.35.02.42.21.08.2-.06.34-.18.48-.47.53-1.02.97-1.57,1.42-.14.11-.3.18-.46.1-.33-.16-.52.01-.62.28-.29.75-.66,1.47-.87,2.25-.06.24-.19.42-.42.52-.3.12-.61.03-.91.03-.65-.03-1.3-.06-1.94-.2-.4-.18-.87.02-1.25-.26-.1-.03-.2-.07-.31-.1-.39,0-.48-.19-.54-.58-.13-.92-.16-1.85-.29-2.77-.13-.91-.23-1.82-.37-2.72.22,1.42.37,2.85.49,4.29.05.58.11,1.15.17,1.73.05.41.11.83-.06,1.23Z"/><path class="cls-35" d="m40.06,46.26c-.7.4-1.46.6-2.25.74-.19.03-.34.25-.56.11-.32-1.38-.1-2.79-.14-4.18-.04-1.48-.12-2.97.15-4.46.06-.36.23-.85-.34-1.05-.29.37-.55.96-1.02.17-.11-.38.12-.68.24-1,.16-.28.31-.56.64-.67,1.25-.25,2.04-.87,1.92-2.28-.07-.83.07-1.65.08-2.48,0-.45-.18-.7-.68-.51-.15.03-.3.03-.44.1-.15.05-.31.08-.46.12-.69.13-1.37.34-2.08.31-2.19.29-4.37.56-6.58.65-.53.02-1.05.05-1.58.1-.17.05-.34.05-.5-.02-.29-.28-.1-.51.17-.53.74-.07,1.41-.5,2.18-.43,1.17.11,2.31-.1,3.44-.34,1.05-.22,1.91-.68,2.25-1.8.08-.26.28-.5.59-.42.49.13,1.33-.58,1.4.63.03.49.59.76,1.01.99.18.1.51.02.67-.21.17-.24.01-.46-.14-.63-1.78-1.88-3.6-3.73-6.11-4.63-.8-.28-1.58.18-2.35.38-1.91.49-3.61,1.73-5.7,1.58-.25-.02-.5.02-.73-.12-.07-.06-.07-.13-.03-.2.1-.11.25-.17.37-.25.05-.02.09-.04.14-.04.07-.01.15-.01.22-.01,1.37.28,2.35-.61,3.41-1.18,1-.54,1.9-1.27,3.08-1.45.45-.07.68-.33.73-.81.07-.79.45-1.38,1.18-1.77.37-.2.94-.52.65-1.04-.33-.6-.81-.13-1.19.09-.73.43-1.28.59-1.78-.41-.51-1.01-1.31-1.84-2.49-2.14-.22-.06-.35-.24-.49-.4-.07-.31.01-.6.17-.87.18-.09.34-.07.46.11.12.19-.02.49.25.63.52.13,1.06.12,1.57.02.61-.12,1.25-.17,1.83-.45.12-.06.26-.07.39-.07.32.02.37.15.17.46.6.07.74.32.55.98.69.22,1.24-.01,1.83-.38,1.2-.73,2.28-1.66,3.55-2.27.09-.04.18-.09.27-.12.13-.04.27-.08.37.04.1.13-.01.25-.08.36-.72.74-1.7,1.13-2.46,1.82-.44.28-.9.54-1.21,1.06,1.11.09,2.04.62,3.01,1.01.46.18.58.44.46.87-.44,0-.79-.52-1.29-.22-.81,0-1.54.19-1.98.95-.35.53-.21,1,.18,1.43.56.61,1.22.79,2,.44.33-.14.56-.43.87-.59.49-.38.28-1.05.62-1.48.47.01.47.4.53.7.15.69.3,1.39.35,2.08.11,1.31.59,2.55.59,3.86,0,.3.1.59.19.87.25.82.59,1.61.92,2.4.06.15.06.29,0,.43-.08.2,0,.31.19.4.17-1.73.07-3.44.04-5.16-.28-.55-.52-1.1-.22-1.74.16-.34.36-.51.73-.4.46.14.94.18,1.42.22.77.07.98.27,1.19,1,.04.15.13.26.22.39.35.87.39,1.81.57,2.72,0,.32-.07.6-.24.89-.18.32-.15.7-.04,1.06.14.47-.23.79-.74.65-.15-.38-.06-.78-.08-1.17-.02-.59-.18-.71-.78-.54-.28.13-.6.06-.87.21-.28.5-.14,1.03-.11,1.55.02.24.26.25.43.21.34-.08.69-.06,1.03-.16.1-.02.21-.03.31-.01.05.01.1.02.15.03.32-.04.64-.06.83.28.18.34.14.67-.07.98-.29.43-.53.86-.04,1.32.13.12.1.32.04.47-.12.31-.05.59.08.86.34.7.38,1.44.27,2.19-.03.2-.04.39.04.59.05.14.08.29.04.44-.25.89-.03,1.85-.46,2.7.28.19.42-.02.58-.09.21-.1.41-.21.49.14-.24.45-.5.88-.92,1.19-.49.5-1.03.93-1.6,1.33-.2.14-.47.2-.48-.13-.02-.6.1-1.56.31-1.72.75-.6.66-1.36.6-2.02-.11-1.26.29-2.46.2-3.7-.03-.37-.14-.39-.47-.41-.8-.05-1.82.53-2.3-.82-.22,3.72-.63,7.29-1.06,10.87-.03.29-.07.56-.29.77Z"/><path class="cls-35" d="m17.54,19.67c-.03-.34-.09-.69-.09-1.03,0-.31-.13-.46-.41-.51-.31-.05-.62-.11-.93-.14-.5-.06-.78.18-.83.67-.02.2.08.24.24.17.09-.04.17-.11.26-.13.2-.03.41-.06.53.15.06.1.1.32.06.35-.14.09-.33.18-.49.17-.76-.04-1.38-.45-1.9-.94-.26-.25-.5-.41-.84-.52-.43-.14-.84-.35-1.26-.53-.23-.1-.15.05-.14.16-2.42-1.82-4.84-3.63-7.26-5.45-.43-.38-1-.57-1.38-1.01-.12-.14-.4-.25-.17-.51.6.06,1,.5,1.45.81.86.61,1.8,1.13,2.54,1.88.39.4.75.38,1.18.14.29-.16.56-.13.84.04.44.27.89.52,1.45.34.08-.03.17-.03.25,0,.72.34,1.51.44,2.25.72,1.66.63,3.13,1.66,4.83,2.22.29.09.45.08.45-.27,0-.24.06-.46.2-.65.09-.13.1-.28.08-.43-.13-.86-.07-1.72-.08-2.58,0-.4-.02-.79-.14-1.18.23-.1.22-.29.22-.5-.01-1.09-.02-2.19-.03-3.28-.1-1.07.04-2.14-.07-3.21-.04-.3.09-.47.39-.49,2.59-.17,5.18-.32,7.77-.5,1.32-.09,1.78,1.17,2.72,1.66,1.11.57,1.44,1.54,1.36,2.71.03.52.07,1.8-.4,1.87-.56.08-.38-1.21-.51-1.64-.07-.25-.06-.52-.16-.97-.1.91.2,1.63.05,2.34-.03.16-.03.35-.23.4-.13.03-.19-.1-.25-.2-.32-1.52-.02-3.17-.9-4.94-.54,1.95.15,3.54-.03,5.14-.12.54.09,1.05.12,1.58.03.5,0,.99.03,1.49,0,.12,0,.23-.05.34-.06.14-.14.28-.31.29-.18.02-.25-.13-.32-.27-.07-.14-.11-.29-.1-.43.04-.63-.14-1.24-.07-1.88.05-.46-.33-.82-.56-1.35-.11.42.03.66.12.89.18.47.21.92.04,1.4-.14.37-.18.77-.12,1.17.04.26.06.54-.24.7-.37-.02-.54-.28-.53-.6.02-.61-.21-1.26.27-1.82.15-.18-.04-.35-.16-.47-.28-.29-.4-.6-.21-.99.05-.09.06-.21.03-.29-.24-.66-.01-1.38-.3-2.04-.13-.31.04-.67-.14-.97-.16-.19-.29-.4-.5-.54-.04-.03-.08-.06-.12-.1-1.58-.3-3.15-.53-4.57.51-.21.04-.42.12-.36.37.43,1.68-.26,3.34-.08,5,.11.96,0,1.9-.05,2.86-.02.35-.16.43-.52.44.53.33.18.56-.02.81-.51,1.72-.98,3.45-.99,5.26,0,.17.02.35-.14.47-.48-.43-.6-1-.54-1.6.03-.29.12-.53-.27-.58Z"/><path class="cls-35" d="m26.71,13.89c.03-.21.13-.44.08-.62-.13-.4-.07-.79.08-1.11.3-.65.13-1.22-.14-1.8-.12-.25-.11-.47-.01-.71.09-.2.2-.29.33-.05.22.4.43.81.64,1.22.03.07.04.17.01.24-.25.65.1,1.3.02,1.95-.02.19.09.4.18.75.15-.26.29-.4.28-.53-.02-.75-.06-1.5-.1-2.25-.02-.33-.05-.66-.07-.98.1-.02.14.04.19.11.31.44.6.41.84-.08.04-.09.07-.19.17-.23.08.07.19.21.19-.05,0-.49,0-.98-.03-1.46-.01-.33-.05-.65-.07-.98,0-.15,0-.34.19-.33.08,0,.2.16.22.27.08.4.12.81.19,1.21.05.3.13.59.27,1.23.2-.79.32-1.25.44-1.71.09.63.19,1.26.25,1.89.03.33.12.55.46.61-.2.25-.51.21-.77.28-.22.06-.43.13-.5.36-.06.24.17.34.32.46.43.34.9.62,1.47.67.28.03.55.12.82.2.58.18.67.49.28.94-.05.06-.11.12-.17.18-.49.36-1.06.55-1.63.74-.98.17-1.68.82-2.42,1.41-.19.15-.38.3-.56.54.48.06.84-.11,1.18-.3,1.2-.67,2.49-1.16,3.73-1.76,2.1-1.02,4.2-2.06,6.34-2.97,1.19-.5,2.36-1.07,3.62-1.39.3-.07.59-.14.91.11-.24-.46-.13-.77.34-.62,1.38.43,1.98-.89,2.99-1.27.51-.19.95-.6,1.46-.85.25-.12.51-.16.74.06.23.22.2.47.06.73-.85.56-1.7,1.12-2.57,1.67-.19.12-.43.19-.65.21-.48.03-.88.22-1.26.5-1.29.92-2.59,1.81-3.89,2.72-.28.02-.47.23-.71.34-.58.27-1.08.79-1.77.02-.35-.39-1.07-.27-1.62-.07-2.41.91-4.78,1.93-7.11,3.03-.73.35-1.46.46-2.25.37-.45-.07-.13-.41-.2-.6.17-.12.08-.33.16-.48-.03-.55-.5-.85-.72-1.3-.08-.17-.27-.29-.23-.51Z"/><path class="cls-35" d="m18.23,11.6c.32.09.3.36.3.6.02.91.02,1.82.04,2.73,0,.18.05.36.07.54,0,.11.04.29,0,.32-.39.22-.3.59-.3.93,0,.35-.12.38-.43.26-1.17-.47-2.31-.97-3.39-1.62-.4-.24-.89-.32-1.33-.48-.17-.06-.32-.17-.47-.27-.25-.16-.48-.32-.82-.24-.16.04-.37-.1-.55-.18-.42-.21-.82-.34-1.33-.18-.43.13-.81-.21-1.15-.44-.27-.18-.5-.25-.69-.01-.19.23-.6-.04-.67.36-.1-.08-.2-.15-.29-.23-1.36-1.15-2.82-2.15-4.33-3.07-.74.05-1.04-.91-1.81-.79-.13-.3-.41-.68.02-.89.6-.3.83-1.4,1.81-.88,3.74,1.96,7.48,3.92,11.23,5.88.18.09.4.11.6.17.32-.09.52.15.75.29.27.16.53.31.89.3-.19-.33-.48-.41-.76-.47-.5-.1-.64-.3-.27-.71.82-.84,1.85-1.38,2.89-1.9Z"/><path class="cls-35" d="m44.55,25.65c-.35-1.64-1.83-1.15-2.85-1.52-.1-.04-.34,0-.35.04-.07.42-.44.8-.2,1.28.12.23.2.47.3.71-.21.15-.4.64-.53.48-.29-.36-.61-.75-.73-1.23-.34-1.4-.24-2.9-.76-4.24-.35-.89-.15-2.12-1.2-2.62-.59-.28-1.32-.24-1.93-.59-.42-.24-.76-.42-.52-.97.8-.6,1.6-1.2,2.39-1.79.16,0,.23-.4.46-.1,1.01,1.15,1.79,2.44,2.37,3.86.17.41.34.83.44,1.26.08.31.24.51.5.67-.1.39.13.63.4.83.41.31.87.55,1.27.86.21.16.32.34.36.61.09.55.47,1.01.58,1.56.04.23.15.44.14.68,0,.1.04.25-.16.24Z"/><path class="cls-35" d="m38.63,15.08c-.15.03-.31.07-.46.1.04-.08.09-.16.25-.46-.82.49-1.44.86-2.07,1.25-.56.35-1.11.71-1.67,1.06-.43.27-.83.61-1.3.78-.36.13-.8.06-1.2.02-.15-.02-.24-.23-.07-.39.13-.12.36-.2.15-.42-.16-.17-.29-.44-.61-.2-.05.04-.21-.02-.3-.06-.03-.01-.04-.17-.03-.17.08-.03.17-.04.26-.06.08-.02.17-.04.24-.15-1.37.22-2.71.75-4.12.41,1.77.06,3.1-1.13,4.66-1.66,1.85-.62,3.5-1.83,5.5-2.02.45-.04.98-.11,1.26.55.13.3.58-.06.87-.16.39-.13.68-.55,1.16-.4-.75.54-1.5,1.09-2.25,1.63-.13.09-.32.13-.28.35Z"/><path class="cls-35" d="m40.06,46.26c.53-4.02.96-8.04,1.31-12.09.27.4.19.95.73,1.11.18.05.38.08.57.07.43-.02.86-.11,1.28-.09.23.01.36.13.4.5.08.62-.14,1.18-.13,1.77,0,.16-.08.31-.11.47-.03.16-.11.36-.05.48.38.68-.03,1.37.04,2.05.02.19-.05.39-.07.59-.01.18-.05.32-.25.38-.16.04-.41-.07-.42.22-.01.27.31.12.4.27-.33.43-.57.89-.62,1.5.7-.49,1.35-.93,1.99-1.38-1.43,1.72-3.11,3.12-5.08,4.16Z"/><path class="cls-35" d="m31.1,14.19c.53-.23,1.06-.47,1.59-.7.86-.53,1.64-1.22,2.69-1.4,3.8-1.95,7.6-3.88,11.38-5.88,1.02-.54,1.86-.98,2.82.1.47.53.51.96.16,1.51-.27-1.19-1.04-.92-1.81-.62-4.92,1.95-9.56,4.51-14.33,6.78-.7.33-1.37.73-2.11.97-.3.09-.63.17-.8-.15-.19-.37.2-.46.42-.61Z"/><path class="cls-35" d="m44.28,30.93c.16-.1.33-.21.49-.31.13-.08.09-.14.03-.27-.23-.48-.24-.95.11-1.41.11-.15.09-.39.13-.59.43.02.44.41.54.68.92,2.42,1.06,4.98,1.24,7.52.05.69-.06,1.39.13,2.08-.14.83-.42,1.6-.89,2.29-.16-.2-.3-.09-.46.02-.13.1-.27.21-.42.24-.12.02-.3-.04-.38-.13-.06-.06-.03-.25.02-.36.27-.6.39-1.21.25-1.87-.03-.12.07-.28.12-.42.04-.14.17-.35.12-.41-.39-.49-.05-1.01-.06-1.5-.01-.56-.12-1.08-.37-1.58-.15-.3-.23-.58-.02-.89.12-.18.1-.35-.14-.42-.3-.1-.3-.29-.21-.55.11-.32.07-.68.42-.92.13-.09.12-.48.06-.69-.11-.35-.46-.32-.76-.31-.05-.08-.04-.14.04-.2Z"/><path class="cls-35" d="m46.96,38.62c-.29-.23-.32-.54-.32-.89-.04-3.1-.25-6.18-1.4-9.11-.04-.1-.13-.18-.19-.27-.17-.9-.33-1.79-.5-2.69-.03-.72-.23-1.37-.62-1.98-.05-.08-.15-.18-.13-.26.17-.8-.59-.86-.97-1.21-.24-.22-.59-.33-.8-.56-.18-.19-.59-.47-.08-.78.3.11.61.21.91.34,1.07.49,1.69,1.36,2.1,2.46.93,2.52,1.73,5.08,2.05,7.76.09.78.11,1.58.17,2.37.05,1.18.06,2.36,0,3.54l-.19,1.28Z"/><path class="cls-35" d="m31.1,14.19c-.06.23-.52.32-.3.59.2.24.52.09.78-.04,2.46-1.21,4.9-2.47,7.39-3.63,2.84-1.32,5.57-2.85,8.53-3.9.4-.14.72-.43,1.2-.41,1.02.05,1.02.01,1.03,1.02-.07.06-.13.13-.2.19,0-.06-.02-.12-.02-.19,0-.52-.28-.71-.73-.47-.38.2-.74.44-1.11.66-.59.36-1.17.72-1.75,1.1-.27.18-.44.48-.8.54-.14.02-.15,0-.27-.05-.24-.13-.54-.13-.82-.17-.04,0-.14.1-.13.12.03.08.08.18.15.22.14.08.37.11.2.34-.14.18-.32.17-.45-.03-.14-.21-.33-.21-.52-.13-.73.27-1.45.55-2.18.82-.12.05-.25.09-.37.15-1.49.64-2.98,1.27-4.46,1.94-.81.37-1.59.81-2.39,1.18-1.09.51-2.2.97-3.29,1.47-.6.27-1.19.58-1.79.86-.16.08-.35.09-.53.14-.14.04-.3.07-.33-.1-.02-.12.02-.31.11-.38.54-.45,1.07-.92,1.67-1.3.41-.26.91-.37,1.37-.54Z"/><path class="cls-35" d="m35.37,12.09c-.9.47-1.79.93-2.69,1.4.56-.7.56-.72-.32-.92-.8-.18-1.61-.34-2.24-.95-.15-.15-.44-.29-.35-.48.11-.22.37-.43.6-.52.28-.11.61-.1.92-.14,1.3.22,2.47.79,3.62,1.4.14.08.29.13.44.2Z"/><path class="cls-35" d="m14.84,47.65c-.06-.57-.13-1.14-.19-1.71-.19-1.82-.39-3.65-.58-5.47-.03-.29,0-.59.19-.9.2,1.33.41,2.66.58,3.99.11.88.14,1.77.25,2.65.01.1.23.18.36.27-.35-.04-.33.17-.31.42.03.3.13.63-.3.75Z"/><path class="cls-35" d="m1.08,9.81c.18-.33.4-.2.61-.05.4.28.8.56,1.2.84.38.32.77.64,1.15.97.17.15.45.2.45.5-1.4-.36-2.49-1.18-3.41-2.26Z"/><path class="cls-35" d="m15.35,13.49c-.04.14-.08.28-.12.42.55.16,1.15.24,1.47.78.13.22-.58.26-1.06-.02-.2-.11-.38-.25-.57-.38-.11-.07-.22-.14-.33-.21.2-.2.41-.39.61-.59Z"/><path class="cls-35" d="m18.35,4.61c.02,1.07.05,2.14.07,3.21-.02-1.07-.05-2.14-.07-3.21Z"/><path class="cls-35" d="m11.07,19.37c.2.18.4.37.17.65-.13.15-.29.24-.39-.05.07-.2.15-.4.22-.6Z"/><path class="cls-35" d="m36.75,36c-.16.2-.32.4-.48.59-1.38.54-2.85.52-4.3.65-.85.08-1.71.01-2.57.01-1.02.17-1.84-.38-2.69-.79-.39-.07-.66-.43-1.07-.45-1.05-.32-2.13-.11-3.2-.16-.15,0-.29.06-.42.13-.18.07-.35.17-.51.26-1.37,1.55-3.2,1.17-4.93,1.2-.23,0-.46-.01-.69.01-.53-.01-1.04-.12-1.54-.28-.26-.21-.63-.22-.89-.45-.92-1.15-.43-2.55-.7-3.82-.15-.16-.08-.38-.14-.56-.13-.42.02-.56.44-.44.54.05,1.08.09,1.63.14.28.15.2.42.21.66.03.63-.1,1.28.24,1.87.45.59,1.06.87,1.78.98.73.11,1.45.14,2.17-.04.96-.24,1.48-.88,1.63-1.84.09-.31-.01-.63.06-.95,0-.11,0-.22,0-.34,0-.12.04-.23.12-.32.16-.1.33-.17.51-.2,1.45-.02,2.9-.1,4.34-.22.23-.02.46-.02.65.15.16,0,.33,0,.49.01.21-.08.41-.09.29.21-.29.69-.13,1.31.2,1.92.35.44.68.9,1.25,1.09,1.52.54,3.02.39,4.5-.12.8-.28,1.21-.87,1.32-1.68.14-.46.07-.92,0-1.39-.07-.25-.03-.46.26-.54.18-.05.31-.18.45-.29.7-.1,1.39-.2,2.09-.31.4.63.14,1.31.15,1.97,0,.78,0,1.55,0,2.33,0,.06,0,.12,0,.18-.08.38-.29.66-.66.8Z"/><path class="cls-35" d="m14.15,30.93c-.26-.03-.52-.06-.78-.1-.25-.04-.4.07-.47.32-.3-.69.51-3.42.9-4.05.68-1.12,1.8-1.76,2.59-2.73.49-.6-.24-.93-.65-.97-1.05-.11-1.39-.6-1.19-1.59.03-.15-.08-.33-.14-.49,0,0-.16.02-.16.05-.03.17-.08.36-.05.52.14.81-.23,1.43-.73,2.24-.07-.35-.1-.48-.12-.61-.09-.25-.1-.46.2-.57.36-.23.55-.63.39-.95-.33-.63.09-1.39-.72-2.18.13.09-.37,1.43-.27.09,0-.04-.12-.09-.18-.13-.06.1-.16.19-.18.3-.04.14-.05.29-.22.25-.07-.02-.14-.15-.17-.25-.05-.12.05-.27-.24-.23-.25.03-.39-.29-.41-.52-.04-.45.32-.75.56-1.07.15-.19.29.11.43.2.88.6,1.41,1.63,2.29,2.15.73.42,1.22,1.14,2.03,1.41.16.05.4.27.38.39-.09.69.38.38.7.44-.05-.18-.08-.31-.15-.54.22.15.34.23.51.34.05-.18.08-.33.12-.48.3.13.26.44.32.67.09.33.27.52.56.7.54.33,1.1.66,1.53,1.14.15.46,1.28,1.37,1.74,1.41.15.01.27.09.39.18.25.22.3.57.52.83.22.25-.15.56-.67.53,1.61.17,2.09.69,2.09,2.29,0,.08-.02.2.05.23,1.92.92-.48.79-.31,1.27-1.16.3-2.32.6-3.54.33-.9-.49-1.85-.32-2.79-.21-.32.03-.63.21-.94,0-.41,0-.83.02-1.24,0-.6-.03-1.19-.1-1.79-.13-.13,0-.27.1-.41.12-.14.02-.32.03-.33-.19,0-.18.14-.2.28-.2.17,0,.33,0,.5,0,.1-.15.32-.18.36-.41-.24-.05-.37.15-.56.21Z"/><path class="cls-35" d="m14.33,37.02c.51.1,1.01.2,1.52.3,1.08.11,2.17.1,3.26.13.87.02,1.51-.49,2.12-1.03.07-.06.13-.15.22-.19.05-.01.1-.03.15-.04.33-.11.77-.16.88.16.11.35-.36.3-.62.41.47-.04.92-.03,1.36-.02.29,0,.66-.04.74.34.09.41-.36.35-.55.51-.62,0-1.21.18-1.82.31-.03,0-.06,0-.07.03-.31.28-.61.59-.99.78-.27.13-.54.26-.81.39-1.54.22-3.07.16-4.59-.18-.33-.07-.66-.14-.99-.22-.07-.02-.13-.11-.19-.17.14-.39-.25-.75-.09-1.12.07-.17.06-.56.46-.37Z"/><path class="cls-35" d="m19.93,46.87c.33-.83.64-1.66.99-2.49.16-.38.12-.99.94-.6.23.11.85-.56,1.27-.89.15-.12.25-.29.38-.44.12-.14.38-.31.36-.41-.07-.27-.37-.09-.56-.15,0-.14.1-.18.2-.22,1.11-.07,2.08.31,3,.9.36.22.24.63.02.65-.93.06-1.35.95-2.14,1.19-.4.13-.82.08-1.22.18-.07.02-.15.03-.23.03-1-.19-1.26.62-1.66,1.23-.22.34-.28.77-.56,1.09-.07.05-.15.06-.23.08-.21.02-.41.02-.55-.17Z"/><path class="cls-35" d="m21.6,37.9c.55-.4,1.21-.29,1.82-.4.57-.2,1.16-.23,1.75-.15.58.21,1.18.39,1.72.71.16.09.31.19.41.34.15.26.27.53.14.86.41-.13.66.02.57.43-.2.9-.02,1.79-.03,2.68,0,.39-.11.66-.47.77-.37.11-.64-.07-.77-.43-.01-.13.08-.22.13-.33.26-.45-.11-.61-.38-.81-.8-.58-1.81-.53-2.68-.88.1-.09.24-.27.3-.24.32.12.56-.11.83-.13.46-.02.22-.24.17-.42.37-.2.56.16.83.26.27.09.56.4.8-.04.15-.37-.09-.56-.34-.73-.68-.45-1.44-.62-2.25-.62-.35,0-.73.13-1.03-.18.07-.23.01-.43-.18-.65.41-.02.75-.04,1.32-.07-1.05-.39-1.84.12-2.65.03Z"/><path class="cls-35" d="m20.74,24.74c-.4-.29-.77-.67-1.21-.84-.84-.32-1.03-.99-1.15-1.74-.01-.1-.03-.2-.04-.31,0-.17.01-.33.02-.5.05-.05.13-.09.18-.06.53.37,1.21.5,1.63,1.03.38.49.89.84,1.35,1.23.59.5,1.1,1.05,1.34,1.8.07.31.29.56.36.87-.03.04-.05.07-.08.11-.1.08-.2.05-.31.03-.1-.08-.21-.16-.31-.25-.11.01-.19-.03-.27-.1-.51-.43-1.05-.81-1.51-1.3Z"/><path class="cls-35" d="m23.12,38.59c.48,0,.96,0,1.44.02.83.04,1.58.3,2.23.84.28.23.36.51.11.82-.84.42-1.29-.52-2-.56-1.19-.23-2.31-.14-3.29.68-.22.14-.43.14-.61-.06-.18-.2-.21-.43-.07-.67.09-.16.19-.3.31-.44.52-.52,1.21-.55,1.88-.62Z"/><path class="cls-35" d="m23.81,40.7c1.08.02,2.09.26,2.99.88.45.3.48.45.2.93-.33.18-.62.08-.92-.11-.79-.48-1.65-.71-2.58-.61-.06.03-.13.07-.19.1-.55.13-1.1.25-1.52.66-.24.18-.5.18-.7-.03-.21-.21-.21-.47-.06-.73.75-.81,1.77-.97,2.79-1.09Z"/><path class="cls-35" d="m13.53,22.95c-.07.19-.13.38-.2.57-.09.07-.17.15-.26.2-.63.38-.99.29-1.5-.37-.09-.22-.24-.43-.29-.66-.09-.41-.02-.8.28-1.13h0c.21-.26.27-.63.61-.78.62-.33,1.35.12,1.4.9.03.42-.01.85-.02,1.27Z"/><path class="cls-35" d="m10.07,40c.89.28.46,1.13.73,1.69.08.16,0,.2-1.2.2-.25-.05-.41-.19-.45-.45-.05-.36-.11-.71-.17-1.06-.05-.29.06-.45.37-.42.24.02.49-.06.73.05Z"/><path class="cls-35" d="m9.94,36.84c.1.66.19,1.31.29,1.97-.39.1-.79.02-1.18.04-.18.01-.28-.09-.31-.25-.09-.52-.16-1.04-.21-1.57-.01-.14.02-.28.21-.26.4.03.82-.09,1.21.07Z"/><path class="cls-35" d="m8.36,30.45s.07,0,.1-.02c.77-.17,1.18.06,1.01.93-.02.09-.02.21.01.29.41,1.14-.49.67-.93.76-.58-.61-.22-1.3-.19-1.96Z"/><path class="cls-35" d="m8.39,33.54c1.11-.07,1.74.64,1.34,1.64-.17.41-.76.08-1.16.14-.23-.58-.35-1.16-.18-1.78Z"/><path class="cls-35" d="m9.67,27.54c-.03.35-.1.69-.09,1.03.03.84-.42.87-1.04.67-.21-.28-.1-.58-.02-.86.12-.44.03-.93.36-1.31.14-.06.29-.04.44-.04.35,0,.48.15.35.49Z"/><path class="cls-35" d="m17.34,31.53c1.14-.17,2.29-.28,3.45-.2.21.01.45.08.34.4-.35.24-.76.33-1.17.44-.31-.03-.66.13-.93-.15.27-.04.54-.09,1.02-.17-.72-.28-1.18-.58-1.78-.04-.29.26-.78.34-.94-.27Z"/><path class="cls-35" d="m15.03,34.71c-.51-.83-.15-1.77-.35-2.65.15,0,.3-.01.45-.02,1.66.07,3.33.05,4.99,0,.27,0,.56-.16.8.09,0,.1,0,.2,0,.3-1.24.1-2.48.06-3.72-.01-.61-.04-1.22-.08-1.82.01-.15.04-.28.11-.33.26-.08.53.03,1.04.13,1.55.03.17.11.37-.14.45Z"/><path class="cls-35" d="m9.94,36.84c-.44-.08-1.17-.21-1.23.06-.13.56-.04,1.27.22,1.78.19.37.85.12,1.3.14-.52.2-1.26.32-1.5-.06-.32-.49-.47-1.32-.26-1.83.18-.46.95-.32,1.47-.08Z"/><path class="cls-35" d="m15.14,38.91c1.52.2,3.05.26,4.59.18-1.18.4-2.37.23-3.55.05-.34-.05-.77.16-1.04-.24Z"/><path class="cls-35" d="m9.67,27.54c0-.68-.46-.37-.78-.37-.38.33-.25.82-.38,1.22-.09.28.03.59-.16.85-.41-.66-.24-1.36-.03-2,.12-.37.65-.31,1.02-.29.38.02.55.21.33.59Z"/><path class="cls-35" d="m16.27,19.76c.47-.03.69-.05.92-.06.11,0,.23.01.35.02-.04.17-.05.36-.13.51-.07.14-.22.13-.34.01-.14-.14-.27-.19-.48-.1-.11.05-.3-.05-.44-.1-.04-.02-.06-.19-.04-.2.12-.08.26-.12.17-.08Z"/><path class="cls-35" d="m14.33,37.02c-.73.48-.22,1.03-.09,1.59-.1-.03-.19-.06-.28-.09-.17-.59-.34-1.18-.51-1.77.34-.07.61.11.88.28Z"/><path class="cls-35" d="m8.36,29.25c.04-.57.08-1.13.1-1.7.01-.29.14-.42.43-.37-.12.69-.24,1.39-.35,2.08-.06,0-.12,0-.18,0Z"/><path class="cls-35" d="m10.07,40c-.32.14-.92-.19-.95.2-.03.56-.06,1.23.47,1.69-.21.02-.47.1-.52-.21-.08-.55-.27-1.14-.14-1.65.06-.25.73-.19,1.13-.03Z"/><path class="cls-35" d="m20.92,32.14c-1.93-.03-3.86-.07-5.79-.1,1.05,0,2.11,0,3.16,0,.25,0,.49-.01.74-.02.34,0,.67,0,1.01,0,.25-.05.51-.08.76-.13.18-.04.4-.05.53.16-.14.03-.27.06-.41.09Z"/><path class="cls-35" d="m13.05,31.92c-.23,0-.4.02-.32.34.05.21.02.44.02.67-.05-.03-.15-.06-.16-.1-.04-.32-.18-.55-.48-.69-.07-.03-.09-.18-.13-.28.08-.02.17-.06.25-.05.27.03.55.07.82.11Z"/><path class="cls-35" d="m8.36,30.45c.12.65-.25,1.34.19,1.96-.53.03-.44-.36-.38-.65.09-.44-.26-.94.2-1.32Z"/><path class="cls-35" d="m14.15,30.93c.08-.1.15-.22.25-.3.11-.08.24-.14.37-.17.04,0,.17.14.16.19-.04.15-.1.31-.2.41-.08.07-.25.05-.38.07-.07-.07-.13-.13-.2-.2Z"/><path class="cls-35" d="m21.24,39.22c-.1.46-.77,1.1.37,1.17-.2.29-.46.23-.68.06-.24-.19-.3-.48-.14-.75.11-.19.3-.32.45-.48Z"/><path class="cls-35" d="m11.56,21.56c-.02.11,0,.25-.06.33-.24.33-.15.65-.03.98.05.15.07.31.1.47-.35-.32-.45-.73-.42-1.19.02-.29.11-.5.4-.6Z"/><path class="cls-35" d="m24.89,39.71c.74-.08,1.21.82,2,.56-.2.3-.46.28-.74.15-.35-.17-.7-.35-1.05-.52-.07-.06-.15-.13-.22-.19Z"/><path class="cls-35" d="m8.39,33.54c.06.59.12,1.18.18,1.78-.33-.56-.61-1.13-.18-1.78Z"/><path class="cls-35" d="m21.02,41.79c0,.51.06.95.76.76-.25.31-.57.38-.83.08-.21-.25-.32-.59.06-.84Z"/><path class="cls-35" d="m12.16,20.78c-.14.31-.23.66-.61.78,0-.65.07-.73.61-.78Z"/><path class="cls-35" d="m20.54,38.71c.33-.26.66-.52.99-.78.05.1.1.2.17.35-.56-.22-.68.53-1.16.42Z"/><path class="cls-35" d="m21.33,32.05c-.43,0-.86-.02-1.29-.03.36-.1.72-.19,1.09-.29,1.01-.1,2.03-.19,3.04-.31.24-.03.46-.12.62-.36.08-.12.31-.15.46-.23.11-.06.2-.15.29-.23-.1-.05-.2-.14-.31-.16-.6-.08-.64-.14-.5-.72.04-.16.04-.37-.02-.52-.14-.37-.32-.72-.51-1.07-.21-.39-.62-.31-.97-.36-.23-.04-.46,0-.69-.02-.11,0-.32.05-.25-.18.04-.15.17-.17.33-.12.15.05.33.11.47.07.12-.03.25-.17.29-.29.05-.18-.11-.24-.27-.27-.31-.06-.65-.13-.11-.42-.06-.05-.11-.1-.17-.15.1-.01.21-.02.31-.03,2.36.35,4.34-.89,6.43-1.6,1.84-.63,3.9-.03,5.36,1.3,1.11,1.01,2.23,2.02,3.28,3.09.29.3.47.72-.01.95-.36.17-.78.39-1.21-.16-.35-.44-.8-.75-.79-1.38,0-.06-.21-.18-.31-.17-.34.04-.25.41-.4.63-.9-1.3-1.08.26-1.11.4-.33,1.29-1.49,1.1-2.34,1.41-1.25.45-2.6.13-3.85.38-.55.11-1.36-.08-1.76.61-1.69.08-3.38.15-5.08.23Z"/><path class="cls-35" d="m35.78,16.98c.11.63,1.24,1.26,1.85,1.17.61-.09,1.01.39,1.42.77-.05,1.16.72,2.1.83,3.22.12,1.11.34,2.22.46,3.33.04.37.37.26.47.42.1.17.05.44.08.74.2-.22.24-.55.56-.48,0,1.84,0,3.69,0,5.53-.14-.33-1.18-.27-.51-.95-.41-1.19-1.05-2.28-1.17-3.53-.14-1.47-.49-2.89-.75-4.34-.14-.78,0-1.61-.55-2.29-.25-.12-.4-.31-.41-.6.03-.68-.59-.81-.98-.91-.84-.22-1.55-.89-2.51-.7-.24.05-.39-.1-.19-.31.4-.44.78-.91,1.39-1.07Z"/><path class="cls-35" d="m37.27,47.07c-.1.03-.2.07-.3.1-.46.34-.93.23-1.41.05-.26-.42-.07-.88-.14-1.32-.06-2.64-.17-5.28.27-7.91.02-.12.02-.24.08-.35.05-.08.11-.14.21-.15.13.13.13.46.46.29.31-.16.22-.39.07-.71.55.14,1.05.12.96.89-.32,2.78-.22,5.58-.12,8.37,0,.24-.06.49-.1.73Z"/><path class="cls-35" d="m27.02,16.78c.32.14.65.27.96.42,1.1.55,1.87,1.41,2.36,2.54.14.32.41.27.63.17.39-.17.76-.4,1.14-.6.26-.14.51-.22.78,0,.33.28.51.52.13.92-.29.3-.55.59-.95.76-.42.18-.61.62-.77,1.04-.02.06-.01.13-.01.2.04.92-.55,1.19-1.32,1.32-.34.06-.68.15-.98.31-.58.32-1.11.72-1.69,1.03-.81.43-1.62.85-2.47,1.19-.28.11-.67-.03-1.01-.06-.01-.13.09-.17.18-.21,2.24-.32,3.66-2.1,5.51-3.11.4-.22.5-.9.62-1.45-.31-.05-.52.11-.75.17-.42.1-.62-.02-.73-.43-.03-.11-.06-.23-.06-.34-.04-1.38-.93-2.36-1.61-3.45-.08-.15-.11-.3.05-.43Z"/><path class="cls-35" d="m23.62,26.04s-.08.01-.11.02c-.11.06-.24.02-.23-.08.04-.44-.13-.87.14-1.33.62-1.04,1.4-1.91,2.38-2.61.18-.13.3-.3.43-.47.34-.45.81-.59,1.35-.41.19.13.17-.44.42-.13.22.71.76,1.42.04,2.15-1.51.9-2.96,1.88-4.42,2.86Z"/><path class="cls-35" d="m37.07,22.72c-1.08.53-1.67.12-2.18-.46-.33-.5-.42-1.03-.22-1.59.45-.85,1.21-1.06,2.09-1.03.05-.02.09-.01.13.02-.4.94.32,1.82.14,2.75-.02.09.14.19.03.31Z"/><path class="cls-35" d="m27.59,21.27c-.61-.14-1.01.03-1.37.61-.26.42-.8.66-1.2,1.01-.52.45-.95.97-1.29,1.57-.07.12-.15.24-.22.36,0,.01-.03.02-.04.03-.05.08-.15.23-.14.24.34.28-.15.69.16.96-.09.06-.19.12-.28.18-.43-.1-.34-.52-.49-.79-.09-.26-.08-.54-.23-.79-.14-.24.06-.4.21-.55.63-.67,1.3-1.32,1.98-1.94.53-.49,1.04-1.02,1.57-1.51.69-.65.91-.62,1.37.2.04.15.12.29-.02.43Z"/><path class="cls-35" d="m42.06,27.34c-.03-.41-.08-.81-.1-1.22,0-.1.07-.2.11-.29.61-.22,1.37-.47,1.81-.03.48.48.45,1.4.17,1.97-.28.57-1.1.3-1.69.3-.55,0-.1-.52-.3-.73Z"/><path class="cls-35" d="m41.99,33.41c-.28-1.56,1.06-1.03,1.88-1.19.38-.07.28.22.28.42-.05,1.54-.24,1.72-1.84,1.69q-.34,0-.32-.92Z"/><path class="cls-35" d="m36.75,36c.18-.23.36-.45.53-.68.7-1.53,1.27-3.08.77-4.8.6-.24.94-.07.9.6-.06,1.2-.06,2.41-.24,3.59-.16,1.05-1.1,1.17-1.97,1.29Z"/><path class="cls-35" d="m35.18,31.04c.14.52-.6.28-.59.68-.91.36-1.87.11-2.81.24-1.15.16-2.34.09-3.48.31-1.08.21-1.07.28-.93,1.38.02.16.1.32-.05.47-.4-.49-.6-1.55-.27-2.09.18-.29-.07-.16-.14-.2,1.01-.09,2.01-.19,3.02-.28,1.75-.17,3.51-.34,5.26-.51Z"/><path class="cls-35" d="m42.26,29.16l.99-.12c.95-.17.96-.17.94.75,0,.44.08.89-.06,1.32-.09.01-.17.02-.26.04-.07,0,.02,0-.05.01-1.69.13-1.92-.16-1.56-2Z"/><path class="cls-35" d="m37.07,22.72c-.31-.27-.41-.58-.24-.98.18-.44-.03-.83-.24-1.2-.23-.4-.26-.72.29-.86.55-.14,1.14.36,1.29.96.13.54.14,1.08-.3,1.52-.26.19-.53.38-.79.57Z"/><path class="cls-35" d="m38.06,30.52c.32-.02.45.13.41.45-.11.94-.16,1.88-.33,2.81-.09.5-.37.97-.58,1.45-.03.06-.18.07-.27.1,0-.04.01-.07.02-.11-.04-1.54.14-3.07.36-4.59.13-.03.27-.07.4-.1Z"/><path class="cls-35" d="m23.62,26.04c.31-.28.59-.61.93-.83,1.1-.71,2.23-1.38,3.35-2.07.07.05.09.12.09.2-1.08,1.25-2.38,2.15-3.98,2.6-.06.03-.13.06-.19.1-.07,0-.13,0-.2,0Z"/><path class="cls-35" d="m35.99,37.51s-.07.06-.1.1c-.64-.84-1.45-.23-2.15-.19-1.66.1-3.32.18-4.98-.03-.12-.12-.08-.19.07-.22.15-.03.31.02.47-.03,2.11.03,4.21-.12,6.3-.41.23-.03.42-.31.68-.12-.09.3-.19.61-.28.91Z"/><path class="cls-35" d="m27.59,21.27c-.03-.14-.06-.28-.09-.42-.59-1.62-.83-3.32-1.05-5.02.03-.09.11-.13.2-.15.23-.02.4.06.44.31.28.29-.1.52-.06.79.03.14.05.27.08.41.52,1.07.6,2.26.92,3.39,0,.15,0,.29-.14.39-.04.16-.08.32-.14.53-.06-.09-.11-.16-.16-.23Z"/><path class="cls-35" d="m42.06,27.34c.16,1.34,1.12.6,1.68.55.67-.06.19-.65.23-1.02.18-1.84-1.14-.91-1.89-1.04.4-.62,1.1-.13,1.62-.43.16-.09.57.32.55.74,0,.15,0,.3,0,.45,0,1.53-.5,1.92-2,1.54-.56-.14-.15-.52-.19-.79Z"/><path class="cls-35" d="m37.66,30.63c.26.24.12.56.09.81-.17,1.2-.47,2.38-.38,3.6,0,.06-.04.12-.06.18-.01-1.5-.02-2.99-.03-4.49.13-.04.26-.07.39-.11Z"/><path class="cls-35" d="m37.86,22.15c.22-.51.31-1,.11-1.56-.19-.55-.58-.79-1.1-.91-.04-.01-.07-.02-.11-.03.53-.28.9.09,1.3.33.14.2.27.4.41.6-.07.4-.11.82-.23,1.21-.04.15-.26.25-.39.37Z"/><path class="cls-35" d="m42.26,29.16c0,.07,0,.13,0,.2-.23,1.29.07,2.1,1.61,1.79-.49.06-.97.12-1.46.18-.14.02-.29-.01-.28-.19.05-.66-.13-1.33.12-1.97Z"/><path class="cls-35" d="m27.09,15.99c-.12-.07-.25-.14-.37-.21-.04-.05-.05-.09-.01-.14.39-.31.7-.16,1,.15.13.23.07.36-.2.4-.05-.25-.25-.19-.42-.19Z"/><path class="cls-35" d="m44.13,31.12c0-.59.06-1.18,0-1.76-.06-.66-.62-.1-.89-.31.89-.27,1-.2,1,.7,0,.4.02.79.02,1.19-.01.07-.03.13-.04.2-.04,0-.07,0-.11-.01Z"/><path class="cls-35" d="m34.67,20.67c-.06.55.05,1.08.22,1.59-.49-.47-.57-1-.22-1.59Z"/><path class="cls-35" d="m26.51,15.81c.19.77.41,1.52.56,2.3.18.91.29,1.83.44,2.75-.33-.71-.68-.58-1.16-.09-.97.99-1.95,1.97-3,2.89-.59.52-.87,1.04-.62,1.8-.63-1.43-3.31-3.88-3.91-3.55-.15-.18-.07-.56-.45-.54-.12-1.87.46-3.61.98-5.37.18-.13.4-.12.61-.16,1.15.04,2.29,0,3.43-.19.12-.03.24-.04.37-.02.77.04,1.54.02,2.31,0,.19,0,.36-.02.46.18Z"/><path class="cls-35" d="m25.32,6.14c.14.16.28.32.42.48.25,1.01.3,2.05.35,3.07.05,1.21.21,2.42.14,3.64-.03.48-.18.9-.58,1.07-1.39.61-2.85.44-4.3.31q.1-.16.41-.14c-.04-.09-.11-.03-.16-.04-.08-.02-.16,0-.22-.03-.31-1.93,0-3.87-.22-5.79-.23-1.98,1.13-2.53,3-2.47.4.01.78.06,1.15-.11Z"/><path class="cls-35" d="m21.35,14.61c1.31.06,2.62.08,3.9-.19.62-.13.91-.68.88-1.34-.12-2.15-.26-4.31-.38-6.46.43.34.3.95.29,1.29,0,.82.55,1.62.1,2.44-.02.04-.03.13-.01.14,1.15.83-.13,1.82.17,2.73.09.28.16.52.42.68.56.3.51,1.13,1.19,1.37.12.04.08.42-.19.53-.33.03-.61-.35-.97-.11-1.01,0-2.02-.01-3.02.1-.1,0-.19,0-.29.01-1.16.11-2.34.04-3.5.18-.2,0-.39.01-.59.02.11-.1.21-.19.35-.32-.13-.09-.26-.2-.41-.28-.11-.06-.24-.12-.14-.25.06-.08.23-.12.32-.1.13.04.25.22.38.07.05-.06-.06-.23-.06-.36-.02-.36-.24-.76.24-1.01.05-.03.08-.22.05-.3-.24-.55-.26-1.1-.17-1.69.08-.47.07-.97,0-1.44-.05-.33-.04-.63.06-.92.26-.78.26-1.55.02-2.33-.11-.35.02-.5.45-.56-.05,2.21.12,4.42.05,6.63-.01.43.12.78.44,1.06.18.09.31.24.43.39Z"/><path class="cls-35" d="m21.35,14.61c-.14-.07-.28-.14-.43-.21-.78-.96-.39-2.12-.47-3.18-.09-1.24-.06-2.49-.08-3.73-.01-.94.47-1.46,1.4-1.52.86-.06,1.72-.15,2.58-.14.3,0,.64-.04.86.28.03.01.07.03.1.04-.07.09-.17.17-.2.27-.06.2-.17.23-.34.16-.74-.32-1.47-.11-2.22.02-.53.09-.8.48-1.11.83-.06.07-.08.2-.08.31.02.87.05,1.75.06,2.62,0,.35-.01.7-.02,1.05-.01.69-.05,1.39-.03,2.08,0,.23.09.49.21.69.15.24-.11.2-.16.31.16.01.3.02.45.03,0,.02,0,.03,0,.05-.18.02-.35.04-.53.05Z"/><path class="cls-35" d="m29.21,9.8c.06.47-.11.7-.61.8-.58.11-.45-.35-.6-.6.18-1.69-.62-3.39,0-5.08.86.43.93.6,1.08,2.9.04.66.08,1.32.12,1.98Z"/><path class="cls-35" d="m25.21,6.1c-1.41-.38-2.81-.19-4.17.24-.4.13-.54.59-.53,1.05.05,1.99.07,3.98.13,5.97.01.35.18.69.27,1.03-.34-.15-.53-.47-.54-.77-.05-2.24-.05-4.48-.07-6.73,0-.13.07-.25.11-.38,1.38-1.18,3.01-.66,4.56-.68.07,0,.15.17.23.27Z"/><path class="cls-35" d="m43.95,37.32c-.04.91-.79.42-1.19.6-1.35.36-1.19-.55-1.16-1.36.01-.19.03-.38.16-.54.29-.58.89-.15,1.29-.4.03-.02.06-.04.09-.04,1.7-.08.53,1.17.81,1.74Z"/><path class="cls-35" d="m41.37,40.01c.08-.29.08-.69.27-.84.21-.17.6-.11.91-.14.33-.03.66-.03.99-.06.24-.02.32.08.3.31-.05.44-.08.89-.1,1.34-.01.23-.12.33-.33.35-.59.05-1.19.09-1.78.14-.24.02-.33-.07-.3-.32.02-.16,0-.33,0-.49-.08-.11-.07-.2.03-.29Z"/><path class="cls-35" d="m41.77,36.02c0,.16-.01.31-.02.47-.09.51,0,1.03-.09,1.55.11.05.23.1.7.31-.63-.09-1.01-.1-1.02-.37-.04-.68.06-1.37.33-2.02l.11.06Z"/><path class="cls-35" d="m41.37,40.01c0,.1-.02.19-.03.29-.05.24-.1.47-.15.71-.23-.2-.24-1-.02-1.56.27.12.13.38.2.56Z"/><path class="cls-35" d="m41.66,38.04c.03-.51.06-1.03.09-1.55,0,.11.04.23.02.34-.19.85.1,1.25,1,1.1-.37.04-.74.07-1.11.11Z"/><path class="cls-35" d="m43.95,37.32c0-.23-.04-.46,0-.68.15-.75-.03-1.19-.9-1.02.25-.03.51-.09.76-.08.08,0,.24.15.23.23-.01.52-.06,1.03-.09,1.55Z"/><path class="cls-35" d="m34.59,33.33c-.07.84-.5,1.4-1.29,1.69-1.51.45-3.04.65-4.58.16-1.55-.88-1.78-2.08-.55-2.85.48-.3,1.04-.15,1.55-.22,1.19-.17,2.39-.25,3.59-.27,1.19-.02,1.44.29,1.28,1.5Z"/><path class="cls-35" d="m15.03,34.71c-.02-.72-.3-1.43-.15-2.17,1.9.66,3.84,1.12,5.87.98.15-.01.14.1.09.21-.12,1.41-1.19,2.17-3.01,2.1-1.06-.04-2.1-.17-2.8-1.12Z"/><path class="cls-35" d="m28.71,37.3c2.25,0,4.5.16,6.72-.37.64-.15.38.39.46.67,0,.1,0,.2-.01.3-.18.3-.46.33-.77.29-.22-.07-.15-.25-.16-.4-.65.26-1.37.32-2.02.3-.92-.03-1.84,0-2.7.23-1.56.4-2.75-.31-3.98-1.03-.41-.01-.77-.08-1.01-.49-.09-.17-.34-.21-.54-.23-.88-.08-1.72-.35-2.61-.38-.18,0-.32.03-.46.12-.03,0-.06,0-.09,0-.06-.06-.06-.12,0-.19.13-.07.26-.14.39-.22,1.27-.14,2.53-.13,3.8,0,.43-.09.64.33.99.42.6.48,1.31.71,2.01.97Z"/><path class="cls-35" d="m20.84,33.73s-.02-.03-.02-.04c0-.01-.02-.04-.02-.04-.78.42-1.55.05-2.31-.05-1.06-.14-2.1-.45-3.15-.63-.29-.05-.39-.19-.46-.42.09-.07.18-.15.26-.22.64-.1,1.27-.02,1.9.05.91.1,1.82.05,2.73.05.32,0,.62.08.94.09.18,0,.15.14.22.22-.03.33-.06.67-.08,1Z"/><path class="cls-35" d="m34.59,33.33c-.04-.42.08-.88-.34-1.18-.12-.08-.25-.21-.38-.2-.57.03-1.16-.14-1.71.13-.07.03-.16.03-.24.01-.67-.15-1.31.08-1.96.11-.34.02-.68.11-1.03.13-.59.03-1.17.41-1.38.94-.13.32.21,1.13.61,1.43.18.14.37.28.55.41-.07.07-.14.07-.22.01-.57-.13-.85-.59-1.18-1.01-.41-2.04-.4-2.02,1.68-2.1,1.86-.07,3.72-.2,5.59-.3.17.54.16,1.07,0,1.61Z"/><path class="cls-35" d="m21.53,36.12c0,.06,0,.13,0,.19-1.62,1.85-3.69,1.24-5.68,1.02.74,0,1.49-.04,2.23.03,1.36.13,2.46-.39,3.45-1.23Z"/><path class="cls-35" d="m20.93,32.73c-.32-.07-.63-.18-.95-.19-1-.03-2.01,0-3.01-.03-.61-.02-1.22-.12-1.83-.18,1.73-.2,3.46.07,5.19.06.2,0,.39.04.59.06,0,.1,0,.19,0,.29Z"/><path class="cls-35" d="m28.5,35.12c.07,0,.14,0,.22-.01,1.54.5,3.06.21,4.58-.09-.54.37-1.2.38-1.8.46-.9.12-1.82.09-2.7-.19-.11-.03-.2-.11-.3-.17Z"/><path class="cls-35" d="m25.71,35.91c-1.27,0-2.53,0-3.8,0,.26-.24.59-.18.89-.18.77,0,1.54,0,2.31.02.2,0,.4.11.6.17Z"/><path class="cls-35" d="m28.71,37.3c-.76-.14-1.51-.28-2.01-.97.22.09.48.15.67.28.58.42,1.24.51,1.92.52-.19.06-.39.11-.58.17Z"/><path class="cls-35" d="m15.33,31.13c.44-.26,1.17-.17,1.14-.74-.03-.49-.34-1.11-1.1-1.19-.29-.03-.5-.42-.87-.51-.16-.04-.39-.41-.34-.53.1-.26.33.02.51.03.28,0,.6,0,.76-.26.19-.33.21-.72,0-1.04-.63-.95.41-1.12.74-1.6.03-.05.36,0,.43.09.13.2.17.45.25.68-.15,0-.31,0-.46.01-.14.02-.28.04-.4.11-.03.02,0,.22.06.31.12.19.24.09.41.02.43-.18.38.24.36.41-.06.71.24.77.87.67.71-.12,1.39-.05,2,.58.56.58,1.61.43,2.18,1.17.14.18.28.3.25.53-.04.23-.13.34-.4.32-.09,0-.23.21-.27.35-.04.16.08.29.26.28.26-.03.21.14.21.29,0,.16-.1.27-.26.2-1.09-.46-2.22-.08-3.32-.15-1-.07-2-.01-3-.01Z"/><path class="cls-35" d="m20.74,24.74c.68.35,1.24.86,1.78,1.39-.03.06-.08.16-.09.16-.3-.15-.68-.24-.87-.48-.43-.53-.41-.58-.98-.73.05-.12.11-.23.16-.34Z"/><path class="cls-35" d="m21.62,36.31c.57-.37,1.17-.28,1.77-.09.76.24,1.77-.18,2.26.85.05.1.43.04.66.05-.16.64-.63.44-1.04.4-.61,0-1.23,0-1.84-.01-.02-.32.6-.06.43-.43-.14-.3-.51-.14-.78-.15-.43-.02-.86,0-1.29-.01-.16,0-.43.1-.41-.19.02-.24.25-.18.44-.17.2,0,.41-.04.62-.07,0-.06,0-.11,0-.17h-.8Z"/><path class="cls-35" d="m35.07,38.12c.27-.07.53-.14.8-.22-.29,1.91-.3,3.84-.3,5.77,0,.74-.01,1.49-.02,2.23-.04.04-.08.07-.13.11-.54.26-1.14.2-1.7.3-1.5.24-3.02.32-4.52.49-1.01-.27-1.5-1.17-2.17-1.84-.58-.58-1.17-.83-1.97-.55-.19.07-.47.09-.64-.14.71-.28,1.01-1.32,2.01-1.1,0,0,.3-.27.08-.47.09-.09.19-.09.29-.01.44.46.59.5.88.21.12-.12.35-.26.09-.47-.03-.03-.07-.11-.05-.12.45-.51-.33-1.11.12-1.62-.2-.36-.1-.7.05-1.05.03-.07-.05-.24-.12-.28-.15-.08-.22.05-.28.18-.04.07-.17.1-.26.15-.02-.1-.1-.26-.06-.28.38-.28.14-.59.04-.88.32-.22.59.04.88.08.79.29,1.6.22,2.4.15,1.03-.09,2.06-.17,3.08-.36.26-.05.52-.1.77-.17.24-.07.48-.09.72-.08Z"/><path class="cls-35" d="m22.93,44.5c.06,0,.13-.02.19-.02.87-.12,1.74-.08,2.61-.21.74-.11,1.21.51,1.62.99.46.54.92,1.06,1.48,1.5-.05.51-.21.91-.85.82-.71-.41-.88-1.3-1.58-1.72-.11-.19-.23-.38-.21-.6.04-.4-.2-.47-.51-.48-.46-.02-.92.01-1.38-.03-.46-.04-.97.2-1.37-.24Z"/><path class="cls-35" d="m20.74,47.68c-.45-.16.04-.57-.2-.78.06-.01.11-.03.17-.04.23-.32.34-.69.54-1.03.19-.33.41-.35.69-.15.24.17.47.3.77.23.29,0,.58-.03.87.05.05.02.09.04.13.08-.51.52-1.19.7-1.68.96.07,0,.38-.08.38.29,0,.35-.3.33-.55.34-.18,0-.36-.02-.53.09-.2.11-.4.05-.59-.03Z"/><path class="cls-35" d="m23.71,46.09s-.07-.01-.1-.02c-.16-.38.33-1.01-.4-1.14-1.34-.24-.89.51-.59,1.15-.27.05-.49-.05-.68-.22-.26-.21-.46-.28-.62.11-.1.25-.25.49-.4.73-.04.07-.14.11-.21.16.21-.79.63-1.47,1.12-2.11.29-.38.71-.27,1.1-.25.49.03.98.07,1.47.1-.2.51.44,1.4-.68,1.49Z"/><path class="cls-35" d="m28.76,46.78c-.3-.07-.49-.26-.69-.5-.44-.53-.93-1.02-1.4-1.53-.27-.29-.6-.38-.98-.36-.86.04-1.71.05-2.57.08.44-.07.87-.13,1.31-.2.39,0,.77-.01,1.17-.12.37-.1.83,0,1.15.36.21.24.53.39.73.64.26.33.46.7.84.94.28.17.52.38.79.57,0,.02-.02.04-.03.06-.09.09-.2.07-.31.06Z"/><path class="cls-35" d="m26.8,42.68c-.1,0-.19,0-.29.01-.39-.2-.77-.47-1.18-.58-.6-.17-1.22-.22-1.83-.33.97-.23,1.84.07,2.66.52.28.15.54.25.85.19-.07.06-.13.12-.2.18Z"/><path class="cls-35" d="m35.07,38.12c-.19.06-.38.13-.57.19-2.16.26-4.31.71-6.51.4-.26-.07-.52-.14-.78-.21-.58-.47-1.26-.73-1.95-.99.35-.13.7-.26,1.04-.4,1.51,1.14,3.12,1.34,4.96.85.97-.26,2.06-.07,3.09-.13.36-.02.62-.43,1.05-.36.02.27-.53.28-.33.64Z"/><path class="cls-35" d="m27.9,20.57c-.1-.38-.23-.75-.31-1.13-.17-.75-.32-1.5-.48-2.25.26.36.54.72.78,1.1.21.33.37.71.59,1.03.34.49.17,1.07.31,1.59.12.46.17.53.62.35.09-.04.18-.08.28-.1.21-.05.45-.33.62-.11.09.12-.04.43-.11.64-.12.34-.27.68-.4,1.02-.11.31-.42.38-.66.47-.44.15-.78.43-1.12.72-.86.75-1.85,1.3-2.87,1.8-.34.17-.76.17-1.14.24.73-.46,1.58-.69,2.24-1.27.53-.46,1.1-.88,1.65-1.31.11-.24.35-.33.53-.49.36-.32.45-.66.04-.98-.44-.34-.38-.88-.58-1.32Z"/><path class="cls-35" d="m27.9,20.57c.4.44.6,1.01.93,1.49.46.66-.37,1.01-.92,1.3,0-.07,0-.15,0-.22.44-.3.35-.73.27-1.14-.06-.35-.18-.69-.28-1.03,0-.13,0-.26,0-.4Z"/><path class="cls-35" d="m23.71,15.78c1-.19,2.01-.29,3.02-.1,0,.03-.01.07-.02.1-.07,0-.14.02-.21.03-.93-.01-1.86-.02-2.79-.03Z"/><path class="cls-35" d="m19.93,15.97c1.15-.3,2.33-.18,3.5-.18-.52.06-1.04.14-1.56.17-.64.03-1.29.01-1.93.01Z"/><path class="cls-35" d="m27.99,38.72c.89,0,1.79.04,2.67-.03.89-.06,1.76-.25,2.65-.35.39-.05.79-.02,1.19-.02-2.15.41-4.3.85-6.51.4Z"/><path class="cls-35" d="m23.61,47.68c-.79,0-1.59-.02-2.38-.03.15-.32.44-.12.66-.17.16-.04.42.07.4-.22-.01-.24-.24-.17-.4-.18-.23-.01-.45,0-.7-.1,1.02.17,1.59-.85,2.53-.89.5-.02.48-.35.48-.73,0-.26.13-.51.2-.77.2,0,.4.02.59-.01,1.06-.21,1.57.21,1.52,1.29-.12.27-.38.23-.6.26-.3.03-.59.02-.89.08-.82.16-1.1.67-.76,1.43-.21.14-.43.1-.65.04Z"/><path class="cls-35" d="m23.61,47.68c.18,0,.35-.02.63-.04-.23-.14-.48-.23-.48-.31,0-.15.16-.29.24-.44.05-.09.1-.18.1-.28.02-.39.2-.51.6-.52.6-.01,1.2-.14,1.8-.22.22.03.44.06.69.09-.14.63.07,1.02.79,1.16.36.07-.06.22-.09.35-.08.11-.18.15-.31.13-.1,0-.19-.02-.29-.03-.3-.02-.63-.13-.9-.04-.89.31-1.8.26-2.71.2-.03,0-.05-.04-.08-.05Z"/><path class="cls-35" d="m22.62,46.08c-.61-.27-.5-.81-.45-1.38.47.03.97.05,1.48.08-.04.43.42.88-.03,1.3-.33,0-.66,0-.99,0Z"/><path class="cls-49" d="m14.01,46.26c-1.02.16-1.97.34-2.7-.77-.4-.61-1.18-.96-1.71-1.49-2.25-2.26-3.15-5.09-3.45-8.19-.37-3.89.11-7.7.91-11.49.2-.96.92-1.47,1.66-1.94.41-.27.55-.58.61-1.03.12-.94.32-1.87.7-2.76.46-.06.2-.38.22-.6.23-.48.46-.96.69-1.44.07-.15.17-.29-.02-.42-.2-.47.15-.29.32-.26,1.21.21,2.02,1.13,3.04,1.69.31.17.64.32,1,.13-.05-.22-.19-.19-.32-.18-.23.03-.55.19-.6-.18-.05-.34.09-.67.42-.83.87-.43,2.14,0,2.01,1.17,0,.18.06.36-.02.54-.29.41-.74.26-1.19.32q.85.14,1.14-.26c.48-.08.45.23.42.54-.04.59.09,1.13.46,1.61.09.1.12.21.11.34.01.56-.47.66-.83.82-.27.12-.56,0-.66-.34-.04-.13-.02-.3-.16-.35-.44-.14-.72-.49-1.07-.76-.84-.66-1.82-1.16-2.43-2.1-.2-.31-.55-.48-.82-.72-.22-.19-.44-.32-.64.03-.18.31-.4.62.03.9.14.09.29.15.37.37.15-.17.25-.38.48-.33.23.05.24.24.27.42.46-.26.48-.25.69.21.12.28.21.56.16.87-.04.2.03.39.09.58.11.35.09.69-.1,1.01-.09.16-.19.34-.42.18-.2-.35-.06-.75-.13-1.12-.12-.61-.3-1.16-1.12-.94-.45-.02-.52.31-.6.64-.02.04-.04.08-.07.12-.43.51-.41.94.1,1.62.45.91,1.13.22,1.71.25.14.09.24.06.31-.11.22-.53.51-1.05.35-1.66-.07-.25,0-.5.3-.53.28-.02.33.23.36.45.02.2-.01.4,0,.6.03.63.1.72.72.88.26.07.53.1.75.25.71.48.73,1.05.05,1.5-.47.32-.85.73-1.33,1.03-.06.03-.12.07-.15.13-.3.66-.81,1.17-1.19,1.77-.27.42-.39.87-.32,1.37.07.5-.3.95-.2,1.5.39-.02.82-.08,1.22.11.12.07.19.16.15.3-.07.12-.2.1-.25.12,1.06.16,2.19-.04,3.29.27.24.29.5.24.78.06.49-.31,1-.25,1.51-.05.14.05.27.15.24.33-.03.18-.2.21-.35.21-.23,0-.46.05-.68.1-1.24.02-2.48,0-3.72,0-.18,0-.36,0-.54.01-.51.04-1.01.06-1.5-.08-.26-.1-.52-.19-.85-.08.3.28.37.66.57.98.17.43.16.88.14,1.33-.03.81.09,1.59.52,2.29.22.58.35,1.19.54,1.78.34.29.84.16,1.18.45,1.02.2,2.05.34,3.09.3.41-.02.83.03,1.22-.16.32-.08.57-.3.87-.42.48-.08.79-.42,1.1-.75.04-.03.09-.04.14-.06.7-.02,1.37-.34,2.08-.21.16.03.36.03.36.25,0,.19-.18.25-.32.24-.41-.03-.53.24-.63.55-.56.34-1.3.2-1.8.69-.36.22-.67.5-.44.94.16.29.44.19.65-.03.99-.76,2.09-.97,3.29-.62.12.06.24.13.32.24.44.93-.45.62-.77.8-.16.08-.42-.04-.58.16-.17.1-.36.16-.56.17-.81.08-1.53.38-2.14.92-.26.21-.27.49-.07.69.22.22.46.02.65-.14.45-.4,1-.55,1.57-.67.08,0,.16,0,.25.01.17,0,.35.02.42.21.08.2-.06.34-.18.48-.47.53-1.02.97-1.57,1.42-.14.11-.3.18-.46.1-.33-.16-.52.01-.62.28-.29.75-.66,1.47-.87,2.25-.06.24-.19.42-.42.52-.3.12-.61.03-.91.03-.65-.03-1.3-.06-1.94-.2-.4-.18-.87.02-1.25-.26-.1-.03-.2-.07-.31-.1-.39,0-.48-.19-.54-.58-.13-.92-.16-1.85-.29-2.77-.13-.91-.23-1.82-.37-2.72.22,1.42.37,2.85.49,4.29.05.58.11,1.15.17,1.73.05.41.11.83-.06,1.23Z"/><path class="cls-80" d="m39.23,44.87c-.7.4-1.46.6-2.25.74-.19.03-.34.25-.56.11-.32-1.38-.1-2.79-.14-4.18-.04-1.48-.12-2.97.15-4.46.06-.36.23-.85-.34-1.05-.29.37-.55.96-1.02.17-.11-.38.12-.68.24-1,.16-.28.31-.56.64-.67,1.25-.25,2.04-.87,1.92-2.28-.07-.83.07-1.65.08-2.48,0-.45-.18-.7-.68-.51-.15.03-.3.03-.44.1-.15.05-.31.08-.46.12-.69.13-1.37.34-2.08.31-2.19.29-4.37.56-6.58.65-.53.02-1.05.05-1.58.1-.17.05-.34.05-.5-.02-.29-.28-.1-.51.17-.53.74-.07,1.41-.5,2.18-.43,1.17.11,2.31-.1,3.44-.34,1.05-.22,1.91-.68,2.25-1.8.08-.26.28-.5.59-.42.49.13,1.33-.58,1.4.63.03.49.59.76,1.01.99.18.1.51.02.67-.21.17-.24.01-.46-.14-.63-1.78-1.88-3.6-3.73-6.11-4.63-.8-.28-1.58.18-2.35.38-1.91.49-3.61,1.73-5.7,1.58-.25-.02-.5.02-.73-.12-.07-.06-.07-.13-.03-.2.1-.11.25-.17.37-.25.05-.02.09-.04.14-.04.07-.01.15-.01.22-.01,1.37.28,2.35-.61,3.41-1.18,1-.54,1.9-1.27,3.08-1.45.45-.07.68-.33.73-.81.07-.79.45-1.38,1.18-1.77.37-.2.94-.52.65-1.04-.33-.6-.81-.13-1.19.09-.73.43-1.28.59-1.78-.41-.51-1.01-1.31-1.84-2.49-2.14-.22-.06-.35-.24-.49-.4-.07-.31.01-.6.17-.87.18-.09.34-.07.46.11.12.19-.02.49.25.63.52.13,1.06.12,1.57.02.61-.12,1.25-.17,1.83-.45.12-.06.26-.07.39-.07.32.02.37.15.17.46.6.07.74.32.55.98.69.22,1.24-.01,1.83-.38,1.2-.73,2.28-1.66,3.55-2.27.09-.04.18-.09.27-.12.13-.04.42-.37.51-.25.1.13-.16.54-.23.65-.72.74-1.7,1.13-2.46,1.82-.44.28-.9.54-1.21,1.06,1.11.09,2.04.62,3.01,1.01.46.18.58.44.46.87-.44,0-.79-.52-1.29-.22-.81,0-1.54.19-1.98.95-.35.53-.21,1,.18,1.43.56.61,1.22.79,2,.44.33-.14.56-.43.87-.59.49-.38.28-1.05.62-1.48.47.01.47.4.53.7.15.69.3,1.39.35,2.08.11,1.31.59,2.55.59,3.86,0,.3.1.59.19.87.25.82.59,1.61.92,2.4.06.15.06.29,0,.43-.08.2,0,.31.19.4.17-1.73.07-3.44.04-5.16-.28-.55-.52-1.1-.22-1.74.16-.34.36-.51.73-.4.46.14.94.18,1.42.22.77.07.98.27,1.19,1,.04.15.13.26.22.39.35.87.39,1.81.57,2.72,0,.32-.07.6-.24.89-.18.32-.15.7-.04,1.06.14.47-.23.79-.74.65-.15-.38-.06-.78-.08-1.17-.02-.59-.18-.71-.78-.54-.28.13-.6.06-.87.21-.28.5-.14,1.03-.11,1.55.02.24.26.25.43.21.34-.08.69-.06,1.03-.16.1-.02.21-.03.31-.01.05.01.1.02.15.03.32-.04.64-.06.83.28.18.34.14.67-.07.98-.29.43-.53.86-.04,1.32.13.12.1.32.04.47-.12.31-.05.59.08.86.34.7.38,1.44.27,2.19-.03.2-.04.39.04.59.05.14.08.29.04.44-.25.89-.03,1.85-.46,2.7.28.19.42-.02.58-.09.21-.1.41-.21.49.14-.24.45-.5.88-.92,1.19-.49.5-1.03.93-1.6,1.33-.2.14-.47.2-.48-.13-.02-.6.1-1.56.31-1.72.75-.6.66-1.36.6-2.02-.11-1.26.29-2.46.2-3.7-.03-.37-.14-.39-.47-.41-.8-.05-1.82.53-2.3-.82-.22,3.72-.63,7.29-1.06,10.87-.03.29-.07.56-.29.77Z"/><path class="cls-33" d="m16.71,18.28c-.03-.34-.09-.69-.09-1.03,0-.31-.13-.46-.41-.51-.31-.05-.62-.11-.93-.14-.5-.06-.78.18-.83.67-.02.2.08.24.24.17.09-.04.17-.11.26-.13.2-.03.41-.06.53.15.06.1.1.32.06.35-.14.09-.33.18-.49.17-.76-.04-1.38-.45-1.9-.94-.26-.25-.5-.41-.84-.52-.43-.14-.84-.35-1.26-.53-.23-.1-.15.05-.14.16-2.42-1.82-4.84-3.63-7.26-5.45-.43-.38-1-.57-1.38-1.01-.12-.14-.4-.25-.17-.51.6.06,1,.5,1.45.81.86.61,1.8,1.13,2.54,1.88.39.4.75.38,1.18.14.29-.16.56-.13.84.04.44.27.89.52,1.45.34.08-.03.17-.03.25,0,.72.34,1.51.44,2.25.72,1.66.63,3.13,1.66,4.83,2.22.29.09.45.08.45-.27,0-.24.06-.46.2-.65.09-.13.1-.28.08-.43-.13-.86-.07-1.72-.08-2.58,0-.4-.02-.79-.14-1.18.23-.1.22-.29.22-.5-.01-1.09-.02-2.19-.03-3.28-.1-1.07.04-2.14-.07-3.21-.04-.3.09-.47.39-.49,2.59-.17,5.18-.32,7.77-.5,1.32-.09,1.78,1.17,2.72,1.66,1.11.57,1.44,1.54,1.36,2.71.03.52.07,1.8-.4,1.87-.56.08-.38-1.21-.51-1.64-.07-.25-.06-.52-.16-.97-.1.91.2,1.63.05,2.34-.03.16-.03.35-.23.4-.13.03-.19-.1-.25-.2-.32-1.52-.02-3.17-.9-4.94-.54,1.95.15,3.54-.03,5.14-.12.54.09,1.05.12,1.58.03.5,0,.99.03,1.49,0,.12,0,.23-.05.34-.06.14-.14.28-.31.29-.18.02-.25-.13-.32-.27-.07-.14-.11-.29-.1-.43.04-.63-.14-1.24-.07-1.88.05-.46-.33-.82-.56-1.35-.11.42.03.66.12.89.18.47.21.92.04,1.4-.14.37-.18.77-.12,1.17.04.26.06.54-.24.7-.37-.02-.54-.28-.53-.6.02-.61-.21-1.26.27-1.82.15-.18-.04-.35-.16-.47-.28-.29-.4-.6-.21-.99.05-.09.06-.21.03-.29-.24-.66-.01-1.38-.3-2.04-.13-.31.04-.67-.14-.97-.16-.19-.29-.4-.5-.54-.04-.03-.08-.06-.12-.1-1.58-.3-3.15-.53-4.57.51-.21.04-.42.12-.36.37.43,1.68-.26,3.34-.08,5,.11.96,0,1.9-.05,2.86-.02.35-.16.43-.52.44.53.33.18.56-.02.81-.51,1.72-.98,3.45-.99,5.26,0,.17.02.35-.14.47-.48-.43-.6-1-.54-1.6.03-.29.12-.53-.27-.58Z"/><path class="cls-87" d="m25.88,12.5c.03-.21.13-.44.08-.62-.13-.4-.07-.79.08-1.11.3-.65.13-1.22-.14-1.8-.12-.25-.11-.47-.01-.71.09-.2.2-.29.33-.05.22.4.43.81.64,1.22.03.07.04.17.01.24-.25.65.1,1.3.02,1.95-.02.19.09.4.18.75.15-.26.29-.4.28-.53-.02-.75-.06-1.5-.1-2.25-.02-.33-.05-.66-.07-.98.1-.02.14.04.19.11.31.44.6.41.84-.08.04-.09.07-.19.17-.23.08.07.19.21.19-.05,0-.49,0-.98-.03-1.46-.01-.33-.05-.65-.07-.98,0-.15,0-.34.19-.33.08,0,.2.16.22.27.08.4.12.81.19,1.21.05.3.13.59.27,1.23.2-.79.32-1.25.44-1.71.09.63.19,1.26.25,1.89.03.33.12.55.46.61-.2.25-.51.21-.77.28-.22.06-.43.13-.5.36-.06.24.17.34.32.46.43.34.9.62,1.47.67.28.03.55.12.82.2.58.18.67.49.28.94-.05.06-.11.12-.17.18-.49.36-1.06.55-1.63.74-.98.17-1.68.82-2.42,1.41-.19.15-.38.3-.56.54.48.06.84-.11,1.18-.3,1.2-.67,2.49-1.16,3.73-1.76,2.1-1.02,4.2-2.06,6.34-2.97,1.19-.5,2.36-1.07,3.62-1.39.3-.07.59-.14.91.11-.24-.46-.13-.77.34-.62,1.38.43,1.98-.89,2.99-1.27.51-.19.95-.6,1.46-.85.25-.12.51-.16.74.06.23.22.2.47.06.73-.85.56-1.7,1.12-2.57,1.67-.19.12-.43.19-.65.21-.48.03-.88.22-1.26.5-1.29.92-2.59,1.81-3.89,2.72-.28.02-.47.23-.71.34-.58.27-1.08.79-1.77.02-.35-.39-1.07-.27-1.62-.07-2.41.91-4.78,1.93-7.11,3.03-.73.35-1.46.46-2.25.37-.45-.07-.13-.41-.2-.6.17-.12.08-.33.16-.48-.03-.55-.5-.85-.72-1.3-.08-.17-.27-.29-.23-.51Z"/><path class="cls-92" d="m17.4,10.21c.32.09.3.36.3.6.02.91.02,1.82.04,2.73,0,.18.05.36.07.54,0,.11.04.29,0,.32-.39.22-.3.59-.3.93,0,.35-.12.38-.43.26-1.17-.47-2.31-.97-3.39-1.62-.4-.24-.89-.32-1.33-.48-.17-.06-.32-.17-.47-.27-.25-.16-.48-.32-.82-.24-.16.04-.37-.1-.55-.18-.42-.21-.82-.34-1.33-.18-.43.13-.81-.21-1.15-.44-.27-.18-.5-.25-.69-.01-.19.23-.6-.04-.67.36-.1-.08-.2-.15-.29-.23-1.36-1.15-2.82-2.15-4.33-3.07-.74.05-1.04-.91-1.81-.79-.13-.3-.41-.68.02-.89.6-.3.83-1.4,1.81-.88,3.74,1.96,7.48,3.92,11.23,5.88.18.09.4.11.6.17.32-.09.52.15.75.29.27.16.53.31.89.3-.19-.33-.48-.41-.76-.47-.5-.1-.64-.3-.27-.71.82-.84,1.85-1.38,2.89-1.9Z"/><path class="cls-99" d="m43.72,24.26c-.35-1.64-1.83-1.15-2.85-1.52-.1-.04-.34,0-.35.04-.07.42-.44.8-.2,1.28.12.23.2.47.3.71-.21.15-.4.64-.53.48-.29-.36-.61-.75-.73-1.23-.34-1.4-.24-2.9-.76-4.24-.35-.89-.15-2.12-1.2-2.62-.59-.28-1.32-.24-1.93-.59-.42-.24-.76-.42-.52-.97.8-.6,1.6-1.2,2.39-1.79.16,0,.23-.4.46-.1,1.01,1.15,1.79,2.44,2.37,3.86.17.41.34.83.44,1.26.08.31.24.51.5.67-.1.39.13.63.4.83.41.31.87.55,1.27.86.21.16.32.34.36.61.09.55.47,1.01.58,1.56.04.23.15.44.14.68,0,.1.04.25-.16.24Z"/><path class="cls-101" d="m37.8,13.69c-.15.03-.31.07-.46.1.04-.08.09-.16.25-.46-.82.49-1.44.86-2.07,1.25-.56.35-1.11.71-1.67,1.06-.43.27-.83.61-1.3.78-.36.13-.8.06-1.2.02-.15-.02-.24-.23-.07-.39.13-.12.36-.2.15-.42-.16-.17-.29-.44-.61-.2-.05.04-.21-.02-.3-.06-.03-.01-.04-.17-.03-.17.08-.03.17-.04.26-.06.08-.02.17-.04.24-.15-1.37.22-2.71.75-4.12.41,1.77.06,3.1-1.13,4.66-1.66,1.85-.62,3.5-1.83,5.5-2.02.45-.04.98-.11,1.26.55.13.3.58-.06.87-.16.39-.13.68-.55,1.16-.4-.75.54-1.5,1.09-2.25,1.63-.13.09-.32.13-.28.35Z"/><path class="cls-78" d="m39.23,44.87c.53-4.02.96-8.04,1.31-12.09.27.4.19.95.73,1.11.18.05.38.08.57.07.43-.02.86-.11,1.28-.09.23.01.36.13.4.5.08.62-.14,1.18-.13,1.77,0,.16-.08.31-.11.47-.03.16-.11.36-.05.48.38.68-.03,1.37.04,2.05.02.19-.05.39-.07.59-.01.18-.05.32-.25.38-.16.04-.41-.07-.42.22-.01.27.31.12.4.27-.33.43-.57.89-.62,1.5.7-.49,1.35-.93,1.99-1.38-1.43,1.72-3.11,3.12-5.08,4.16Z"/><path class="cls-54" d="m30.27,12.81c.53-.23,1.06-.47,1.59-.7.86-.53,1.64-1.22,2.69-1.4,3.8-1.95,7.6-3.88,11.38-5.88,1.02-.54,1.86-.98,2.82.1.47.53.51.96.16,1.51-.27-1.19-1.04-.92-1.81-.62-4.92,1.95-9.56,4.51-14.33,6.78-.7.33-1.37.73-2.11.97-.3.09-.63.17-.8-.15-.19-.37.2-.46.42-.61Z"/><path class="cls-65" d="m43.45,29.55c.16-.1.33-.21.49-.31.13-.08.09-.14.03-.27-.23-.48-.24-.95.11-1.41.11-.15.09-.39.13-.59.43.02.44.41.54.68.92,2.42,1.06,4.98,1.24,7.52.05.69-.06,1.39.13,2.08-.14.83-.42,1.6-.89,2.29-.16-.2-.3-.09-.46.02-.13.1-.27.21-.42.24-.12.02-.3-.04-.38-.13-.06-.06-.03-.25.02-.36.27-.6.39-1.21.25-1.87-.03-.12.07-.28.12-.42.04-.14.17-.35.12-.41-.39-.49-.05-1.01-.06-1.5-.01-.56-.12-1.08-.37-1.58-.15-.3-.23-.58-.02-.89.12-.18.1-.35-.14-.42-.3-.1-.3-.29-.21-.55.11-.32.07-.68.42-.92.13-.09.12-.48.06-.69-.11-.35-.46-.32-.76-.31-.05-.08-.04-.14.04-.2Z"/><path class="cls-11" d="m46.13,37.23c-.29-.23-.32-.54-.32-.89-.04-3.1-.25-6.18-1.4-9.11-.04-.1-.13-.18-.19-.27-.17-.9-.33-1.79-.5-2.69-.03-.72-.23-1.37-.62-1.98-.05-.08-.15-.18-.13-.26.17-.8-.59-.86-.97-1.21-.24-.22-.59-.33-.8-.56-.18-.19-.59-.47-.08-.78.3.11.61.21.91.34,1.07.49,1.69,1.36,2.1,2.46.93,2.52,1.73,5.08,2.05,7.76.09.78.11,1.58.17,2.37.05,1.18.06,2.36,0,3.54l-.19,1.28Z"/><path class="cls-33" d="m30.27,12.81c-.06.23-.52.32-.3.59.2.24.52.09.78-.04,2.46-1.21,4.9-2.47,7.39-3.63,2.84-1.32,5.57-2.85,8.53-3.9.4-.14.72-.43,1.2-.41,1.02.05,1.02.01,1.03,1.02-.07.06-.13.13-.2.19,0-.06-.02-.12-.02-.19,0-.52-.28-.71-.73-.47-.38.2-.74.44-1.11.66-.59.36-1.17.72-1.75,1.1-.27.18-.44.48-.8.54-.14.02-.15,0-.27-.05-.24-.13-.54-.13-.82-.17-.04,0-.14.1-.13.12.03.08.08.18.15.22.14.08.37.11.2.34-.14.18-.32.17-.45-.03-.14-.21-.33-.21-.52-.13-.73.27-1.45.55-2.18.82-.12.05-.25.09-.37.15-1.49.64-2.98,1.27-4.46,1.94-.81.37-1.59.81-2.39,1.18-1.09.51-2.2.97-3.29,1.47-.6.27-1.19.58-1.79.86-.16.08-.35.09-.53.14-.14.04-.3.07-.33-.1-.02-.12.02-.31.11-.38.54-.45,1.07-.92,1.67-1.3.41-.26.91-.37,1.37-.54Z"/><path class="cls-33" d="m34.55,10.7c-.9.47-1.79.93-2.69,1.4.56-.7.56-.72-.32-.92-.8-.18-1.61-.34-2.24-.95-.15-.15-.44-.29-.35-.48.11-.22.37-.43.6-.52.28-.11.61-.1.92-.14,1.3.22,2.47.79,3.62,1.4.14.08.29.13.44.2Z"/><path class="cls-88" d="m14.01,46.26c-.06-.57-.13-1.14-.19-1.71-.19-1.82-.39-3.65-.58-5.47-.03-.29,0-.59.19-.9.2,1.33.41,2.66.58,3.99.11.88.14,1.77.25,2.65.01.1.23.18.36.27-.35-.04-.33.17-.31.42.03.3.13.63-.3.75Z"/><path class="cls-100" d="m.25,8.42c.18-.33.4-.2.61-.05.4.28.8.56,1.2.84.38.32.77.64,1.15.97.17.15.45.2.45.5-1.4-.36-2.49-1.18-3.41-2.26Z"/><path class="cls-33" d="m14.52,12.11c-.04.14-.08.28-.12.42.55.16,1.15.24,1.47.78.13.22-.58.26-1.06-.02-.2-.11-.38-.25-.57-.38-.11-.07-.22-.14-.33-.21.2-.2.41-.39.61-.59Z"/><path class="cls-61" d="m17.52,3.22c.02,1.07.05,2.14.07,3.21-.02-1.07-.05-2.14-.07-3.21Z"/><path class="cls-33" d="m10.25,17.99c.2.18.4.37.17.65-.13.15-.29.24-.39-.05.07-.2.15-.4.22-.6Z"/><path class="cls-20" d="m35.92,34.61c-.16.2-.32.4-.48.59-1.38.54-2.85.52-4.3.65-.85.08-1.71.01-2.57.01-1.02.17-1.84-.38-2.69-.79-.39-.07-.66-.43-1.07-.45-1.05-.32-2.13-.11-3.2-.16-.15,0-.29.06-.42.13-.18.07-.35.17-.51.26-1.37,1.55-3.2,1.17-4.93,1.2-.23,0-.46-.01-.69.01-.53-.01-1.04-.12-1.54-.28-.26-.21-.63-.22-.89-.45-.92-1.15-.43-2.55-.7-3.82-.15-.16-.08-.38-.14-.56-.13-.42.02-.56.44-.44.54.05,1.08.09,1.63.14.28.15.2.42.21.66.03.63-.1,1.28.24,1.87.45.59,1.06.87,1.78.98.73.11,1.45.14,2.17-.04.96-.24,1.48-.88,1.63-1.84.09-.31-.01-.63.06-.95,0-.11,0-.22,0-.34,0-.12.04-.23.12-.32.16-.1.33-.17.51-.2,1.45-.02,2.9-.1,4.34-.22.23-.02.46-.02.65.15.16,0,.33,0,.49.01.21-.08.41-.09.29.21-.29.69-.13,1.31.2,1.92.35.44.68.9,1.25,1.09,1.52.54,3.02.39,4.5-.12.8-.28,1.21-.87,1.32-1.68.14-.46.07-.92,0-1.39-.07-.25-.03-.46.26-.54.18-.05.31-.18.45-.29.7-.1,1.39-.2,2.09-.31.4.63.14,1.31.15,1.97,0,.78,0,1.55,0,2.33,0,.06,0,.12,0,.18-.08.38-.29.66-.66.8Z"/><path class="cls-33" d="m13.32,29.54c-.26-.03-.52-.06-.78-.1-.25-.04-.4.07-.47.32-.3-.69.51-3.42.9-4.05.68-1.12,1.8-1.76,2.59-2.73.49-.6-.24-.93-.65-.97-1.05-.11-1.39-.6-1.19-1.59.03-.15-.08-.33-.14-.49,0,0-.16.02-.16.05-.03.17-.08.36-.05.52.14.81-.23,1.43-.73,2.24-.07-.35-.1-.48-.12-.61-.09-.25-.1-.46.2-.57.36-.23.55-.63.39-.95-.33-.63.19-1.2-.63-1.98.13.09-.46,1.23-.37-.1,0-.04-.12-.09-.18-.13-.06.1-.16.19-.18.3-.04.14-.05.29-.22.25-.07-.02-.14-.15-.17-.25-.05-.12.05-.27-.24-.23-.25.03-.39-.29-.41-.52-.04-.45.32-.75.56-1.07.15-.19.29.11.43.2.88.6,1.41,1.63,2.29,2.15.73.42,1.22,1.14,2.03,1.41.16.05.4.27.38.39-.09.69.38.38.7.44-.05-.18-.08-.31-.15-.54.22.15.34.23.51.34.05-.18.08-.33.12-.48.3.13.26.44.32.67.09.33.27.52.56.7.54.33,1.1.66,1.53,1.14.15.46,1.28,1.37,1.74,1.41.15.01.27.09.39.18.25.22.3.57.52.83.22.25-.15.56-.67.53,1.61.17,2.09.69,2.09,2.29,0,.08-.02.2.05.23,1.92.92-.48.79-.31,1.27-1.16.3-2.32.6-3.54.33-.9-.49-1.85-.32-2.79-.21-.32.03-.63.21-.94,0-.41,0-.83.02-1.24,0-.6-.03-1.19-.1-1.79-.13-.13,0-.27.1-.41.12-.14.02-.32.03-.33-.19,0-.18.14-.2.28-.2.17,0,.33,0,.5,0,.1-.15.32-.18.36-.41-.24-.05-.37.15-.56.21Z"/><path class="cls-57" d="m13.5,35.63c.51.1,1.01.2,1.52.3,1.08.11,2.17.1,3.26.13.87.02,1.51-.49,2.12-1.03.07-.06.13-.15.22-.19.05-.01.1-.03.15-.04.33-.11.77-.16.88.16.11.35-.36.3-.62.41.47-.04.92-.03,1.36-.02.29,0,.66-.04.74.34.09.41-.36.35-.55.51-.62,0-1.21.18-1.82.31-.03,0-.06,0-.07.03-.31.28-.61.59-.99.78-.27.13-.54.26-.81.39-1.54.22-3.07.16-4.59-.18-.33-.07-.66-.14-.99-.22-.07-.02-.13-.11-.19-.17.14-.39-.25-.75-.09-1.12.07-.17.06-.56.46-.37Z"/><path class="cls-69" d="m19.1,45.48c.33-.83.64-1.66.99-2.49.16-.38.12-.99.94-.6.23.11.85-.56,1.27-.89.15-.12.25-.29.38-.44.12-.14.38-.31.36-.41-.07-.27-.37-.09-.56-.15,0-.14.1-.18.2-.22,1.11-.07,2.08.31,3,.9.36.22.24.63.02.65-.93.06-1.35.95-2.14,1.19-.4.13-.82.08-1.22.18-.07.02-.15.03-.23.03-1-.19-1.26.62-1.66,1.23-.22.34-.28.77-.56,1.09-.07.05-.15.06-.23.08-.21.02-.41.02-.55-.17Z"/><path class="cls-59" d="m20.77,36.51c.55-.4,1.21-.29,1.82-.4.57-.2,1.16-.23,1.75-.15.58.21,1.18.39,1.72.71.16.09.31.19.41.34.15.26.27.53.14.86.41-.13.66.02.57.43-.2.9-.02,1.79-.03,2.68,0,.39-.11.66-.47.77-.37.11-.64-.07-.77-.43-.01-.13.08-.22.13-.33.26-.45-.11-.61-.38-.81-.8-.58-1.81-.53-2.68-.88.1-.09.24-.27.3-.24.32.12.56-.11.83-.13.46-.02.22-.24.17-.42.37-.2.56.16.83.26.27.09.56.4.8-.04.15-.37-.09-.56-.34-.73-.68-.45-1.44-.62-2.25-.62-.35,0-.73.13-1.03-.18.07-.23.01-.43-.18-.65.41-.02.75-.04,1.32-.07-1.05-.39-1.84.12-2.65.03Z"/><path class="cls-67" d="m19.92,23.35c-.4-.29-.77-.67-1.21-.84-.84-.32-1.03-.99-1.15-1.74-.01-.1-.03-.2-.04-.31,0-.17.01-.33.02-.5.05-.05.13-.09.18-.06.53.37,1.21.5,1.63,1.03.38.49.89.84,1.35,1.23.59.5,1.1,1.05,1.34,1.8.07.31.29.56.36.87-.03.04-.05.07-.08.11-.1.08-.2.05-.31.03-.1-.08-.21-.16-.31-.25-.11.01-.19-.03-.27-.1-.51-.43-1.05-.81-1.51-1.3Z"/><path class="cls-1" d="m22.29,37.21c.48,0,.96,0,1.44.02.83.04,1.58.3,2.23.84.28.23.36.51.11.82-.84.42-1.29-.52-2-.56-1.19-.23-2.31-.14-3.29.68-.22.14-.43.14-.61-.06-.18-.2-.21-.43-.07-.67.09-.16.19-.3.31-.44.52-.52,1.21-.55,1.88-.62Z"/><path class="cls-15" d="m22.99,39.31c1.08.02,2.09.26,2.99.88.45.3.48.45.2.93-.33.18-.62.08-.92-.11-.79-.48-1.65-.71-2.58-.61-.06.03-.13.07-.19.1-.55.13-1.1.25-1.52.66-.24.18-.5.18-.7-.03-.21-.21-.21-.47-.06-.73.75-.81,1.77-.97,2.79-1.09Z"/><path class="cls-27" d="m12.71,21.57c-.07.19-.13.38-.2.57-.09.07-.17.15-.26.2-.63.38-.99.29-1.5-.37-.09-.22-.24-.43-.29-.66-.09-.41-.02-.8.28-1.13h0c.21-.26.27-.63.61-.78.62-.33,1.35.12,1.4.9.03.42-.01.85-.02,1.27Z"/><path class="cls-83" d="m9.24,38.62c.89.28.46,1.13.73,1.69.08.16,0,.2-1.2.2-.25-.05-.41-.19-.45-.45-.05-.36-.11-.71-.17-1.06-.05-.29.06-.45.37-.42.24.02.49-.06.73.05Z"/><path class="cls-56" d="m9.12,35.45c.1.66.19,1.31.29,1.97-.39.1-.79.02-1.18.04-.18.01-.28-.09-.31-.25-.09-.52-.16-1.04-.21-1.57-.01-.14.02-.28.21-.26.4.03.82-.09,1.21.07Z"/><path class="cls-42" d="m7.53,29.07s.07,0,.1-.02c.77-.17,1.18.06,1.01.93-.02.09-.02.21.01.29.41,1.14-.49.67-.93.76-.58-.61-.22-1.3-.19-1.96Z"/><path class="cls-29" d="m7.57,32.15c1.11-.07,1.74.64,1.34,1.64-.17.41-.76.08-1.16.14-.23-.58-.35-1.16-.18-1.78Z"/><path class="cls-38" d="m8.84,26.16c-.03.35-.1.69-.09,1.03.03.84-.42.87-1.04.67-.21-.28-.1-.58-.02-.86.12-.44.03-.93.36-1.31.14-.06.29-.04.44-.04.35,0,.48.15.35.49Z"/><path class="cls-97" d="m16.51,30.14c1.14-.17,2.29-.28,3.45-.2.21.01.45.08.34.4-.35.24-.76.33-1.17.44-.31-.03-.66.13-.93-.15.27-.04.54-.09,1.02-.17-.72-.28-1.18-.58-1.78-.04-.29.26-.78.34-.94-.27Z"/><path class="cls-39" d="m14.2,33.32c-.51-.83-.15-1.77-.35-2.65.15,0,.3-.01.45-.02,1.66.07,3.33.05,4.99,0,.27,0,.56-.16.8.09,0,.1,0,.2,0,.3-1.24.1-2.48.06-3.72-.01-.61-.04-1.22-.08-1.82.01-.15.04-.28.11-.33.26-.08.53.03,1.04.13,1.55.03.17.11.37-.14.45Z"/><path class="cls-47" d="m9.12,35.45c-.44-.08-1.17-.21-1.23.06-.13.56-.04,1.27.22,1.78.19.37.85.12,1.3.14-.52.2-1.26.32-1.5-.06-.32-.49-.47-1.32-.26-1.83.18-.46.95-.32,1.47-.08Z"/><path class="cls-91" d="m14.31,37.52c1.52.2,3.05.26,4.59.18-1.18.4-2.37.23-3.55.05-.34-.05-.77.16-1.04-.24Z"/><path class="cls-45" d="m8.84,26.16c0-.68-.46-.37-.78-.37-.38.33-.25.82-.38,1.22-.09.28.03.59-.16.85-.41-.66-.24-1.36-.03-2,.12-.37.65-.31,1.02-.29.38.02.55.21.33.59Z"/><path class="cls-33" d="m15.45,18.37c.47-.03.69-.05.92-.06.11,0,.23.01.35.02-.04.17-.05.36-.13.51-.07.14-.22.13-.34.01-.14-.14-.27-.19-.48-.1-.11.05-.3-.05-.44-.1-.04-.02-.06-.19-.04-.2.12-.08.26-.12.17-.08Z"/><path class="cls-18" d="m13.5,35.63c-.73.48-.22,1.03-.09,1.59-.1-.03-.19-.06-.28-.09-.17-.59-.34-1.18-.51-1.77.34-.07.61.11.88.28Z"/><path class="cls-37" d="m7.53,27.86c.04-.57.08-1.13.1-1.7.01-.29.14-.42.43-.37-.12.69-.24,1.39-.35,2.08-.06,0-.12,0-.18,0Z"/><path class="cls-36" d="m9.24,38.62c-.32.14-.92-.19-.95.2-.03.56-.06,1.23.47,1.69-.21.02-.47.1-.52-.21-.08-.55-.27-1.14-.14-1.65.06-.25.73-.19,1.13-.03Z"/><path class="cls-51" d="m20.1,30.75c-1.93-.03-3.86-.07-5.79-.1,1.05,0,2.11,0,3.16,0,.25,0,.49-.01.74-.02.34,0,.67,0,1.01,0,.25-.05.51-.08.76-.13.18-.04.4-.05.53.16-.14.03-.27.06-.41.09Z"/><path class="cls-40" d="m12.23,30.54c-.23,0-.4.02-.32.34.05.21.02.44.02.67-.05-.03-.15-.06-.16-.1-.04-.32-.18-.55-.48-.69-.07-.03-.09-.18-.13-.28.08-.02.17-.06.25-.05.27.03.55.07.82.11Z"/><path class="cls-41" d="m7.53,29.07c.12.65-.25,1.34.19,1.96-.53.03-.44-.36-.38-.65.09-.44-.26-.94.2-1.32Z"/><path class="cls-97" d="m13.32,29.54c.08-.1.15-.22.25-.3.11-.08.24-.14.37-.17.04,0,.17.14.16.19-.04.15-.1.31-.2.41-.08.07-.25.05-.38.07-.07-.07-.13-.13-.2-.2Z"/><path class="cls-53" d="m20.41,37.83c-.1.46-.77,1.1.37,1.17-.2.29-.46.23-.68.06-.24-.19-.3-.48-.14-.75.11-.19.3-.32.45-.48Z"/><path class="cls-23" d="m10.73,20.17c-.02.11,0,.25-.06.33-.24.33-.15.65-.03.98.05.15.07.31.1.47-.35-.32-.45-.73-.42-1.19.02-.29.11-.5.4-.6Z"/><path class="cls-22" d="m24.07,38.32c.74-.08,1.21.82,2,.56-.2.3-.46.28-.74.15-.35-.17-.7-.35-1.05-.52-.07-.06-.15-.13-.22-.19Z"/><path class="cls-60" d="m7.57,32.15c.06.59.12,1.18.18,1.78-.33-.56-.61-1.13-.18-1.78Z"/><path class="cls-73" d="m20.2,40.4c0,.51.06.95.76.76-.25.31-.57.38-.83.08-.21-.25-.32-.59.06-.84Z"/><path class="cls-23" d="m11.33,19.39c-.14.31-.23.66-.61.78,0-.65.07-.73.61-.78Z"/><path class="cls-59" d="m19.71,37.32c.33-.26.66-.52.99-.78.05.1.1.2.17.35-.56-.22-.68.53-1.16.42Z"/><path class="cls-72" d="m20.5,30.66c-.43,0-.86-.02-1.29-.03.36-.1.72-.19,1.09-.29,1.01-.1,2.03-.19,3.04-.31.24-.03.46-.12.62-.36.08-.12.31-.15.46-.23.11-.06.2-.15.29-.23-.1-.05-.2-.14-.31-.16-.6-.08-.64-.14-.5-.72.04-.16.04-.37-.02-.52-.14-.37-.32-.72-.51-1.07-.21-.39-.62-.31-.97-.36-.23-.04-.46,0-.69-.02-.11,0-.32.05-.25-.18.04-.15.17-.17.33-.12.15.05.33.11.47.07.12-.03.25-.17.29-.29.05-.18-.11-.24-.27-.27-.31-.06-.65-.13-.11-.42-.06-.05-.11-.1-.17-.15.1-.01.21-.02.31-.03,2.36.35,4.34-.89,6.43-1.6,1.87-.76,3.9-.03,5.36,1.3,1.11,1.01,2.23,2.02,3.28,3.09.29.3.47.72-.01.95-.36.17-.78.39-1.21-.16-.35-.44-.8-.75-.79-1.38,0-.06-.21-.18-.31-.17-.34.04-.25.41-.4.63-.9-1.3-1.08.26-1.11.4-.33,1.29-1.49,1.1-2.34,1.41-1.25.45-2.6.13-3.85.38-.55.11-1.36-.08-1.76.61-1.69.08-3.38.15-5.08.23Z"/><path class="cls-101" d="m34.95,15.59c.11.63,1.24,1.26,1.85,1.17.61-.09,1.01.39,1.42.77-.05,1.16.72,2.1.83,3.22.12,1.11.34,2.22.46,3.33.04.37.37.26.47.42.1.17.05.44.08.74.2-.22.24-.55.56-.48,0,1.84,0,3.69,0,5.53-.14-.33-1.18-.27-.51-.95-.41-1.19-1.05-2.28-1.17-3.53-.14-1.47-.49-2.89-.75-4.34-.14-.78,0-1.61-.55-2.29-.25-.12-.4-.31-.41-.6.03-.68-.59-.81-.98-.91-.84-.22-1.55-.89-2.51-.7-.24.05-.39-.1-.19-.31.4-.44.78-.91,1.39-1.07Z"/><path class="cls-16" d="m36.44,45.69c-.1.03-.2.07-.3.1-.46.34-.93.23-1.41.05-.26-.42-.07-.88-.14-1.32-.06-2.64-.17-5.28.27-7.91.02-.12.02-.24.08-.35.05-.08.11-.14.21-.15.13.13.13.46.46.29.31-.16.22-.39.07-.71.55.14,1.05.12.96.89-.32,2.78-.22,5.58-.12,8.37,0,.24-.06.49-.1.73Z"/><path class="cls-76" d="m26.2,15.4c.32.14.65.27.96.42,1.1.55,1.87,1.41,2.36,2.54.14.32.41.27.63.17.39-.17.76-.4,1.14-.6.26-.14.51-.22.78,0,.33.28.51.52.13.92-.29.3-.55.59-.95.76-.42.18-.61.62-.77,1.04-.02.06-.01.13-.01.2.04.92-.55,1.19-1.32,1.32-.34.06-.68.15-.98.31-.58.32-1.11.72-1.69,1.03-.81.43-1.62.85-2.47,1.19-.28.11-.67-.03-1.01-.06-.01-.13.09-.17.18-.21,2.24-.32,3.66-2.1,5.51-3.11.4-.22.5-.9.62-1.45-.31-.05-.52.11-.75.17-.42.1-.62-.02-.73-.43-.03-.11-.06-.23-.06-.34-.04-1.38-.93-2.36-1.61-3.45-.08-.15-.11-.3.05-.43Z"/><path class="cls-62" d="m22.79,24.65s-.08.01-.11.02c-.11.06-.24.02-.23-.08.04-.44-.13-.87.14-1.33.62-1.04,1.4-1.91,2.38-2.61.18-.13.3-.3.43-.47.34-.45.81-.59,1.35-.41.19.13.17-.44.42-.13.22.71.76,1.42.04,2.15-1.51.9-2.96,1.88-4.42,2.86Z"/><path class="cls-14" d="m36.24,21.33c-1.08.53-1.67.12-2.18-.46-.33-.5-.42-1.03-.22-1.59.45-.85,1.21-1.06,2.09-1.03.05-.02.09-.01.13.02-.4.94.32,1.82.14,2.75-.02.09.14.19.03.31Z"/><path class="cls-24" d="m26.77,19.88c-.61-.14-1.01.03-1.37.61-.26.42-.8.66-1.2,1.01-.52.45-.95.97-1.29,1.57-.07.12-.15.24-.22.36,0,.01-.03.02-.04.03-.05.08-.15.23-.14.24.34.28-.15.69.16.96-.09.06-.19.12-.28.18-.43-.1-.34-.52-.49-.79-.09-.26-.08-.54-.23-.79-.14-.24.06-.4.21-.55.63-.67,1.3-1.32,1.98-1.94.53-.49,1.04-1.02,1.57-1.51.69-.65.91-.62,1.37.2.04.15.12.29-.02.43Z"/><path class="cls-84" d="m41.23,25.96c-.03-.41-.08-.81-.1-1.22,0-.1.07-.2.11-.29.61-.22,1.37-.47,1.81-.03.48.48.45,1.4.17,1.97-.28.57-1.1.3-1.69.3-.55,0-.1-.52-.3-.73Z"/><path class="cls-93" d="m41.16,32.02c-.28-1.56,1.06-1.03,1.88-1.19.38-.07.28.22.28.42-.05,1.54-.24,1.72-1.84,1.69q-.34,0-.32-.92Z"/><path class="cls-58" d="m35.92,34.61c.18-.23.36-.45.53-.68.7-1.53,1.27-3.08.77-4.8.6-.24.94-.07.9.6-.06,1.2-.06,2.41-.24,3.59-.16,1.05-1.1,1.17-1.97,1.29Z"/><path class="cls-10" d="m34.35,29.65c.14.52-.6.28-.59.68-.91.36-1.87.11-2.81.24-1.15.16-2.34.09-3.48.31-1.08.21-1.07.28-.93,1.38.02.16.1.32-.05.47-.4-.49-.6-1.55-.27-2.09.18-.29-.07-.16-.14-.2,1.01-.09,2.01-.19,3.02-.28,1.75-.17,3.51-.34,5.26-.51Z"/><path class="cls-43" d="m41.44,27.78l.99-.12c.95-.17.96-.17.94.75,0,.44.08.89-.06,1.32-.09.01-.17.02-.26.04-.07,0,.02,0-.05.01-1.69.13-1.92-.16-1.56-2Z"/><path class="cls-30" d="m36.24,21.33c-.31-.27-.41-.58-.24-.98.18-.44-.03-.83-.24-1.2-.23-.4-.26-.72.29-.86.55-.14,1.14.36,1.29.96.13.54.14,1.08-.3,1.52-.26.19-.53.38-.79.57Z"/><path class="cls-28" d="m37.23,29.13c.32-.02.45.13.41.45-.11.94-.16,1.88-.33,2.81-.09.5-.37.97-.58,1.45-.03.06-.18.07-.27.1,0-.04.01-.07.02-.11-.04-1.54.14-3.07.36-4.59.13-.03.27-.07.4-.1Z"/><path class="cls-26" d="m22.79,24.65c.31-.28.59-.61.93-.83,1.1-.71,2.23-1.38,3.35-2.07.07.05.09.12.09.2-1.08,1.25-2.38,2.15-3.98,2.6-.06.03-.13.06-.19.1-.07,0-.13,0-.2,0Z"/><path class="cls-89" d="m35.16,36.12s-.07.06-.1.1c-.64-.84-1.45-.23-2.15-.19-1.66.1-3.32.18-4.98-.03-.12-.12-.08-.19.07-.22.15-.03.31.02.47-.03,2.11.03,4.21-.12,6.3-.41.23-.03.42-.31.68-.12-.09.3-.19.61-.28.91Z"/><path class="cls-85" d="m26.77,19.88c-.03-.14-.06-.28-.09-.42-.59-1.62-.83-3.32-1.05-5.02.03-.09.11-.13.2-.15.23-.02.4.06.44.31.28.29-.1.52-.06.79.03.14.05.27.08.41.52,1.07.6,2.26.92,3.39,0,.15,0,.29-.14.39-.04.16-.08.32-.14.53-.06-.09-.11-.16-.16-.23Z"/><path class="cls-32" d="m41.23,25.96c.16,1.34,1.12.6,1.68.55.67-.06.19-.65.23-1.02.18-1.84-1.14-.91-1.89-1.04.4-.62,1.1-.13,1.62-.43.16-.09.57.32.55.74,0,.15,0,.3,0,.45,0,1.53-.5,1.92-2,1.54-.56-.14-.15-.52-.19-.79Z"/><path class="cls-68" d="m36.83,29.24c.26.24.12.56.09.81-.17,1.2-.47,2.38-.38,3.6,0,.06-.04.12-.06.18-.01-1.5-.02-2.99-.03-4.49.13-.04.26-.07.39-.11Z"/><path class="cls-95" d="m37.03,20.76c.22-.51.31-1,.11-1.56-.19-.55-.58-.79-1.1-.91-.04-.01-.07-.02-.11-.03.53-.28.9.09,1.3.33.14.2.27.4.41.6-.07.4-.11.82-.23,1.21-.04.15-.26.25-.39.37Z"/><path class="cls-2" d="m41.44,27.78c0,.07,0,.13,0,.2-.23,1.29.07,2.1,1.61,1.79-.49.06-.97.12-1.46.18-.14.02-.29-.01-.28-.19.05-.66-.13-1.33.12-1.97Z"/><path class="cls-101" d="m26.26,14.6c-.12-.07-.25-.14-.37-.21-.04-.05-.05-.09-.01-.14.39-.31.7-.16,1,.15.13.23.07.36-.2.4-.05-.25-.25-.19-.42-.19Z"/><path class="cls-9" d="m43.3,29.73c0-.59.06-1.18,0-1.76-.06-.66-.62-.1-.89-.31.89-.27,1-.2,1,.7,0,.4.02.79.02,1.19-.01.07-.03.13-.04.2-.04,0-.07,0-.11-.01Z"/><path class="cls-64" d="m33.85,19.28c-.06.55.05,1.08.22,1.59-.49-.47-.57-1-.22-1.59Z"/><path class="cls-7" d="m25.68,14.42c.19.77.41,1.52.56,2.3.18.91.29,1.83.44,2.75-.33-.71-.68-.58-1.16-.09-.97.99-1.95,1.97-3,2.89-.59.52-.87,1.04-.62,1.8-.63-1.43-3.31-3.88-3.91-3.55-.15-.18-.07-.56-.45-.54-.12-1.87.46-3.61.98-5.37.18-.13.4-.12.61-.16,1.15.04,2.29,0,3.43-.19.12-.03.24-.04.37-.02.77.04,1.54.02,2.31,0,.19,0,.36-.02.46.18Z"/><path class="cls-79" d="m24.49,4.75c.14.16.28.32.42.48.25,1.01.3,2.05.35,3.07.05,1.21.21,2.42.14,3.64-.03.48-.18.9-.58,1.07-1.39.61-2.85.44-4.3.31q.1-.16.41-.14c-.04-.09-.11-.03-.16-.04-.08-.02-.16,0-.22-.03-.31-1.93,0-3.87-.22-5.79-.23-1.98,1.13-2.53,3-2.47.4.01.78.06,1.15-.11Z"/><path class="cls-8" d="m20.52,13.22c1.31.06,2.62.08,3.9-.19.62-.13.91-.68.88-1.34-.12-2.15-.26-4.31-.38-6.46.43.34.3.95.29,1.29,0,.82.55,1.62.1,2.44-.02.04-.03.13-.01.14,1.15.83-.13,1.82.17,2.73.09.28.16.52.42.68.56.3.51,1.13,1.19,1.37.12.04.08.42-.19.53-.33.03-.61-.35-.97-.11-1.01,0-2.02-.01-3.02.1-.1,0-.19,0-.29.01-1.16.11-2.34.04-3.5.18-.2,0-.39.01-.59.02.11-.1.21-.19.35-.32-.13-.09-.26-.2-.41-.28-.11-.06-.24-.12-.14-.25.06-.08.23-.12.32-.1.13.04.25.22.38.07.05-.06-.06-.23-.06-.36-.02-.36-.24-.76.24-1.01.05-.03.08-.22.05-.3-.24-.55-.26-1.1-.17-1.69.08-.47.07-.97,0-1.44-.05-.33-.04-.63.06-.92.26-.78.26-1.55.02-2.33-.11-.35.02-.5.45-.56-.05,2.21.12,4.42.05,6.63-.01.43.12.78.44,1.06.18.09.31.24.43.39Z"/><path class="cls-34" d="m20.52,13.22c-.14-.07-.28-.14-.43-.21-.78-.96-.39-2.12-.47-3.18-.09-1.24-.06-2.49-.08-3.73-.01-.94.47-1.46,1.4-1.52.86-.06,1.72-.15,2.58-.14.3,0,.64-.04.86.28.03.01.07.03.1.04-.07.09-.17.17-.2.27-.06.2-.17.23-.34.16-.74-.32-1.47-.11-2.22.02-.53.09-.8.48-1.11.83-.06.07-.08.2-.08.31.02.87.05,1.75.06,2.62,0,.35-.01.7-.02,1.05-.01.69-.05,1.39-.03,2.08,0,.23.09.49.21.69.15.24-.11.2-.16.31.16.01.3.02.45.03,0,.02,0,.03,0,.05-.18.02-.35.04-.53.05Z"/><path class="cls-52" d="m28.39,8.41c.06.47-.11.7-.61.8-.58.11-.45-.35-.6-.6.18-1.69-.62-3.39,0-5.08.86.43.93.6,1.08,2.9.04.66.08,1.32.12,1.98Z"/><path class="cls-71" d="m24.38,4.71c-1.41-.38-2.81-.19-4.17.24-.4.13-.54.59-.53,1.05.05,1.99.07,3.98.13,5.97.01.35.18.69.27,1.03-.34-.15-.53-.47-.54-.77-.05-2.24-.05-4.48-.07-6.73,0-.13.07-.25.11-.38,1.38-1.18,3.01-.66,4.56-.68.07,0,.15.17.23.27Z"/><path class="cls-46" d="m43.13,35.93c-.04.91-.79.42-1.19.6-1.35.36-1.19-.55-1.16-1.36.01-.19.03-.38.16-.54.29-.58.89-.15,1.29-.4.03-.02.06-.04.09-.04,1.7-.08.53,1.17.81,1.74Z"/><path class="cls-70" d="m40.54,38.62c.08-.29.08-.69.27-.84.21-.17.6-.11.91-.14.33-.03.66-.03.99-.06.24-.02.32.08.3.31-.05.44-.08.89-.1,1.34-.01.23-.12.33-.33.35-.59.05-1.19.09-1.78.14-.24.02-.33-.07-.3-.32.02-.16,0-.33,0-.49-.08-.11-.07-.2.03-.29Z"/><path class="cls-80" d="m40.94,34.63c0,.16-.01.31-.02.47-.09.51,0,1.03-.09,1.55.11.05.23.1.7.31-.63-.09-1.01-.1-1.02-.37-.04-.68.06-1.37.33-2.02l.11.06Z"/><path class="cls-80" d="m40.54,38.62c0,.1-.02.19-.03.29-.05.24-.1.47-.15.71-.23-.2-.24-1-.02-1.56.27.12.13.38.2.56Z"/><path class="cls-50" d="m40.83,36.65c.03-.51.06-1.03.09-1.55,0,.11.04.23.02.34-.19.85.1,1.25,1,1.1-.37.04-.74.07-1.11.11Z"/><path class="cls-77" d="m43.13,35.93c0-.23-.04-.46,0-.68.15-.75-.03-1.19-.9-1.02.25-.03.51-.09.76-.08.08,0,.24.15.23.23-.01.52-.06,1.03-.09,1.55Z"/><path class="cls-81" d="m33.76,31.94c-.07.84-.5,1.4-1.29,1.69-1.51.45-3.04.65-4.58.16-1.55-.88-1.78-2.08-.55-2.85.48-.3,1.04-.15,1.55-.22,1.19-.17,2.39-.25,3.59-.27,1.19-.02,1.44.29,1.28,1.5Z"/><path class="cls-74" d="m14.2,33.32c-.02-.72-.3-1.43-.15-2.17,1.9.66,3.84,1.12,5.87.98.15-.01.14.1.09.21-.12,1.41-1.19,2.17-3.01,2.1-1.06-.04-2.1-.17-2.8-1.12Z"/><path class="cls-31" d="m27.88,35.91c2.25,0,4.5.16,6.72-.37.64-.15.38.39.46.67,0,.1,0,.2-.01.3-.18.3-.46.33-.77.29-.22-.07-.15-.25-.16-.4-.65.26-1.37.32-2.02.3-.92-.03-1.84,0-2.7.23-1.56.4-2.75-.31-3.98-1.03-.41-.01-.77-.08-1.01-.49-.09-.17-.34-.21-.54-.23-.88-.08-1.72-.35-2.61-.38-.18,0-.32.03-.46.12-.03,0-.06,0-.09,0-.06-.06-.06-.12,0-.19.13-.07.26-.14.39-.22,1.27-.14,2.53-.13,3.8,0,.43-.09.64.33.99.42.6.48,1.31.71,2.01.97Z"/><path class="cls-21" d="m20.01,32.34s-.02-.03-.02-.04c0-.01-.02-.04-.02-.04-.78.42-1.55.05-2.31-.05-1.06-.14-2.1-.45-3.15-.63-.29-.05-.39-.19-.46-.42.09-.07.18-.15.26-.22.64-.1,1.27-.02,1.9.05.91.1,1.82.05,2.73.05.32,0,.62.08.94.09.18,0,.15.14.22.22-.03.33-.06.67-.08,1Z"/><path class="cls-13" d="m33.76,31.94c-.04-.42.08-.88-.34-1.18-.12-.08-.25-.21-.38-.2-.57.03-1.16-.14-1.71.13-.07.03-.16.03-.24.01-.67-.15-1.31.08-1.96.11-.34.02-.68.11-1.03.13-.59.03-1.17.41-1.38.94-.13.32.21,1.13.61,1.43.18.14.37.28.55.41-.07.07-.14.07-.22.01-.57-.13-.85-.59-1.18-1.01-.41-2.04-.4-2.02,1.68-2.1,1.86-.07,3.72-.2,5.59-.3.17.54.16,1.07,0,1.61Z"/><path class="cls-17" d="m20.7,34.73c0,.06,0,.13,0,.19-1.62,1.85-3.69,1.24-5.68,1.02.74,0,1.49-.04,2.23.03,1.36.13,2.46-.39,3.45-1.23Z"/><path class="cls-12" d="m20.1,31.34c-.32-.07-.63-.18-.95-.19-1-.03-2.01,0-3.01-.03-.61-.02-1.22-.12-1.83-.18,1.73-.2,3.46.07,5.19.06.2,0,.39.04.59.06,0,.1,0,.19,0,.29Z"/><path class="cls-66" d="m27.67,33.73c.07,0,.14,0,.22-.01,1.54.5,3.06.21,4.58-.09-.54.37-1.2.38-1.8.46-.9.12-1.82.09-2.7-.19-.11-.03-.2-.11-.3-.17Z"/><path class="cls-55" d="m24.88,34.52c-1.27,0-2.53,0-3.8,0,.26-.24.59-.18.89-.18.77,0,1.54,0,2.31.02.2,0,.4.11.6.17Z"/><path class="cls-90" d="m27.88,35.91c-.76-.14-1.51-.28-2.01-.97.22.09.48.15.67.28.58.42,1.24.51,1.92.52-.19.06-.39.11-.58.17Z"/><path class="cls-97" d="m14.5,29.75c.44-.26,1.17-.17,1.14-.74-.03-.49-.34-1.11-1.1-1.19-.29-.03-.5-.42-.87-.51-.16-.04-.39-.41-.34-.53.1-.26.33.02.51.03.28,0,.6,0,.76-.26.19-.33.21-.72,0-1.04-.63-.95.41-1.12.74-1.6.03-.05.36,0,.43.09.13.2.17.45.25.68-.15,0-.31,0-.46.01-.14.02-.28.04-.4.11-.03.02,0,.22.06.31.12.19.24.09.41.02.43-.18.38.24.36.41-.06.71.24.77.87.67.71-.12,1.39-.05,2,.58.56.58,1.61.43,2.18,1.17.14.18.28.3.25.53-.04.23-.13.34-.4.32-.09,0-.23.21-.27.35-.04.16.08.29.26.28.26-.03.21.14.21.29,0,.16-.1.27-.26.2-1.09-.46-2.22-.08-3.32-.15-1-.07-2-.01-3-.01Z"/><path class="cls-72" d="m19.92,23.35c.68.35,1.24.86,1.78,1.39-.03.06-.08.16-.09.16-.3-.15-.68-.24-.87-.48-.43-.53-.41-.58-.98-.73.05-.12.11-.23.16-.34Z"/><path class="cls-96" d="m20.79,34.92c.57-.37,1.17-.28,1.77-.09.76.24,1.77-.18,2.26.85.05.1.43.04.66.05-.16.64-.63.44-1.04.4-.61,0-1.23,0-1.84-.01-.02-.32.6-.06.43-.43-.14-.3-.51-.14-.78-.15-.43-.02-.86,0-1.29-.01-.16,0-.43.1-.41-.19.02-.24.25-.18.44-.17.2,0,.41-.04.62-.07,0-.06,0-.11,0-.17h-.8Z"/><path class="cls-75" d="m34.24,36.73c.27-.07.53-.14.8-.22-.29,1.91-.3,3.84-.3,5.77,0,.74-.01,1.49-.02,2.23-.04.04-.08.07-.13.11-.54.26-1.14.2-1.7.3-1.5.24-3.02.32-4.52.49-1.01-.27-1.5-1.17-2.17-1.84-.58-.58-1.17-.83-1.97-.55-.19.07-.47.09-.64-.14.71-.28,1.01-1.32,2.01-1.1,0,0,.3-.27.08-.47.09-.09.19-.09.29-.01.44.46.59.5.88.21.12-.12.35-.26.09-.47-.03-.03-.07-.11-.05-.12.45-.51-.33-1.11.12-1.62-.2-.36-.1-.7.05-1.05.03-.07-.05-.24-.12-.28-.15-.08-.22.05-.28.18-.04.07-.17.1-.26.15-.02-.1-.1-.26-.06-.28.38-.28.14-.59.04-.88.32-.22.59.04.88.08.79.29,1.6.22,2.4.15,1.03-.09,2.06-.17,3.08-.36.26-.05.52-.1.77-.17.24-.07.48-.09.72-.08Z"/><path class="cls-3" d="m22.1,43.11c.06,0,.13-.02.19-.02.87-.12,1.74-.08,2.61-.21.74-.11,1.21.51,1.62.99.46.54.92,1.06,1.48,1.5-.05.51-.21.91-.85.82-.71-.41-.88-1.3-1.58-1.72-.11-.19-.23-.38-.21-.6.04-.4-.2-.47-.51-.48-.46-.02-.92.01-1.38-.03-.46-.04-.97.2-1.37-.24Z"/><path class="cls-44" d="m19.92,46.3c-.45-.16.04-.57-.2-.78.06-.01.11-.03.17-.04.23-.32.34-.69.54-1.03.19-.33.41-.35.69-.15.24.17.47.3.77.23.29,0,.58-.03.87.05.05.02.09.04.13.08-.51.52-1.19.7-1.68.96.07,0,.38-.08.38.29,0,.35-.3.33-.55.34-.18,0-.36-.02-.53.09-.2.11-.4.05-.59-.03Z"/><path class="cls-4" d="m22.89,44.7s-.07-.01-.1-.02c-.16-.38.33-1.01-.4-1.14-1.34-.24-.89.51-.59,1.15-.27.05-.49-.05-.68-.22-.26-.21-.46-.28-.62.11-.1.25-.25.49-.4.73-.04.07-.14.11-.21.16.21-.79.63-1.47,1.12-2.11.29-.38.71-.27,1.1-.25.49.03.98.07,1.47.1-.2.51.44,1.4-.68,1.49Z"/><path class="cls-48" d="m27.93,45.39c-.3-.07-.49-.26-.69-.5-.44-.53-.93-1.02-1.4-1.53-.27-.29-.6-.38-.98-.36-.86.04-1.71.05-2.57.08.44-.07.87-.13,1.31-.2.39,0,.77-.01,1.17-.12.37-.1.83,0,1.15.36.21.24.53.39.73.64.26.33.46.7.84.94.28.17.52.38.79.57,0,.02-.02.04-.03.06-.09.09-.2.07-.31.06Z"/><path class="cls-86" d="m25.97,41.29c-.1,0-.19,0-.29.01-.39-.2-.77-.47-1.18-.58-.6-.17-1.22-.22-1.83-.33.97-.23,1.84.07,2.66.52.28.15.54.25.85.19-.07.06-.13.12-.2.18Z"/><path class="cls-19" d="m34.24,36.73c-.19.06-.38.13-.57.19-2.16.26-4.31.71-6.51.4-.26-.07-.52-.14-.78-.21-.58-.47-1.26-.73-1.95-.99.35-.13.7-.26,1.04-.4,1.51,1.14,3.12,1.34,4.96.85.97-.26,2.06-.07,3.09-.13.36-.02.62-.43,1.05-.36.02.27-.53.28-.33.64Z"/><path class="cls-82" d="m27.07,19.18c-.1-.38-.23-.75-.31-1.13-.17-.75-.32-1.5-.48-2.25.26.36.54.72.78,1.1.21.33.37.71.59,1.03.34.49.17,1.07.31,1.59.12.46.17.53.62.35.09-.04.18-.08.28-.1.21-.05.45-.33.62-.11.09.12-.04.43-.11.64-.12.34-.27.68-.4,1.02-.11.31-.42.38-.66.47-.44.15-.78.43-1.12.72-.86.75-1.85,1.3-2.87,1.8-.34.17-.76.17-1.14.24.73-.46,1.58-.69,2.24-1.27.53-.46,1.1-.88,1.65-1.31.11-.24.35-.33.53-.49.36-.32.45-.66.04-.98-.44-.34-.38-.88-.58-1.32Z"/><path class="cls-25" d="m27.07,19.18c.4.44.6,1.01.93,1.49.46.66-.37,1.01-.92,1.3,0-.07,0-.15,0-.22.44-.3.35-.73.27-1.14-.06-.35-.18-.69-.28-1.03,0-.13,0-.26,0-.4Z"/><path class="cls-5" d="m22.89,14.39c1-.19,2.01-.29,3.02-.1,0,.03-.01.07-.02.1-.07,0-.14.02-.21.03-.93-.01-1.86-.02-2.79-.03Z"/><path class="cls-5" d="m19.1,14.59c1.15-.3,2.33-.18,3.5-.18-.52.06-1.04.14-1.56.17-.64.03-1.29.01-1.93.01Z"/><path class="cls-98" d="m27.16,37.33c.89,0,1.79.04,2.67-.03.89-.06,1.76-.25,2.65-.35.39-.05.79-.02,1.19-.02-2.15.41-4.3.85-6.51.4Z"/><path class="cls-94" d="m22.78,46.29c-.79,0-1.59-.02-2.38-.03.15-.32.44-.12.66-.17.16-.04.42.07.4-.22-.01-.24-.24-.17-.4-.18-.23-.01-.45,0-.7-.1,1.02.17,1.59-.85,2.53-.89.5-.02.48-.35.48-.73,0-.26.13-.51.2-.77.2,0,.4.02.59-.01,1.06-.21,1.57.21,1.52,1.29-.12.27-.38.23-.6.26-.3.03-.59.02-.89.08-.82.16-1.1.67-.76,1.43-.21.14-.43.1-.65.04Z"/><path class="cls-63" d="m22.78,46.29c.18,0,.35-.02.63-.04-.23-.14-.48-.23-.48-.31,0-.15.16-.29.24-.44.05-.09.1-.18.1-.28.02-.39.2-.51.6-.52.6-.01,1.2-.14,1.8-.22.22.03.44.06.69.09-.14.63.07,1.02.79,1.16.36.07-.06.22-.09.35-.08.11-.18.15-.31.13-.1,0-.19-.02-.29-.03-.3-.02-.63-.13-.9-.04-.89.31-1.8.26-2.71.2-.03,0-.05-.04-.08-.05Z"/><path class="cls-6" d="m21.79,44.69c-.61-.27-.5-.81-.45-1.38.47.03.97.05,1.48.08-.04.43.42.88-.03,1.3-.33,0-.66,0-.99,0Z"/></svg>